<svg width="4416" height="106" viewBox="0 0 4416 106" fill="none" xmlns="http://www.w3.org/2000/svg">
<rect x="10" y="10" width="4395.64" height="86" fill="black" fill-opacity="0.76"/>
<rect x="5" y="5" width="4405.64" height="96" stroke="black" stroke-opacity="0.2" stroke-width="10"/>
<path d="M104.328 56.1699H106.953C106.816 57.4277 106.456 58.5534 105.873 59.5469C105.29 60.5404 104.465 61.3288 103.398 61.9121C102.332 62.4863 101.001 62.7734 99.4062 62.7734C98.2396 62.7734 97.1777 62.5547 96.2207 62.1172C95.2728 61.6797 94.457 61.0599 93.7734 60.2578C93.0898 59.4466 92.5612 58.4759 92.1875 57.3457C91.8229 56.2064 91.6406 54.9395 91.6406 53.5449V51.5625C91.6406 50.168 91.8229 48.9056 92.1875 47.7754C92.5612 46.6361 93.0944 45.6608 93.7871 44.8496C94.4889 44.0384 95.332 43.4141 96.3164 42.9766C97.3008 42.5391 98.4082 42.3203 99.6387 42.3203C101.143 42.3203 102.414 42.6029 103.453 43.168C104.492 43.7331 105.299 44.5169 105.873 45.5195C106.456 46.513 106.816 47.666 106.953 48.9785H104.328C104.201 48.0488 103.964 47.2513 103.617 46.5859C103.271 45.9115 102.779 45.3919 102.141 45.0273C101.503 44.6628 100.669 44.4805 99.6387 44.4805C98.7546 44.4805 97.9753 44.6491 97.3008 44.9863C96.6354 45.3236 96.0749 45.8021 95.6191 46.4219C95.1725 47.0417 94.8353 47.7845 94.6074 48.6504C94.3796 49.5163 94.2656 50.4779 94.2656 51.5352V53.5449C94.2656 54.5202 94.3659 55.4362 94.5664 56.293C94.776 57.1497 95.0905 57.9017 95.5098 58.5488C95.929 59.196 96.4622 59.7064 97.1094 60.0801C97.7565 60.4447 98.5221 60.627 99.4062 60.627C100.527 60.627 101.421 60.4492 102.086 60.0937C102.751 59.7383 103.253 59.2279 103.59 58.5625C103.936 57.8971 104.182 57.0996 104.328 56.1699ZM110.549 42.5937H117.139C118.633 42.5937 119.896 42.8216 120.926 43.2773C121.965 43.7331 122.753 44.4076 123.291 45.3008C123.838 46.1849 124.111 47.2741 124.111 48.5684C124.111 49.4798 123.924 50.3138 123.551 51.0703C123.186 51.8177 122.658 52.4557 121.965 52.9844C121.281 53.5039 120.461 53.8913 119.504 54.1465L118.766 54.4336H112.572L112.545 52.2871H117.221C118.169 52.2871 118.957 52.123 119.586 51.7949C120.215 51.4577 120.689 51.0065 121.008 50.4414C121.327 49.8763 121.486 49.252 121.486 48.5684C121.486 47.8027 121.336 47.1328 121.035 46.5586C120.734 45.9844 120.26 45.5423 119.613 45.2324C118.975 44.9134 118.15 44.7539 117.139 44.7539H113.187V62.5H110.549V42.5937ZM122.184 62.5L117.344 53.4766L120.092 53.4629L125 62.3359V62.5H122.184ZM140.449 60.3535V62.5H129.908V60.3535H140.449ZM130.441 42.5937V62.5H127.803V42.5937H130.441ZM139.055 51.1523V53.2988H129.908V51.1523H139.055ZM140.312 42.5937V44.7539H129.908V42.5937H140.312ZM151.086 44.3574L144.496 62.5H141.803L149.391 42.5937H151.127L151.086 44.3574ZM156.609 62.5L150.006 44.3574L149.965 42.5937H151.701L159.316 62.5H156.609ZM156.268 55.1309V57.291H145.084V55.1309H156.268ZM167.561 42.5937V62.5H164.963V42.5937H167.561ZM173.959 42.5937V44.7539L158.578 44.7539V42.5937L173.959 42.5937ZM179.742 42.5937V62.5H177.104V42.5937H179.742ZM190.967 59.4785L196.832 42.5937H199.689L192.32 62.5H190.283L190.967 59.4785ZM185.484 42.5937L191.295 59.4785L192.02 62.5H189.982L182.627 42.5937H185.484ZM215.016 60.3535V62.5H204.475V60.3535H215.016ZM205.008 42.5937V62.5H202.369V42.5937H205.008ZM213.621 51.1523V53.2988H204.475V51.1523H213.621ZM214.879 42.5937V44.7539H204.475V42.5937H214.879ZM230.615 62.5H226.459L226.486 60.3535H230.615C232.037 60.3535 233.222 60.0573 234.17 59.4648C235.118 58.8633 235.829 58.0247 236.303 56.9492C236.786 55.8646 237.027 54.5977 237.027 53.1484V51.9316C237.027 50.7923 236.891 49.7806 236.617 48.8965C236.344 48.0033 235.943 47.2513 235.414 46.6406C234.885 46.0208 234.238 45.5514 233.473 45.2324C232.716 44.9134 231.846 44.7539 230.861 44.7539H226.377V42.5937H230.861C232.165 42.5937 233.354 42.8125 234.43 43.25C235.505 43.6784 236.43 44.3027 237.205 45.123C237.989 45.9342 238.59 46.9186 239.01 48.0762C239.429 49.2246 239.639 50.5189 239.639 51.959V53.1484C239.639 54.5885 239.429 55.8874 239.01 57.0449C238.59 58.1934 237.984 59.1732 237.191 59.9844C236.408 60.7956 235.46 61.4199 234.348 61.8574C233.245 62.2858 232.001 62.5 230.615 62.5ZM227.867 42.5937V62.5H225.228V42.5937H227.867ZM256.25 60.3535V62.5H245.709V60.3535H256.25ZM246.242 42.5937V62.5L243.603 62.5V42.5937H246.242ZM254.855 51.1523V53.2988H245.709V51.1523H254.855ZM256.113 42.5937V44.7539H245.709V42.5937H256.113ZM270.127 57.4687C270.127 57.0039 270.054 56.5937 269.908 56.2383C269.771 55.8737 269.525 55.5456 269.17 55.2539C268.824 54.9622 268.34 54.6842 267.721 54.4199C267.11 54.1556 266.335 53.8867 265.396 53.6133C264.412 53.3216 263.523 52.998 262.73 52.6426C261.937 52.278 261.258 51.8633 260.693 51.3984C260.128 50.9336 259.695 50.4004 259.395 49.7988C259.094 49.1973 258.943 48.5091 258.943 47.7344C258.943 46.9596 259.103 46.2441 259.422 45.5879C259.741 44.9316 260.197 44.362 260.789 43.8789C261.391 43.3867 262.106 43.0039 262.936 42.7305C263.765 42.457 264.69 42.3203 265.711 42.3203C267.206 42.3203 268.473 42.6074 269.512 43.1816C270.56 43.7467 271.357 44.4896 271.904 45.4102C272.451 46.3216 272.725 47.2969 272.725 48.3359H270.1C270.1 47.5885 269.94 46.9277 269.621 46.3535C269.302 45.7702 268.819 45.3145 268.172 44.9863C267.525 44.6491 266.704 44.4805 265.711 44.4805C264.772 44.4805 263.997 44.6217 263.387 44.9043C262.776 45.1868 262.32 45.5697 262.02 46.0527C261.728 46.5358 261.582 47.0872 261.582 47.707C261.582 48.1263 261.669 48.5091 261.842 48.8555C262.024 49.1927 262.302 49.5072 262.676 49.7988C263.059 50.0905 263.542 50.3594 264.125 50.6055C264.717 50.8516 265.424 51.0885 266.244 51.3164C267.374 51.6354 268.35 51.9909 269.17 52.3828C269.99 52.7747 270.665 53.2168 271.193 53.709C271.731 54.1921 272.128 54.7435 272.383 55.3633C272.647 55.974 272.779 56.6667 272.779 57.4414C272.779 58.2526 272.615 58.9863 272.287 59.6426C271.959 60.2988 271.49 60.8594 270.879 61.3242C270.268 61.7891 269.534 62.1491 268.678 62.4043C267.83 62.6504 266.882 62.7734 265.834 62.7734C264.913 62.7734 264.006 62.6458 263.113 62.3906C262.229 62.1354 261.423 61.7526 260.693 61.2422C259.973 60.7318 259.395 60.1029 258.957 59.3555C258.529 58.599 258.314 57.724 258.314 56.7305H260.939C260.939 57.4141 261.072 58.002 261.336 58.4941C261.6 58.9772 261.96 59.3783 262.416 59.6973C262.881 60.0163 263.405 60.2533 263.988 60.4082C264.581 60.554 265.196 60.627 265.834 60.627C266.755 60.627 267.534 60.4993 268.172 60.2441C268.81 59.9889 269.293 59.6243 269.621 59.1504C269.958 58.6764 270.127 58.1159 270.127 57.4687ZM278.973 42.5937V62.5H276.334V42.5937H278.973ZM298.482 52.5879V59.875C298.236 60.2396 297.844 60.6497 297.307 61.1055C296.769 61.5521 296.026 61.944 295.078 62.2812C294.139 62.6094 292.927 62.7734 291.441 62.7734C290.229 62.7734 289.113 62.5638 288.092 62.1445C287.08 61.7161 286.2 61.0964 285.453 60.2852C284.715 59.4648 284.141 58.4714 283.73 57.3047C283.329 56.1289 283.129 54.7982 283.129 53.3125V51.7676C283.129 50.2819 283.302 48.9557 283.648 47.7891C284.004 46.6224 284.523 45.6335 285.207 44.8223C285.891 44.002 286.729 43.3822 287.723 42.9629C288.716 42.5345 289.855 42.3203 291.141 42.3203C292.663 42.3203 293.934 42.5846 294.955 43.1133C295.985 43.6328 296.787 44.3529 297.361 45.2734C297.945 46.194 298.318 47.2422 298.482 48.418H295.844C295.725 47.6979 295.488 47.0417 295.133 46.4492C294.786 45.8568 294.29 45.3828 293.643 45.0273C292.995 44.6628 292.161 44.4805 291.141 44.4805C290.22 44.4805 289.423 44.6491 288.748 44.9863C288.074 45.3236 287.518 45.8066 287.08 46.4355C286.643 47.0645 286.314 47.8255 286.096 48.7187C285.886 49.612 285.781 50.6191 285.781 51.7402V53.3125C285.781 54.4609 285.913 55.4863 286.178 56.3887C286.451 57.291 286.839 58.0612 287.34 58.6992C287.841 59.3281 288.438 59.8066 289.131 60.1348C289.833 60.4629 290.607 60.627 291.455 60.627C292.394 60.627 293.155 60.5495 293.738 60.3945C294.322 60.2305 294.777 60.0391 295.105 59.8203C295.434 59.5924 295.684 59.3783 295.857 59.1777V54.7207H291.25V52.5879H298.482ZM318.17 42.5937V62.5H315.518L305.496 47.1465V62.5H302.857V42.5937H305.496L315.559 57.9883V42.5937H318.17Z" fill="white"/>
<ellipse cx="410.701" cy="53" rx="8" ry="8.5" transform="rotate(12.95 410.701 53)" fill="#5E00FF"/>
<path d="M503.595 63V43.4H512.051C514.235 43.4 515.924 43.8387 517.119 44.716C518.332 45.5933 518.939 46.8347 518.939 48.44C518.939 49.504 518.687 50.4 518.183 51.128C517.697 51.856 517.025 52.4067 516.167 52.78C515.327 53.1533 514.403 53.34 513.395 53.34L513.871 52.668C515.121 52.668 516.195 52.864 517.091 53.256C518.005 53.6293 518.715 54.1987 519.219 54.964C519.723 55.7107 519.975 56.644 519.975 57.764C519.975 59.4253 519.359 60.7133 518.127 61.628C516.913 62.5427 515.075 63 512.611 63H503.595ZM505.667 61.292H512.583C514.3 61.292 515.616 61.0027 516.531 60.424C517.445 59.8267 517.903 58.884 517.903 57.596C517.903 56.3267 517.445 55.4027 516.531 54.824C515.616 54.2267 514.3 53.928 512.583 53.928H505.443V52.22H511.911C513.479 52.22 514.692 51.9213 515.551 51.324C516.428 50.7267 516.867 49.84 516.867 48.664C516.867 47.4693 516.428 46.5827 515.551 46.004C514.692 45.4067 513.479 45.108 511.911 45.108H505.667V61.292ZM524.704 63V43.4H532.04C533.701 43.4 535.129 43.6707 536.324 44.212C537.519 44.7347 538.433 45.5 539.068 46.508C539.721 47.4973 540.048 48.7013 540.048 50.12C540.048 51.5013 539.721 52.696 539.068 53.704C538.433 54.6933 537.519 55.4587 536.324 56C535.129 56.5227 533.701 56.784 532.04 56.784L525.852 56.784L526.776 55.832V63H524.704ZM538.088 63L533.048 55.888H535.288L540.356 63H538.088ZM526.776 56L525.852 55.02H531.984C533.944 55.02 535.428 54.5907 536.436 53.732C537.463 52.8733 537.976 51.6693 537.976 50.12C537.976 48.552 537.463 47.3387 536.436 46.48C535.428 45.6213 533.944 45.192 531.984 45.192H525.852L526.776 44.212V56ZM541.802 63L550.762 43.4H552.806L561.766 63H559.582L551.35 44.604H552.19L543.958 63H541.802ZM545.33 57.764L545.946 56.084H557.342L557.958 57.764H545.33ZM565.009 63V43.4H566.717L580.241 60.424H579.345V43.4H581.389V63H579.681L566.185 45.976H567.081V63H565.009ZM587.786 63V43.4H595.766C597.857 43.4 599.686 43.82 601.254 44.66C602.841 45.4813 604.073 46.6293 604.95 48.104C605.827 49.5787 606.266 51.2773 606.266 53.2C606.266 55.1227 605.827 56.8213 604.95 58.296C604.073 59.7707 602.841 60.928 601.254 61.768C599.686 62.5893 597.857 63 595.766 63L587.786 63ZM589.858 61.208H595.654C597.39 61.208 598.893 60.872 600.162 60.2C601.45 59.5093 602.449 58.5667 603.158 57.372C603.867 56.1587 604.222 54.768 604.222 53.2C604.222 51.6133 603.867 50.2227 603.158 49.028C602.449 47.8333 601.45 46.9 600.162 46.228C598.893 45.5373 597.39 45.192 595.654 45.192H589.858V61.208ZM610.919 63V43.4H612.991V63H610.919ZM619.368 63V43.4H621.076L634.6 60.424H633.704V43.4H635.748V63H634.04L620.544 45.976H621.44V63H619.368ZM650.741 63.168C649.248 63.168 647.867 62.9253 646.597 62.44C645.347 61.936 644.255 61.236 643.321 60.34C642.407 59.444 641.688 58.3893 641.165 57.176C640.661 55.9627 640.409 54.6373 640.409 53.2C640.409 51.7627 640.661 50.4373 641.165 49.224C641.688 48.0107 642.416 46.956 643.349 46.06C644.283 45.164 645.375 44.4733 646.625 43.988C647.895 43.484 649.276 43.232 650.769 43.232C652.263 43.232 653.625 43.4653 654.857 43.932C656.108 44.3987 657.172 45.108 658.049 46.06L656.761 47.376C655.94 46.5547 655.035 45.9667 654.045 45.612C653.056 45.2573 651.992 45.08 650.853 45.08C649.64 45.08 648.52 45.2853 647.493 45.696C646.485 46.088 645.599 46.6573 644.833 47.404C644.087 48.132 643.499 48.9907 643.069 49.98C642.659 50.9507 642.453 52.024 642.453 53.2C642.453 54.3573 642.659 55.4307 643.069 56.42C643.499 57.4093 644.087 58.2773 644.833 59.024C645.599 59.752 646.485 60.3213 647.493 60.732C648.52 61.124 649.631 61.32 650.825 61.32C651.945 61.32 653 61.152 653.989 60.816C654.997 60.48 655.921 59.9107 656.761 59.108L657.937 60.676C657.004 61.4973 655.912 62.1227 654.661 62.552C653.411 62.9627 652.104 63.168 650.741 63.168ZM655.949 60.424V53.2H657.937V60.676L655.949 60.424Z" fill="white"/>
<ellipse cx="751.104" cy="53" rx="8" ry="8.5" transform="rotate(12.95 751.104 53)" fill="#5E00FF"/>
<path d="M851.893 63.168C849.392 63.168 847.423 62.4493 845.985 61.012C844.548 59.5747 843.829 57.4467 843.829 54.628V43.4H845.901V54.544C845.901 56.8587 846.424 58.5667 847.469 59.668C848.515 60.7693 849.989 61.32 851.893 61.32C853.816 61.32 855.3 60.7693 856.345 59.668C857.391 58.5667 857.913 56.8587 857.913 54.544V43.4H859.929V54.628C859.929 57.4467 859.211 59.5747 857.773 61.012C856.355 62.4493 854.395 63.168 851.893 63.168ZM866.173 63V43.4H868.245V63H866.173ZM870.73 65.8L879.97 39.424H881.79L872.55 65.8H870.73ZM891.897 63.168C889.396 63.168 887.427 62.4493 885.989 61.012C884.552 59.5747 883.833 57.4467 883.833 54.628V43.4H885.905V54.544C885.905 56.8587 886.428 58.5667 887.473 59.668C888.519 60.7693 889.993 61.32 891.897 61.32C893.82 61.32 895.304 60.7693 896.349 59.668C897.395 58.5667 897.917 56.8587 897.917 54.544V43.4H899.933V54.628C899.933 57.4467 899.215 59.5747 897.777 61.012C896.359 62.4493 894.399 63.168 891.897 63.168ZM903.188 63L911.224 52.136V53.732L903.664 43.4H906.044L912.4 52.024L911.476 52.052L917.832 43.4H920.072L912.596 53.592V52.136L920.604 63H918.196L911.42 53.788H912.288L905.568 63L903.188 63Z" fill="white"/>
<ellipse cx="1011.51" cy="53" rx="8" ry="8.5" transform="rotate(12.95 1011.51 53)" fill="#5E00FF"/>
<path d="M1108.85 63L1102.24 43.4H1104.37L1110.56 61.852H1109.5L1115.88 43.4H1117.78L1124.08 61.852H1123.08L1129.32 43.4H1131.31L1124.7 63H1122.52L1116.5 45.5H1117.06L1111.01 63H1108.85ZM1136.96 52.164H1147.32V53.928H1136.96V52.164ZM1137.18 61.208H1148.97V63H1135.11V43.4L1148.55 43.4V45.192H1137.18V61.208ZM1153.84 63V43.4H1162.29C1164.48 43.4 1166.17 43.8387 1167.36 44.716C1168.58 45.5933 1169.18 46.8347 1169.18 48.44C1169.18 49.504 1168.93 50.4 1168.43 51.128C1167.94 51.856 1167.27 52.4067 1166.41 52.78C1165.57 53.1533 1164.65 53.34 1163.64 53.34L1164.11 52.668C1165.36 52.668 1166.44 52.864 1167.33 53.256C1168.25 53.6293 1168.96 54.1987 1169.46 54.964C1169.97 55.7107 1170.22 56.644 1170.22 57.764C1170.22 59.4253 1169.6 60.7133 1168.37 61.628C1167.16 62.5427 1165.32 63 1162.85 63H1153.84ZM1155.91 61.292H1162.83C1164.54 61.292 1165.86 61.0027 1166.77 60.424C1167.69 59.8267 1168.15 58.884 1168.15 57.596C1168.15 56.3267 1167.69 55.4027 1166.77 54.824C1165.86 54.2267 1164.54 53.928 1162.83 53.928H1155.69V52.22H1162.15C1163.72 52.22 1164.94 51.9213 1165.79 51.324C1166.67 50.7267 1167.11 49.84 1167.11 48.664C1167.11 47.4693 1166.67 46.5827 1165.79 46.004C1164.94 45.4067 1163.72 45.108 1162.15 45.108H1155.91V61.292Z" fill="white"/>
<ellipse cx="1261.91" cy="53" rx="8" ry="8.5" transform="rotate(12.95 1261.91 53)" fill="#5E00FF"/>
<path d="M1353.92 42.5937H1360.51C1362.01 42.5937 1363.27 42.8216 1364.3 43.2773C1365.34 43.7331 1366.13 44.4076 1366.66 45.3008C1367.21 46.1849 1367.48 47.2741 1367.48 48.5684C1367.48 49.4798 1367.3 50.3138 1366.92 51.0703C1366.56 51.8177 1366.03 52.4557 1365.34 52.9844C1364.65 53.5039 1363.83 53.8913 1362.88 54.1465L1362.14 54.4336H1355.94L1355.92 52.2871H1360.59C1361.54 52.2871 1362.33 52.123 1362.96 51.7949C1363.59 51.4577 1364.06 51.0065 1364.38 50.4414C1364.7 49.8763 1364.86 49.252 1364.86 48.5684C1364.86 47.8027 1364.71 47.1328 1364.41 46.5586C1364.11 45.9844 1363.63 45.5423 1362.99 45.2324C1362.35 44.9134 1361.52 44.7539 1360.51 44.7539H1356.56V62.5H1353.92V42.5937ZM1365.56 62.5L1360.72 53.4766L1363.46 53.4629L1368.37 62.3359V62.5H1365.56ZM1383.82 60.3535V62.5H1373.28V60.3535H1383.82ZM1373.81 42.5937V62.5H1371.18V42.5937H1373.81ZM1382.43 51.1523V53.2988H1373.28V51.1523H1382.43ZM1383.69 42.5937V44.7539H1373.28V42.5937H1383.69ZM1392.48 62.5H1388.32L1388.35 60.3535H1392.48C1393.9 60.3535 1395.08 60.0573 1396.03 59.4648C1396.98 58.8633 1397.69 58.0247 1398.16 56.9492C1398.65 55.8646 1398.89 54.5977 1398.89 53.1484V51.9316C1398.89 50.7923 1398.75 49.7806 1398.48 48.8965C1398.2 48.0033 1397.8 47.2513 1397.28 46.6406C1396.75 46.0208 1396.1 45.5514 1395.33 45.2324C1394.58 44.9134 1393.71 44.7539 1392.72 44.7539H1388.24V42.5937H1392.72C1394.03 42.5937 1395.22 42.8125 1396.29 43.25C1397.37 43.6784 1398.29 44.3027 1399.07 45.123C1399.85 45.9342 1400.45 46.9186 1400.87 48.0762C1401.29 49.2246 1401.5 50.5189 1401.5 51.959V53.1484C1401.5 54.5885 1401.29 55.8874 1400.87 57.0449C1400.45 58.1934 1399.85 59.1732 1399.05 59.9844C1398.27 60.7956 1397.32 61.4199 1396.21 61.8574C1395.11 62.2858 1393.86 62.5 1392.48 62.5ZM1389.73 42.5937V62.5H1387.09V42.5937H1389.73ZM1418.11 60.3535V62.5L1407.57 62.5V60.3535L1418.11 60.3535ZM1408.1 42.5937V62.5H1405.46V42.5937H1408.1ZM1416.72 51.1523V53.2988L1407.57 53.2988V51.1523H1416.72ZM1417.97 42.5937V44.7539H1407.57V42.5937H1417.97ZM1431.99 57.4687C1431.99 57.0039 1431.91 56.5937 1431.77 56.2383C1431.63 55.8737 1431.39 55.5456 1431.03 55.2539C1430.68 54.9622 1430.2 54.6842 1429.58 54.4199C1428.97 54.1556 1428.2 53.8867 1427.26 53.6133C1426.27 53.3216 1425.38 52.998 1424.59 52.6426C1423.8 52.278 1423.12 51.8633 1422.55 51.3984C1421.99 50.9336 1421.56 50.4004 1421.26 49.7988C1420.95 49.1973 1420.8 48.5091 1420.8 47.7344C1420.8 46.9596 1420.96 46.2441 1421.28 45.5879C1421.6 44.9316 1422.06 44.362 1422.65 43.8789C1423.25 43.3867 1423.97 43.0039 1424.8 42.7305C1425.63 42.457 1426.55 42.3203 1427.57 42.3203C1429.07 42.3203 1430.33 42.6074 1431.37 43.1816C1432.42 43.7467 1433.22 44.4896 1433.77 45.4102C1434.31 46.3216 1434.59 47.2969 1434.59 48.3359H1431.96C1431.96 47.5885 1431.8 46.9277 1431.48 46.3535C1431.16 45.7702 1430.68 45.3145 1430.03 44.9863C1429.39 44.6491 1428.57 44.4805 1427.57 44.4805C1426.63 44.4805 1425.86 44.6217 1425.25 44.9043C1424.64 45.1868 1424.18 45.5697 1423.88 46.0527C1423.59 46.5358 1423.44 47.0872 1423.44 47.707C1423.44 48.1263 1423.53 48.5091 1423.7 48.8555C1423.89 49.1927 1424.16 49.5072 1424.54 49.7988C1424.92 50.0905 1425.4 50.3594 1425.99 50.6055C1426.58 50.8516 1427.28 51.0885 1428.11 51.3164C1429.24 51.6354 1430.21 51.9909 1431.03 52.3828C1431.85 52.7747 1432.53 53.2168 1433.05 53.709C1433.59 54.1921 1433.99 54.7435 1434.24 55.3633C1434.51 55.974 1434.64 56.6667 1434.64 57.4414C1434.64 58.2526 1434.48 58.9863 1434.15 59.6426C1433.82 60.2988 1433.35 60.8594 1432.74 61.3242C1432.13 61.7891 1431.4 62.1491 1430.54 62.4043C1429.69 62.6504 1428.74 62.7734 1427.69 62.7734C1426.77 62.7734 1425.87 62.6458 1424.97 62.3906C1424.09 62.1354 1423.28 61.7526 1422.55 61.2422C1421.83 60.7318 1421.26 60.1029 1420.82 59.3555C1420.39 58.599 1420.18 57.724 1420.18 56.7305H1422.8C1422.8 57.4141 1422.93 58.002 1423.2 58.4941C1423.46 58.9772 1423.82 59.3783 1424.28 59.6973C1424.74 60.0163 1425.27 60.2533 1425.85 60.4082C1426.44 60.554 1427.06 60.627 1427.69 60.627C1428.62 60.627 1429.39 60.4993 1430.03 60.2441C1430.67 59.9889 1431.15 59.6243 1431.48 59.1504C1431.82 58.6764 1431.99 58.1159 1431.99 57.4687Z" fill="white"/>
<ellipse cx="1526.31" cy="53" rx="8" ry="8.5" transform="rotate(12.95 1526.31 53)" fill="#5E00FF"/>
<path d="M1621.15 42.5937V62.5H1618.52V42.5937H1621.15ZM1631.34 62.5H1627.18L1627.21 60.3535H1631.34C1632.76 60.3535 1633.95 60.0573 1634.89 59.4648C1635.84 58.8633 1636.55 58.0247 1637.03 56.9492C1637.51 55.8646 1637.75 54.5977 1637.75 53.1484V51.9316C1637.75 50.7923 1637.62 49.7806 1637.34 48.8965C1637.07 48.0033 1636.67 47.2513 1636.14 46.6406C1635.61 46.0208 1634.96 45.5514 1634.2 45.2324C1633.44 44.9134 1632.57 44.7539 1631.59 44.7539H1627.1V42.5937H1631.59C1632.89 42.5937 1634.08 42.8125 1635.15 43.25C1636.23 43.6784 1637.16 44.3027 1637.93 45.123C1638.71 45.9342 1639.32 46.9186 1639.73 48.0762C1640.15 49.2246 1640.36 50.5189 1640.36 51.959V53.1484C1640.36 54.5885 1640.15 55.8874 1639.73 57.0449C1639.32 58.1934 1638.71 59.1732 1637.92 59.9844C1637.13 60.7956 1636.18 61.4199 1635.07 61.8574C1633.97 62.2858 1632.73 62.5 1631.34 62.5ZM1628.59 42.5937V62.5H1625.95V42.5937H1628.59ZM1656.97 60.3535V62.5H1646.43V60.3535H1656.97ZM1646.97 42.5937V62.5H1644.33V42.5937H1646.97ZM1655.58 51.1523V53.2988H1646.43V51.1523H1655.58ZM1656.84 42.5937V44.7539H1646.43V42.5937H1656.84ZM1675.55 42.5937V62.5H1672.9L1662.88 47.1465V62.5H1660.24V42.5937L1662.88 42.5937L1672.94 57.9883V42.5937H1675.55ZM1687.18 42.5937V62.5H1684.58V42.5937H1687.18ZM1693.57 42.5937V44.7539H1678.19V42.5937H1693.57ZM1699.36 42.5937V62.5H1696.72V42.5937H1699.36ZM1709.54 62.5H1705.39L1705.41 60.3535H1709.54C1710.96 60.3535 1712.15 60.0573 1713.1 59.4648C1714.05 58.8633 1714.76 58.0247 1715.23 56.9492C1715.71 55.8646 1715.96 54.5977 1715.96 53.1484V51.9316C1715.96 50.7923 1715.82 49.7806 1715.55 48.8965C1715.27 48.0033 1714.87 47.2513 1714.34 46.6406C1713.81 46.0208 1713.17 45.5514 1712.4 45.2324C1711.64 44.9134 1710.77 44.7539 1709.79 44.7539H1705.3V42.5937H1709.79C1711.09 42.5937 1712.28 42.8125 1713.36 43.25C1714.43 43.6784 1715.36 44.3027 1716.13 45.123C1716.92 45.9342 1717.52 46.9186 1717.94 48.0762C1718.36 49.2246 1718.57 50.5189 1718.57 51.959V53.1484C1718.57 54.5885 1718.36 55.8874 1717.94 57.0449C1717.52 58.1934 1716.91 59.1732 1716.12 59.9844C1715.34 60.7956 1714.39 61.4199 1713.28 61.8574C1712.17 62.2858 1710.93 62.5 1709.54 62.5ZM1706.8 42.5937V62.5H1704.16V42.5937H1706.8ZM1729.6 44.3574L1723.01 62.5H1720.32L1727.9 42.5937H1729.64L1729.6 44.3574ZM1735.12 62.5L1728.52 44.3574L1728.48 42.5937H1730.21L1737.83 62.5H1735.12ZM1734.78 55.1309V57.291H1723.6V55.1309H1734.78ZM1745.88 62.5H1741.73L1741.75 60.3535H1745.88C1747.3 60.3535 1748.49 60.0573 1749.44 59.4648C1750.39 58.8633 1751.1 58.0247 1751.57 56.9492C1752.05 55.8646 1752.3 54.5977 1752.3 53.1484V51.9316C1752.3 50.7923 1752.16 49.7806 1751.88 48.8965C1751.61 48.0033 1751.21 47.2513 1750.68 46.6406C1750.15 46.0208 1749.51 45.5514 1748.74 45.2324C1747.98 44.9134 1747.11 44.7539 1746.13 44.7539H1741.64V42.5937H1746.13C1747.43 42.5937 1748.62 42.8125 1749.7 43.25C1750.77 43.6784 1751.7 44.3027 1752.47 45.123C1753.26 45.9342 1753.86 46.9186 1754.28 48.0762C1754.7 49.2246 1754.91 50.5189 1754.91 51.959V53.1484C1754.91 54.5885 1754.7 55.8874 1754.28 57.0449C1753.86 58.1934 1753.25 59.1732 1752.46 59.9844C1751.68 60.7956 1750.73 61.4199 1749.62 61.8574C1748.51 62.2858 1747.27 62.5 1745.88 62.5ZM1743.13 42.5937V62.5H1740.5V42.5937H1743.13Z" fill="white"/>
<ellipse cx="1846.72" cy="53" rx="8" ry="8.5" transform="rotate(12.95 1846.72 53)" fill="#5E00FF"/>
<path d="M1938.73 42.5937H1945.32C1946.81 42.5937 1948.07 42.8216 1949.1 43.2773C1950.14 43.7331 1950.93 44.4076 1951.47 45.3008C1952.02 46.1849 1952.29 47.2741 1952.29 48.5684C1952.29 49.4798 1952.1 50.3138 1951.73 51.0703C1951.36 51.8177 1950.84 52.4557 1950.14 52.9844C1949.46 53.5039 1948.64 53.8913 1947.68 54.1465L1946.94 54.4336H1940.75L1940.72 52.2871H1945.4C1946.35 52.2871 1947.14 52.123 1947.76 51.7949C1948.39 51.4577 1948.87 51.0065 1949.19 50.4414C1949.51 49.8763 1949.66 49.252 1949.66 48.5684C1949.66 47.8027 1949.51 47.1328 1949.21 46.5586C1948.91 45.9844 1948.44 45.5423 1947.79 45.2324C1947.15 44.9134 1946.33 44.7539 1945.32 44.7539H1941.37V62.5H1938.73V42.5937ZM1950.36 62.5L1945.52 53.4766L1948.27 53.4629L1953.18 62.3359V62.5H1950.36ZM1968.63 60.3535V62.5H1958.09V60.3535H1968.63ZM1958.62 42.5937V62.5H1955.98V42.5937H1958.62ZM1967.23 51.1523V53.2988H1958.09V51.1523H1967.23ZM1968.49 42.5937V44.7539H1958.09V42.5937H1968.49ZM1978.99 53.1895H1973.95L1973.92 51.0703H1978.5C1979.26 51.0703 1979.92 50.9427 1980.48 50.6875C1981.05 50.4323 1981.48 50.0677 1981.79 49.5937C1982.11 49.1107 1982.27 48.5365 1982.27 47.8711C1982.27 47.1419 1982.13 46.5495 1981.85 46.0937C1981.57 45.6289 1981.15 45.2917 1980.58 45.082C1980.01 44.8633 1979.29 44.7539 1978.42 44.7539H1974.53V62.5H1971.9V42.5937H1978.42C1979.44 42.5937 1980.35 42.6986 1981.15 42.9082C1981.95 43.1087 1982.63 43.4277 1983.19 43.8652C1983.75 44.2936 1984.18 44.8405 1984.47 45.5059C1984.76 46.1712 1984.91 46.9687 1984.91 47.8984C1984.91 48.7187 1984.7 49.4616 1984.28 50.127C1983.86 50.7832 1983.28 51.321 1982.53 51.7402C1981.79 52.1595 1980.93 52.4284 1979.93 52.5469L1978.99 53.1895ZM1978.87 62.5H1972.91L1974.4 60.3535H1978.87C1979.71 60.3535 1980.42 60.2077 1981 59.916C1981.59 59.6243 1982.04 59.2142 1982.35 58.6855C1982.66 58.1478 1982.82 57.5143 1982.82 56.7852C1982.82 56.0469 1982.69 55.4089 1982.42 54.8711C1982.16 54.3333 1981.74 53.9186 1981.18 53.627C1980.61 53.3353 1979.88 53.1895 1978.99 53.1895H1975.23L1975.26 51.0703H1980.4L1980.96 51.8359C1981.92 51.918 1982.73 52.1914 1983.39 52.6562C1984.06 53.112 1984.56 53.6953 1984.91 54.4062C1985.27 55.1172 1985.44 55.901 1985.44 56.7578C1985.44 57.9974 1985.17 59.0456 1984.62 59.9023C1984.09 60.75 1983.32 61.3971 1982.34 61.8437C1981.36 62.2812 1980.2 62.5 1978.87 62.5ZM1989.34 42.5937H1995.93C1997.42 42.5937 1998.69 42.8216 1999.72 43.2773C2000.76 43.7331 2001.54 44.4076 2002.08 45.3008C2002.63 46.1849 2002.9 47.2741 2002.9 48.5684C2002.9 49.4798 2002.72 50.3138 2002.34 51.0703C2001.98 51.8177 2001.45 52.4557 2000.76 52.9844C2000.07 53.5039 1999.25 53.8913 1998.3 54.1465L1997.56 54.4336H1991.36L1991.34 52.2871H1996.01C1996.96 52.2871 1997.75 52.123 1998.38 51.7949C1999.01 51.4577 1999.48 51.0065 1999.8 50.4414C2000.12 49.8763 2000.28 49.252 2000.28 48.5684C2000.28 47.8027 2000.13 47.1328 1999.83 46.5586C1999.53 45.9844 1999.05 45.5423 1998.4 45.2324C1997.77 44.9134 1996.94 44.7539 1995.93 44.7539H1991.98V62.5H1989.34V42.5937ZM2000.98 62.5L1996.14 53.4766L1998.88 53.4629L2003.79 62.3359V62.5H2000.98ZM2013.96 44.3574L2007.37 62.5H2004.68L2012.27 42.5937H2014L2013.96 44.3574ZM2019.49 62.5L2012.88 44.3574L2012.84 42.5937H2014.58L2022.19 62.5H2019.49ZM2019.15 55.1309V57.291H2007.96V55.1309H2019.15ZM2040.17 42.5937V62.5H2037.52L2027.5 47.1465V62.5H2024.86V42.5937H2027.5L2037.56 57.9883V42.5937H2040.17ZM2050.23 62.5H2046.08L2046.11 60.3535H2050.23C2051.66 60.3535 2052.84 60.0573 2053.79 59.4648C2054.74 58.8633 2055.45 58.0247 2055.92 56.9492C2056.41 55.8646 2056.65 54.5977 2056.65 53.1484V51.9316C2056.65 50.7923 2056.51 49.7806 2056.24 48.8965C2055.96 48.0033 2055.56 47.2513 2055.03 46.6406C2054.51 46.0208 2053.86 45.5514 2053.09 45.2324C2052.34 44.9134 2051.47 44.7539 2050.48 44.7539H2046V42.5937H2050.48C2051.78 42.5937 2052.97 42.8125 2054.05 43.25C2055.12 43.6784 2056.05 44.3027 2056.82 45.123C2057.61 45.9342 2058.21 46.9186 2058.63 48.0762C2059.05 49.2246 2059.26 50.5189 2059.26 51.959V53.1484C2059.26 54.5885 2059.05 55.8874 2058.63 57.0449C2058.21 58.1934 2057.6 59.1732 2056.81 59.9844C2056.03 60.7956 2055.08 61.4199 2053.97 61.8574C2052.86 62.2858 2051.62 62.5 2050.23 62.5ZM2047.49 42.5937V62.5H2044.85V42.5937H2047.49ZM2066.05 42.5937V62.5H2063.41V42.5937H2066.05ZM2086.16 42.5937V62.5H2083.51L2073.49 47.1465V62.5H2070.85V42.5937H2073.49L2083.55 57.9883V42.5937H2086.16ZM2105.55 52.5879V59.875C2105.31 60.2396 2104.91 60.6497 2104.38 61.1055C2103.84 61.5521 2103.09 61.944 2102.15 62.2812C2101.21 62.6094 2100 62.7734 2098.51 62.7734C2097.3 62.7734 2096.18 62.5638 2095.16 62.1445C2094.15 61.7161 2093.27 61.0964 2092.52 60.2852C2091.78 59.4648 2091.21 58.4714 2090.8 57.3047C2090.4 56.1289 2090.2 54.7982 2090.2 53.3125V51.7676C2090.2 50.2819 2090.37 48.9557 2090.72 47.7891C2091.07 46.6224 2091.59 45.6335 2092.28 44.8223C2092.96 44.002 2093.8 43.3822 2094.79 42.9629C2095.78 42.5345 2096.92 42.3203 2098.21 42.3203C2099.73 42.3203 2101 42.5846 2102.02 43.1133C2103.05 43.6328 2103.86 44.3529 2104.43 45.2734C2105.01 46.194 2105.39 47.2422 2105.55 48.418H2102.91C2102.79 47.6979 2102.56 47.0417 2102.2 46.4492C2101.86 45.8568 2101.36 45.3828 2100.71 45.0273C2100.06 44.6628 2099.23 44.4805 2098.21 44.4805C2097.29 44.4805 2096.49 44.6491 2095.82 44.9863C2095.14 45.3236 2094.59 45.8066 2094.15 46.4355C2093.71 47.0645 2093.38 47.8255 2093.16 48.7187C2092.95 49.612 2092.85 50.6191 2092.85 51.7402V53.3125C2092.85 54.4609 2092.98 55.4863 2093.25 56.3887C2093.52 57.291 2093.91 58.0612 2094.41 58.6992C2094.91 59.3281 2095.51 59.8066 2096.2 60.1348C2096.9 60.4629 2097.68 60.627 2098.52 60.627C2099.46 60.627 2100.22 60.5495 2100.81 60.3945C2101.39 60.2305 2101.85 60.0391 2102.17 59.8203C2102.5 59.5924 2102.75 59.3783 2102.93 59.1777V54.7207H2098.32V52.5879H2105.55Z" fill="white"/>
<ellipse cx="2198.12" cy="53" rx="8" ry="8.5" transform="rotate(12.95 2198.12 53)" fill="#5E00FF"/>
<path d="M2302.15 56.1699H2304.77C2304.64 57.4277 2304.28 58.5534 2303.69 59.5469C2303.11 60.5404 2302.28 61.3288 2301.22 61.9121C2300.15 62.4863 2298.82 62.7734 2297.23 62.7734C2296.06 62.7734 2295 62.5547 2294.04 62.1172C2293.09 61.6797 2292.28 61.0599 2291.59 60.2578C2290.91 59.4466 2290.38 58.4759 2290.01 57.3457C2289.64 56.2064 2289.46 54.9395 2289.46 53.5449V51.5625C2289.46 50.168 2289.64 48.9056 2290.01 47.7754C2290.38 46.6361 2290.91 45.6608 2291.61 44.8496C2292.31 44.0384 2293.15 43.4141 2294.14 42.9766C2295.12 42.5391 2296.23 42.3203 2297.46 42.3203C2298.96 42.3203 2300.23 42.6029 2301.27 43.168C2302.31 43.7331 2303.12 44.5169 2303.69 45.5195C2304.28 46.513 2304.64 47.666 2304.77 48.9785H2302.15C2302.02 48.0488 2301.78 47.2513 2301.44 46.5859C2301.09 45.9115 2300.6 45.3919 2299.96 45.0273C2299.32 44.6628 2298.49 44.4805 2297.46 44.4805C2296.57 44.4805 2295.79 44.6491 2295.12 44.9863C2294.45 45.3236 2293.89 45.8021 2293.44 46.4219C2292.99 47.0417 2292.65 47.7845 2292.43 48.6504C2292.2 49.5163 2292.08 50.4779 2292.08 51.5352V53.5449C2292.08 54.5202 2292.19 55.4362 2292.39 56.293C2292.6 57.1497 2292.91 57.9017 2293.33 58.5488C2293.75 59.196 2294.28 59.7064 2294.93 60.0801C2295.58 60.4447 2296.34 60.627 2297.23 60.627C2298.35 60.627 2299.24 60.4492 2299.91 60.0937C2300.57 59.7383 2301.07 59.2279 2301.41 58.5625C2301.76 57.8971 2302 57.0996 2302.15 56.1699ZM2308.37 42.5937H2314.96C2316.45 42.5937 2317.72 42.8216 2318.75 43.2773C2319.78 43.7331 2320.57 44.4076 2321.11 45.3008C2321.66 46.1849 2321.93 47.2741 2321.93 48.5684C2321.93 49.4798 2321.74 50.3138 2321.37 51.0703C2321.01 51.8177 2320.48 52.4557 2319.78 52.9844C2319.1 53.5039 2318.28 53.8913 2317.32 54.1465L2316.58 54.4336H2310.39L2310.36 52.2871H2315.04C2315.99 52.2871 2316.78 52.123 2317.41 51.7949C2318.03 51.4577 2318.51 51.0065 2318.83 50.4414C2319.15 49.8763 2319.31 49.252 2319.31 48.5684C2319.31 47.8027 2319.16 47.1328 2318.85 46.5586C2318.55 45.9844 2318.08 45.5423 2317.43 45.2324C2316.79 44.9134 2315.97 44.7539 2314.96 44.7539H2311.01V62.5H2308.37V42.5937ZM2320 62.5L2315.16 53.4766L2317.91 53.4629L2322.82 62.3359V62.5H2320ZM2338.27 60.3535V62.5H2327.73V60.3535H2338.27ZM2328.26 42.5937V62.5H2325.62V42.5937H2328.26ZM2336.87 51.1523V53.2988H2327.73V51.1523H2336.87ZM2338.13 42.5937V44.7539H2327.73V42.5937H2338.13ZM2348.91 44.3574L2342.32 62.5H2339.62L2347.21 42.5937H2348.95L2348.91 44.3574ZM2354.43 62.5L2347.83 44.3574L2347.78 42.5937H2349.52L2357.14 62.5H2354.43ZM2354.09 55.1309V57.291H2342.9V55.1309H2354.09ZM2365.38 42.5937V62.5H2362.78V42.5937H2365.38ZM2371.78 42.5937V44.7539L2356.4 44.7539V42.5937L2371.78 42.5937ZM2377.56 42.5937V62.5H2374.92V42.5937H2377.56ZM2388.79 59.4785L2394.65 42.5937H2397.51L2390.14 62.5H2388.1L2388.79 59.4785ZM2383.3 42.5937L2389.11 59.4785L2389.84 62.5H2387.8L2380.45 42.5937H2383.3ZM2412.83 60.3535V62.5H2402.29V60.3535H2412.83ZM2402.83 42.5937V62.5H2400.19V42.5937H2402.83ZM2411.44 51.1523V53.2988H2402.29V51.1523H2411.44ZM2412.7 42.5937V44.7539H2402.29V42.5937H2412.7ZM2428.43 62.5H2424.28L2424.31 60.3535H2428.43C2429.86 60.3535 2431.04 60.0573 2431.99 59.4648C2432.94 58.8633 2433.65 58.0247 2434.12 56.9492C2434.61 55.8646 2434.85 54.5977 2434.85 53.1484V51.9316C2434.85 50.7923 2434.71 49.7806 2434.44 48.8965C2434.16 48.0033 2433.76 47.2513 2433.23 46.6406C2432.7 46.0208 2432.06 45.5514 2431.29 45.2324C2430.54 44.9134 2429.67 44.7539 2428.68 44.7539H2424.2V42.5937H2428.68C2429.98 42.5937 2431.17 42.8125 2432.25 43.25C2433.32 43.6784 2434.25 44.3027 2435.02 45.123C2435.81 45.9342 2436.41 46.9186 2436.83 48.0762C2437.25 49.2246 2437.46 50.5189 2437.46 51.959V53.1484C2437.46 54.5885 2437.25 55.8874 2436.83 57.0449C2436.41 58.1934 2435.8 59.1732 2435.01 59.9844C2434.23 60.7956 2433.28 61.4199 2432.17 61.8574C2431.06 62.2858 2429.82 62.5 2428.43 62.5ZM2425.69 42.5937V62.5H2423.05V42.5937H2425.69ZM2454.07 60.3535V62.5H2443.53V60.3535H2454.07ZM2444.06 42.5937V62.5L2441.42 62.5V42.5937H2444.06ZM2452.67 51.1523V53.2988H2443.53V51.1523H2452.67ZM2453.93 42.5937V44.7539H2443.53V42.5937H2453.93ZM2467.95 57.4687C2467.95 57.0039 2467.87 56.5937 2467.73 56.2383C2467.59 55.8737 2467.34 55.5456 2466.99 55.2539C2466.64 54.9622 2466.16 54.6842 2465.54 54.4199C2464.93 54.1556 2464.15 53.8867 2463.22 53.6133C2462.23 53.3216 2461.34 52.998 2460.55 52.6426C2459.76 52.278 2459.08 51.8633 2458.51 51.3984C2457.95 50.9336 2457.51 50.4004 2457.21 49.7988C2456.91 49.1973 2456.76 48.5091 2456.76 47.7344C2456.76 46.9596 2456.92 46.2441 2457.24 45.5879C2457.56 44.9316 2458.02 44.362 2458.61 43.8789C2459.21 43.3867 2459.93 43.0039 2460.75 42.7305C2461.58 42.457 2462.51 42.3203 2463.53 42.3203C2465.03 42.3203 2466.29 42.6074 2467.33 43.1816C2468.38 43.7467 2469.18 44.4896 2469.72 45.4102C2470.27 46.3216 2470.54 47.2969 2470.54 48.3359H2467.92C2467.92 47.5885 2467.76 46.9277 2467.44 46.3535C2467.12 45.7702 2466.64 45.3145 2465.99 44.9863C2465.34 44.6491 2464.52 44.4805 2463.53 44.4805C2462.59 44.4805 2461.82 44.6217 2461.21 44.9043C2460.6 45.1868 2460.14 45.5697 2459.84 46.0527C2459.55 46.5358 2459.4 47.0872 2459.4 47.707C2459.4 48.1263 2459.49 48.5091 2459.66 48.8555C2459.84 49.1927 2460.12 49.5072 2460.5 49.7988C2460.88 50.0905 2461.36 50.3594 2461.94 50.6055C2462.54 50.8516 2463.24 51.0885 2464.06 51.3164C2465.19 51.6354 2466.17 51.9909 2466.99 52.3828C2467.81 52.7747 2468.48 53.2168 2469.01 53.709C2469.55 54.1921 2469.95 54.7435 2470.2 55.3633C2470.47 55.974 2470.6 56.6667 2470.6 57.4414C2470.6 58.2526 2470.43 58.9863 2470.11 59.6426C2469.78 60.2988 2469.31 60.8594 2468.7 61.3242C2468.09 61.7891 2467.35 62.1491 2466.5 62.4043C2465.65 62.6504 2464.7 62.7734 2463.65 62.7734C2462.73 62.7734 2461.83 62.6458 2460.93 62.3906C2460.05 62.1354 2459.24 61.7526 2458.51 61.2422C2457.79 60.7318 2457.21 60.1029 2456.78 59.3555C2456.35 58.599 2456.13 57.724 2456.13 56.7305H2458.76C2458.76 57.4141 2458.89 58.002 2459.16 58.4941C2459.42 58.9772 2459.78 59.3783 2460.24 59.6973C2460.7 60.0163 2461.22 60.2533 2461.81 60.4082C2462.4 60.554 2463.02 60.627 2463.65 60.627C2464.57 60.627 2465.35 60.4993 2465.99 60.2441C2466.63 59.9889 2467.11 59.6243 2467.44 59.1504C2467.78 58.6764 2467.95 58.1159 2467.95 57.4687ZM2476.79 42.5937V62.5H2474.15V42.5937H2476.79ZM2496.3 52.5879V59.875C2496.06 60.2396 2495.66 60.6497 2495.13 61.1055C2494.59 61.5521 2493.85 61.944 2492.9 62.2812C2491.96 62.6094 2490.75 62.7734 2489.26 62.7734C2488.05 62.7734 2486.93 62.5638 2485.91 62.1445C2484.9 61.7161 2484.02 61.0964 2483.27 60.2852C2482.53 59.4648 2481.96 58.4714 2481.55 57.3047C2481.15 56.1289 2480.95 54.7982 2480.95 53.3125V51.7676C2480.95 50.2819 2481.12 48.9557 2481.47 47.7891C2481.82 46.6224 2482.34 45.6335 2483.03 44.8223C2483.71 44.002 2484.55 43.3822 2485.54 42.9629C2486.54 42.5345 2487.67 42.3203 2488.96 42.3203C2490.48 42.3203 2491.75 42.5846 2492.77 43.1133C2493.8 43.6328 2494.61 44.3529 2495.18 45.2734C2495.76 46.194 2496.14 47.2422 2496.3 48.418H2493.66C2493.54 47.6979 2493.31 47.0417 2492.95 46.4492C2492.61 45.8568 2492.11 45.3828 2491.46 45.0273C2490.81 44.6628 2489.98 44.4805 2488.96 44.4805C2488.04 44.4805 2487.24 44.6491 2486.57 44.9863C2485.89 45.3236 2485.34 45.8066 2484.9 46.4355C2484.46 47.0645 2484.13 47.8255 2483.92 48.7187C2483.71 49.612 2483.6 50.6191 2483.6 51.7402V53.3125C2483.6 54.4609 2483.73 55.4863 2484 56.3887C2484.27 57.291 2484.66 58.0612 2485.16 58.6992C2485.66 59.3281 2486.26 59.8066 2486.95 60.1348C2487.65 60.4629 2488.43 60.627 2489.27 60.627C2490.21 60.627 2490.97 60.5495 2491.56 60.3945C2492.14 60.2305 2492.6 60.0391 2492.92 59.8203C2493.25 59.5924 2493.5 59.3783 2493.68 59.1777V54.7207H2489.07V52.5879H2496.3ZM2515.99 42.5937V62.5H2513.34L2503.32 47.1465V62.5H2500.68V42.5937H2503.32L2513.38 57.9883V42.5937H2515.99Z" fill="white"/>
<ellipse cx="2608.52" cy="53" rx="8" ry="8.5" transform="rotate(12.95 2608.52 53)" fill="#5E00FF"/>
<path d="M2701.41 63V43.4H2709.87C2712.05 43.4 2713.74 43.8387 2714.94 44.716C2716.15 45.5933 2716.76 46.8347 2716.76 48.44C2716.76 49.504 2716.51 50.4 2716 51.128C2715.52 51.856 2714.84 52.4067 2713.99 52.78C2713.15 53.1533 2712.22 53.34 2711.21 53.34L2711.69 52.668C2712.94 52.668 2714.01 52.864 2714.91 53.256C2715.82 53.6293 2716.53 54.1987 2717.04 54.964C2717.54 55.7107 2717.79 56.644 2717.79 57.764C2717.79 59.4253 2717.18 60.7133 2715.95 61.628C2714.73 62.5427 2712.89 63 2710.43 63H2701.41ZM2703.49 61.292H2710.4C2712.12 61.292 2713.44 61.0027 2714.35 60.424C2715.26 59.8267 2715.72 58.884 2715.72 57.596C2715.72 56.3267 2715.26 55.4027 2714.35 54.824C2713.44 54.2267 2712.12 53.928 2710.4 53.928H2703.26V52.22H2709.73C2711.3 52.22 2712.51 51.9213 2713.37 51.324C2714.25 50.7267 2714.69 49.84 2714.69 48.664C2714.69 47.4693 2714.25 46.5827 2713.37 46.004C2712.51 45.4067 2711.3 45.108 2709.73 45.108H2703.49V61.292ZM2722.52 63V43.4H2729.86C2731.52 43.4 2732.95 43.6707 2734.14 44.212C2735.34 44.7347 2736.25 45.5 2736.89 46.508C2737.54 47.4973 2737.87 48.7013 2737.87 50.12C2737.87 51.5013 2737.54 52.696 2736.89 53.704C2736.25 54.6933 2735.34 55.4587 2734.14 56C2732.95 56.5227 2731.52 56.784 2729.86 56.784L2723.67 56.784L2724.6 55.832V63H2722.52ZM2735.91 63L2730.87 55.888H2733.11L2738.18 63H2735.91ZM2724.6 56L2723.67 55.02H2729.8C2731.76 55.02 2733.25 54.5907 2734.26 53.732C2735.28 52.8733 2735.8 51.6693 2735.8 50.12C2735.8 48.552 2735.28 47.3387 2734.26 46.48C2733.25 45.6213 2731.76 45.192 2729.8 45.192H2723.67L2724.6 44.212V56ZM2739.62 63L2748.58 43.4H2750.63L2759.59 63H2757.4L2749.17 44.604H2750.01L2741.78 63H2739.62ZM2743.15 57.764L2743.77 56.084H2755.16L2755.78 57.764H2743.15ZM2762.83 63V43.4H2764.54L2778.06 60.424H2777.16V43.4H2779.21V63H2777.5L2764 45.976H2764.9V63H2762.83ZM2785.61 63V43.4H2793.59C2795.68 43.4 2797.51 43.82 2799.07 44.66C2800.66 45.4813 2801.89 46.6293 2802.77 48.104C2803.65 49.5787 2804.09 51.2773 2804.09 53.2C2804.09 55.1227 2803.65 56.8213 2802.77 58.296C2801.89 59.7707 2800.66 60.928 2799.07 61.768C2797.51 62.5893 2795.68 63 2793.59 63L2785.61 63ZM2787.68 61.208H2793.47C2795.21 61.208 2796.71 60.872 2797.98 60.2C2799.27 59.5093 2800.27 58.5667 2800.98 57.372C2801.69 56.1587 2802.04 54.768 2802.04 53.2C2802.04 51.6133 2801.69 50.2227 2800.98 49.028C2800.27 47.8333 2799.27 46.9 2797.98 46.228C2796.71 45.5373 2795.21 45.192 2793.47 45.192H2787.68V61.208ZM2808.74 63V43.4H2810.81V63H2808.74ZM2817.19 63V43.4H2818.9L2832.42 60.424H2831.52V43.4H2833.57V63H2831.86L2818.36 45.976H2819.26V63H2817.19ZM2848.56 63.168C2847.07 63.168 2845.69 62.9253 2844.42 62.44C2843.17 61.936 2842.07 61.236 2841.14 60.34C2840.23 59.444 2839.51 58.3893 2838.98 57.176C2838.48 55.9627 2838.23 54.6373 2838.23 53.2C2838.23 51.7627 2838.48 50.4373 2838.98 49.224C2839.51 48.0107 2840.24 46.956 2841.17 46.06C2842.1 45.164 2843.19 44.4733 2844.44 43.988C2845.71 43.484 2847.1 43.232 2848.59 43.232C2850.08 43.232 2851.44 43.4653 2852.68 43.932C2853.93 44.3987 2854.99 45.108 2855.87 46.06L2854.58 47.376C2853.76 46.5547 2852.85 45.9667 2851.86 45.612C2850.88 45.2573 2849.81 45.08 2848.67 45.08C2847.46 45.08 2846.34 45.2853 2845.31 45.696C2844.3 46.088 2843.42 46.6573 2842.65 47.404C2841.91 48.132 2841.32 48.9907 2840.89 49.98C2840.48 50.9507 2840.27 52.024 2840.27 53.2C2840.27 54.3573 2840.48 55.4307 2840.89 56.42C2841.32 57.4093 2841.91 58.2773 2842.65 59.024C2843.42 59.752 2844.3 60.3213 2845.31 60.732C2846.34 61.124 2847.45 61.32 2848.64 61.32C2849.76 61.32 2850.82 61.152 2851.81 60.816C2852.82 60.48 2853.74 59.9107 2854.58 59.108L2855.76 60.676C2854.82 61.4973 2853.73 62.1227 2852.48 62.552C2851.23 62.9627 2849.92 63.168 2848.56 63.168ZM2853.77 60.424V53.2H2855.76V60.676L2853.77 60.424Z" fill="white"/>
<ellipse cx="2948.92" cy="53" rx="8" ry="8.5" transform="rotate(12.95 2948.92 53)" fill="#5E00FF"/>
<path d="M3049.71 63.168C3047.21 63.168 3045.24 62.4493 3043.8 61.012C3042.37 59.5747 3041.65 57.4467 3041.65 54.628V43.4H3043.72V54.544C3043.72 56.8587 3044.24 58.5667 3045.29 59.668C3046.33 60.7693 3047.81 61.32 3049.71 61.32C3051.64 61.32 3053.12 60.7693 3054.16 59.668C3055.21 58.5667 3055.73 56.8587 3055.73 54.544V43.4H3057.75V54.628C3057.75 57.4467 3057.03 59.5747 3055.59 61.012C3054.17 62.4493 3052.21 63.168 3049.71 63.168ZM3063.99 63V43.4H3066.06V63H3063.99ZM3068.55 65.8L3077.79 39.424H3079.61L3070.37 65.8H3068.55ZM3089.72 63.168C3087.22 63.168 3085.25 62.4493 3083.81 61.012C3082.37 59.5747 3081.65 57.4467 3081.65 54.628V43.4H3083.72V54.544C3083.72 56.8587 3084.25 58.5667 3085.29 59.668C3086.34 60.7693 3087.81 61.32 3089.72 61.32C3091.64 61.32 3093.12 60.7693 3094.17 59.668C3095.21 58.5667 3095.74 56.8587 3095.74 54.544V43.4H3097.75V54.628C3097.75 57.4467 3097.03 59.5747 3095.6 61.012C3094.18 62.4493 3092.22 63.168 3089.72 63.168ZM3101.01 63L3109.04 52.136V53.732L3101.48 43.4H3103.86L3110.22 52.024L3109.3 52.052L3115.65 43.4H3117.89L3110.42 53.592V52.136L3118.42 63H3116.02L3109.24 53.788H3110.11L3103.39 63L3101.01 63Z" fill="white"/>
<ellipse cx="3209.33" cy="53" rx="8" ry="8.5" transform="rotate(12.95 3209.33 53)" fill="#5E00FF"/>
<path d="M3306.67 63L3300.06 43.4H3302.19L3308.38 61.852H3307.32L3313.7 43.4H3315.6L3321.9 61.852H3320.9L3327.14 43.4H3329.13L3322.52 63H3320.34L3314.32 45.5H3314.88L3308.83 63H3306.67ZM3334.77 52.164H3345.13V53.928H3334.77V52.164ZM3335 61.208H3346.79V63H3332.93V43.4L3346.37 43.4V45.192H3335V61.208ZM3351.66 63V43.4H3360.11C3362.3 43.4 3363.99 43.8387 3365.18 44.716C3366.39 45.5933 3367 46.8347 3367 48.44C3367 49.504 3366.75 50.4 3366.25 51.128C3365.76 51.856 3365.09 52.4067 3364.23 52.78C3363.39 53.1533 3362.47 53.34 3361.46 53.34L3361.93 52.668C3363.18 52.668 3364.26 52.864 3365.15 53.256C3366.07 53.6293 3366.78 54.1987 3367.28 54.964C3367.79 55.7107 3368.04 56.644 3368.04 57.764C3368.04 59.4253 3367.42 60.7133 3366.19 61.628C3364.98 62.5427 3363.14 63 3360.67 63H3351.66ZM3353.73 61.292H3360.65C3362.36 61.292 3363.68 61.0027 3364.59 60.424C3365.51 59.8267 3365.97 58.884 3365.97 57.596C3365.97 56.3267 3365.51 55.4027 3364.59 54.824C3363.68 54.2267 3362.36 53.928 3360.65 53.928H3353.51V52.22H3359.97C3361.54 52.22 3362.75 51.9213 3363.61 51.324C3364.49 50.7267 3364.93 49.84 3364.93 48.664C3364.93 47.4693 3364.49 46.5827 3363.61 46.004C3362.75 45.4067 3361.54 45.108 3359.97 45.108H3353.73V61.292Z" fill="white"/>
<ellipse cx="3459.73" cy="53" rx="8" ry="8.5" transform="rotate(12.95 3459.73 53)" fill="#5E00FF"/>
<path d="M3551.74 42.5937H3558.33C3559.83 42.5937 3561.09 42.8216 3562.12 43.2773C3563.16 43.7331 3563.95 44.4076 3564.48 45.3008C3565.03 46.1849 3565.3 47.2741 3565.3 48.5684C3565.3 49.4798 3565.12 50.3138 3564.74 51.0703C3564.38 51.8177 3563.85 52.4557 3563.16 52.9844C3562.47 53.5039 3561.65 53.8913 3560.7 54.1465L3559.96 54.4336H3553.76L3553.74 52.2871H3558.41C3559.36 52.2871 3560.15 52.123 3560.78 51.7949C3561.41 51.4577 3561.88 51.0065 3562.2 50.4414C3562.52 49.8763 3562.68 49.252 3562.68 48.5684C3562.68 47.8027 3562.53 47.1328 3562.23 46.5586C3561.93 45.9844 3561.45 45.5423 3560.81 45.2324C3560.17 44.9134 3559.34 44.7539 3558.33 44.7539H3554.38V62.5H3551.74V42.5937ZM3563.38 62.5L3558.54 53.4766L3561.28 53.4629L3566.19 62.3359V62.5H3563.38ZM3581.64 60.3535V62.5H3571.1V60.3535H3581.64ZM3571.63 42.5937V62.5H3568.99V42.5937H3571.63ZM3580.25 51.1523V53.2988H3571.1V51.1523H3580.25ZM3581.5 42.5937V44.7539H3571.1V42.5937H3581.5ZM3590.3 62.5H3586.14L3586.17 60.3535H3590.3C3591.72 60.3535 3592.9 60.0573 3593.85 59.4648C3594.8 58.8633 3595.51 58.0247 3595.98 56.9492C3596.47 55.8646 3596.71 54.5977 3596.71 53.1484V51.9316C3596.71 50.7923 3596.57 49.7806 3596.3 48.8965C3596.02 48.0033 3595.62 47.2513 3595.09 46.6406C3594.57 46.0208 3593.92 45.5514 3593.15 45.2324C3592.4 44.9134 3591.53 44.7539 3590.54 44.7539H3586.06V42.5937H3590.54C3591.85 42.5937 3593.03 42.8125 3594.11 43.25C3595.19 43.6784 3596.11 44.3027 3596.89 45.123C3597.67 45.9342 3598.27 46.9186 3598.69 48.0762C3599.11 49.2246 3599.32 50.5189 3599.32 51.959V53.1484C3599.32 54.5885 3599.11 55.8874 3598.69 57.0449C3598.27 58.1934 3597.66 59.1732 3596.87 59.9844C3596.09 60.7956 3595.14 61.4199 3594.03 61.8574C3592.93 62.2858 3591.68 62.5 3590.3 62.5ZM3587.55 42.5937V62.5H3584.91V42.5937H3587.55ZM3615.93 60.3535V62.5L3605.39 62.5V60.3535L3615.93 60.3535ZM3605.92 42.5937V62.5H3603.28V42.5937H3605.92ZM3614.54 51.1523V53.2988L3605.39 53.2988V51.1523H3614.54ZM3615.79 42.5937V44.7539H3605.39V42.5937H3615.79ZM3629.81 57.4687C3629.81 57.0039 3629.73 56.5937 3629.59 56.2383C3629.45 55.8737 3629.21 55.5456 3628.85 55.2539C3628.5 54.9622 3628.02 54.6842 3627.4 54.4199C3626.79 54.1556 3626.02 53.8867 3625.08 53.6133C3624.09 53.3216 3623.2 52.998 3622.41 52.6426C3621.62 52.278 3620.94 51.8633 3620.37 51.3984C3619.81 50.9336 3619.38 50.4004 3619.07 49.7988C3618.77 49.1973 3618.62 48.5091 3618.62 47.7344C3618.62 46.9596 3618.78 46.2441 3619.1 45.5879C3619.42 44.9316 3619.88 44.362 3620.47 43.8789C3621.07 43.3867 3621.79 43.0039 3622.62 42.7305C3623.45 42.457 3624.37 42.3203 3625.39 42.3203C3626.89 42.3203 3628.15 42.6074 3629.19 43.1816C3630.24 43.7467 3631.04 44.4896 3631.58 45.4102C3632.13 46.3216 3632.41 47.2969 3632.41 48.3359H3629.78C3629.78 47.5885 3629.62 46.9277 3629.3 46.3535C3628.98 45.7702 3628.5 45.3145 3627.85 44.9863C3627.21 44.6491 3626.38 44.4805 3625.39 44.4805C3624.45 44.4805 3623.68 44.6217 3623.07 44.9043C3622.46 45.1868 3622 45.5697 3621.7 46.0527C3621.41 46.5358 3621.26 47.0872 3621.26 47.707C3621.26 48.1263 3621.35 48.5091 3621.52 48.8555C3621.7 49.1927 3621.98 49.5072 3622.36 49.7988C3622.74 50.0905 3623.22 50.3594 3623.81 50.6055C3624.4 50.8516 3625.1 51.0885 3625.92 51.3164C3627.05 51.6354 3628.03 51.9909 3628.85 52.3828C3629.67 52.7747 3630.35 53.2168 3630.87 53.709C3631.41 54.1921 3631.81 54.7435 3632.06 55.3633C3632.33 55.974 3632.46 56.6667 3632.46 57.4414C3632.46 58.2526 3632.3 58.9863 3631.97 59.6426C3631.64 60.2988 3631.17 60.8594 3630.56 61.3242C3629.95 61.7891 3629.21 62.1491 3628.36 62.4043C3627.51 62.6504 3626.56 62.7734 3625.51 62.7734C3624.59 62.7734 3623.69 62.6458 3622.79 62.3906C3621.91 62.1354 3621.1 61.7526 3620.37 61.2422C3619.65 60.7318 3619.07 60.1029 3618.64 59.3555C3618.21 58.599 3617.99 57.724 3617.99 56.7305H3620.62C3620.62 57.4141 3620.75 58.002 3621.02 58.4941C3621.28 58.9772 3621.64 59.3783 3622.1 59.6973C3622.56 60.0163 3623.09 60.2533 3623.67 60.4082C3624.26 60.554 3624.88 60.627 3625.51 60.627C3626.43 60.627 3627.21 60.4993 3627.85 60.2441C3628.49 59.9889 3628.97 59.6243 3629.3 59.1504C3629.64 58.6764 3629.81 58.1159 3629.81 57.4687Z" fill="white"/>
<ellipse cx="3724.13" cy="53" rx="8" ry="8.5" transform="rotate(12.95 3724.13 53)" fill="#5E00FF"/>
<path d="M3818.97 42.5937V62.5H3816.34V42.5937H3818.97ZM3829.16 62.5H3825L3825.03 60.3535H3829.16C3830.58 60.3535 3831.77 60.0573 3832.71 59.4648C3833.66 58.8633 3834.37 58.0247 3834.85 56.9492C3835.33 55.8646 3835.57 54.5977 3835.57 53.1484V51.9316C3835.57 50.7923 3835.43 49.7806 3835.16 48.8965C3834.89 48.0033 3834.49 47.2513 3833.96 46.6406C3833.43 46.0208 3832.78 45.5514 3832.02 45.2324C3831.26 44.9134 3830.39 44.7539 3829.41 44.7539H3824.92V42.5937H3829.41C3830.71 42.5937 3831.9 42.8125 3832.97 43.25C3834.05 43.6784 3834.97 44.3027 3835.75 45.123C3836.53 45.9342 3837.13 46.9186 3837.55 48.0762C3837.97 49.2246 3838.18 50.5189 3838.18 51.959V53.1484C3838.18 54.5885 3837.97 55.8874 3837.55 57.0449C3837.13 58.1934 3836.53 59.1732 3835.74 59.9844C3834.95 60.7956 3834 61.4199 3832.89 61.8574C3831.79 62.2858 3830.54 62.5 3829.16 62.5ZM3826.41 42.5937V62.5H3823.77V42.5937H3826.41ZM3854.79 60.3535V62.5H3844.25V60.3535H3854.79ZM3844.79 42.5937V62.5H3842.15V42.5937H3844.79ZM3853.4 51.1523V53.2988H3844.25V51.1523H3853.4ZM3854.66 42.5937V44.7539H3844.25V42.5937H3854.66ZM3873.37 42.5937V62.5H3870.72L3860.7 47.1465V62.5H3858.06V42.5937L3860.7 42.5937L3870.76 57.9883V42.5937H3873.37ZM3885 42.5937V62.5H3882.4V42.5937H3885ZM3891.39 42.5937V44.7539H3876.01V42.5937H3891.39ZM3897.18 42.5937V62.5H3894.54V42.5937H3897.18ZM3907.36 62.5H3903.21L3903.23 60.3535H3907.36C3908.78 60.3535 3909.97 60.0573 3910.92 59.4648C3911.87 58.8633 3912.58 58.0247 3913.05 56.9492C3913.53 55.8646 3913.77 54.5977 3913.77 53.1484V51.9316C3913.77 50.7923 3913.64 49.7806 3913.36 48.8965C3913.09 48.0033 3912.69 47.2513 3912.16 46.6406C3911.63 46.0208 3910.99 45.5514 3910.22 45.2324C3909.46 44.9134 3908.59 44.7539 3907.61 44.7539H3903.12V42.5937H3907.61C3908.91 42.5937 3910.1 42.8125 3911.18 43.25C3912.25 43.6784 3913.18 44.3027 3913.95 45.123C3914.74 45.9342 3915.34 46.9186 3915.76 48.0762C3916.18 49.2246 3916.39 50.5189 3916.39 51.959V53.1484C3916.39 54.5885 3916.18 55.8874 3915.76 57.0449C3915.34 58.1934 3914.73 59.1732 3913.94 59.9844C3913.15 60.7956 3912.21 61.4199 3911.09 61.8574C3909.99 62.2858 3908.75 62.5 3907.36 62.5ZM3904.61 42.5937V62.5H3901.98V42.5937H3904.61ZM3927.42 44.3574L3920.83 62.5H3918.14L3925.72 42.5937H3927.46L3927.42 44.3574ZM3932.94 62.5L3926.34 44.3574L3926.3 42.5937H3928.03L3935.65 62.5H3932.94ZM3932.6 55.1309V57.291H3921.42V55.1309H3932.6ZM3943.7 62.5H3939.55L3939.57 60.3535H3943.7C3945.12 60.3535 3946.31 60.0573 3947.26 59.4648C3948.2 58.8633 3948.92 58.0247 3949.39 56.9492C3949.87 55.8646 3950.11 54.5977 3950.11 53.1484V51.9316C3950.11 50.7923 3949.98 49.7806 3949.7 48.8965C3949.43 48.0033 3949.03 47.2513 3948.5 46.6406C3947.97 46.0208 3947.33 45.5514 3946.56 45.2324C3945.8 44.9134 3944.93 44.7539 3943.95 44.7539H3939.46V42.5937H3943.95C3945.25 42.5937 3946.44 42.8125 3947.52 43.25C3948.59 43.6784 3949.52 44.3027 3950.29 45.123C3951.08 45.9342 3951.68 46.9186 3952.1 48.0762C3952.52 49.2246 3952.73 50.5189 3952.73 51.959V53.1484C3952.73 54.5885 3952.52 55.8874 3952.1 57.0449C3951.68 58.1934 3951.07 59.1732 3950.28 59.9844C3949.49 60.7956 3948.55 61.4199 3947.43 61.8574C3946.33 62.2858 3945.09 62.5 3943.7 62.5ZM3940.95 42.5937V62.5H3938.32V42.5937H3940.95Z" fill="white"/>
<ellipse cx="4044.53" cy="53" rx="8" ry="8.5" transform="rotate(12.95 4044.53 53)" fill="#5E00FF"/>
<path d="M4136.55 42.5937H4143.14C4144.63 42.5937 4145.89 42.8216 4146.92 43.2773C4147.96 43.7331 4148.75 44.4076 4149.29 45.3008C4149.84 46.1849 4150.11 47.2741 4150.11 48.5684C4150.11 49.4798 4149.92 50.3138 4149.55 51.0703C4149.18 51.8177 4148.66 52.4557 4147.96 52.9844C4147.28 53.5039 4146.46 53.8913 4145.5 54.1465L4144.76 54.4336H4138.57L4138.54 52.2871H4143.22C4144.17 52.2871 4144.96 52.123 4145.58 51.7949C4146.21 51.4577 4146.69 51.0065 4147.01 50.4414C4147.32 49.8763 4147.48 49.252 4147.48 48.5684C4147.48 47.8027 4147.33 47.1328 4147.03 46.5586C4146.73 45.9844 4146.26 45.5423 4145.61 45.2324C4144.97 44.9134 4144.15 44.7539 4143.14 44.7539H4139.19V62.5H4136.55V42.5937ZM4148.18 62.5L4143.34 53.4766L4146.09 53.4629L4151 62.3359V62.5H4148.18ZM4166.45 60.3535V62.5H4155.91V60.3535H4166.45ZM4156.44 42.5937V62.5H4153.8V42.5937H4156.44ZM4165.05 51.1523V53.2988H4155.91V51.1523H4165.05ZM4166.31 42.5937V44.7539H4155.91V42.5937H4166.31ZM4176.81 53.1895H4171.77L4171.74 51.0703H4176.32C4177.07 51.0703 4177.74 50.9427 4178.3 50.6875C4178.87 50.4323 4179.3 50.0677 4179.61 49.5937C4179.93 49.1107 4180.09 48.5365 4180.09 47.8711C4180.09 47.1419 4179.95 46.5495 4179.67 46.0937C4179.39 45.6289 4178.97 45.2917 4178.4 45.082C4177.83 44.8633 4177.11 44.7539 4176.24 44.7539H4172.35V62.5H4169.71V42.5937H4176.24C4177.26 42.5937 4178.17 42.6986 4178.97 42.9082C4179.77 43.1087 4180.45 43.4277 4181.01 43.8652C4181.57 44.2936 4182 44.8405 4182.29 45.5059C4182.58 46.1712 4182.73 46.9687 4182.73 47.8984C4182.73 48.7187 4182.52 49.4616 4182.1 50.127C4181.68 50.7832 4181.1 51.321 4180.35 51.7402C4179.61 52.1595 4178.75 52.4284 4177.75 52.5469L4176.81 53.1895ZM4176.69 62.5H4170.73L4172.22 60.3535H4176.69C4177.53 60.3535 4178.24 60.2077 4178.82 59.916C4179.41 59.6243 4179.86 59.2142 4180.17 58.6855C4180.48 58.1478 4180.64 57.5143 4180.64 56.7852C4180.64 56.0469 4180.51 55.4089 4180.24 54.8711C4179.98 54.3333 4179.56 53.9186 4179 53.627C4178.43 53.3353 4177.7 53.1895 4176.81 53.1895H4173.05L4173.08 51.0703H4178.22L4178.78 51.8359C4179.74 51.918 4180.55 52.1914 4181.21 52.6562C4181.88 53.112 4182.38 53.6953 4182.73 54.4062C4183.09 55.1172 4183.26 55.901 4183.26 56.7578C4183.26 57.9974 4182.99 59.0456 4182.44 59.9023C4181.91 60.75 4181.14 61.3971 4180.16 61.8437C4179.18 62.2812 4178.02 62.5 4176.69 62.5ZM4187.16 42.5937H4193.75C4195.24 42.5937 4196.51 42.8216 4197.54 43.2773C4198.58 43.7331 4199.36 44.4076 4199.9 45.3008C4200.45 46.1849 4200.72 47.2741 4200.72 48.5684C4200.72 49.4798 4200.54 50.3138 4200.16 51.0703C4199.8 51.8177 4199.27 52.4557 4198.58 52.9844C4197.89 53.5039 4197.07 53.8913 4196.12 54.1465L4195.38 54.4336H4189.18L4189.16 52.2871H4193.83C4194.78 52.2871 4195.57 52.123 4196.2 51.7949C4196.83 51.4577 4197.3 51.0065 4197.62 50.4414C4197.94 49.8763 4198.1 49.252 4198.1 48.5684C4198.1 47.8027 4197.95 47.1328 4197.65 46.5586C4197.35 45.9844 4196.87 45.5423 4196.22 45.2324C4195.59 44.9134 4194.76 44.7539 4193.75 44.7539H4189.8V62.5H4187.16V42.5937ZM4198.79 62.5L4193.96 53.4766L4196.7 53.4629L4201.61 62.3359V62.5H4198.79ZM4211.78 44.3574L4205.19 62.5H4202.5L4210.09 42.5937H4211.82L4211.78 44.3574ZM4217.31 62.5L4210.7 44.3574L4210.66 42.5937H4212.4L4220.01 62.5H4217.31ZM4216.96 55.1309V57.291H4205.78V55.1309H4216.96ZM4237.99 42.5937V62.5H4235.34L4225.32 47.1465V62.5H4222.68V42.5937H4225.32L4235.38 57.9883V42.5937H4237.99ZM4248.05 62.5H4243.9L4243.93 60.3535H4248.05C4249.48 60.3535 4250.66 60.0573 4251.61 59.4648C4252.56 58.8633 4253.27 58.0247 4253.74 56.9492C4254.23 55.8646 4254.47 54.5977 4254.47 53.1484V51.9316C4254.47 50.7923 4254.33 49.7806 4254.06 48.8965C4253.78 48.0033 4253.38 47.2513 4252.85 46.6406C4252.32 46.0208 4251.68 45.5514 4250.91 45.2324C4250.16 44.9134 4249.29 44.7539 4248.3 44.7539H4243.82V42.5937H4248.3C4249.6 42.5937 4250.79 42.8125 4251.87 43.25C4252.94 43.6784 4253.87 44.3027 4254.64 45.123C4255.43 45.9342 4256.03 46.9186 4256.45 48.0762C4256.87 49.2246 4257.08 50.5189 4257.08 51.959V53.1484C4257.08 54.5885 4256.87 55.8874 4256.45 57.0449C4256.03 58.1934 4255.42 59.1732 4254.63 59.9844C4253.85 60.7956 4252.9 61.4199 4251.79 61.8574C4250.68 62.2858 4249.44 62.5 4248.05 62.5ZM4245.31 42.5937V62.5H4242.67V42.5937H4245.31ZM4263.87 42.5937V62.5H4261.23V42.5937H4263.87ZM4283.98 42.5937V62.5H4281.33L4271.31 47.1465V62.5H4268.67V42.5937H4271.31L4281.37 57.9883V42.5937H4283.98ZM4303.37 52.5879V59.875C4303.12 60.2396 4302.73 60.6497 4302.2 61.1055C4301.66 61.5521 4300.91 61.944 4299.97 62.2812C4299.03 62.6094 4297.82 62.7734 4296.33 62.7734C4295.12 62.7734 4294 62.5638 4292.98 62.1445C4291.97 61.7161 4291.09 61.0964 4290.34 60.2852C4289.6 59.4648 4289.03 58.4714 4288.62 57.3047C4288.22 56.1289 4288.02 54.7982 4288.02 53.3125V51.7676C4288.02 50.2819 4288.19 48.9557 4288.54 47.7891C4288.89 46.6224 4289.41 45.6335 4290.1 44.8223C4290.78 44.002 4291.62 43.3822 4292.61 42.9629C4293.6 42.5345 4294.74 42.3203 4296.03 42.3203C4297.55 42.3203 4298.82 42.5846 4299.84 43.1133C4300.87 43.6328 4301.68 44.3529 4302.25 45.2734C4302.83 46.194 4303.21 47.2422 4303.37 48.418H4300.73C4300.61 47.6979 4300.38 47.0417 4300.02 46.4492C4299.68 45.8568 4299.18 45.3828 4298.53 45.0273C4297.88 44.6628 4297.05 44.4805 4296.03 44.4805C4295.11 44.4805 4294.31 44.6491 4293.64 44.9863C4292.96 45.3236 4292.41 45.8066 4291.97 46.4355C4291.53 47.0645 4291.2 47.8255 4290.98 48.7187C4290.77 49.612 4290.67 50.6191 4290.67 51.7402V53.3125C4290.67 54.4609 4290.8 55.4863 4291.07 56.3887C4291.34 57.291 4291.73 58.0612 4292.23 58.6992C4292.73 59.3281 4293.33 59.8066 4294.02 60.1348C4294.72 60.4629 4295.5 60.627 4296.34 60.627C4297.28 60.627 4298.04 60.5495 4298.63 60.3945C4299.21 60.2305 4299.67 60.0391 4299.99 59.8203C4300.32 59.5924 4300.57 59.3783 4300.75 59.1777V54.7207H4296.14V52.5879H4303.37Z" fill="white"/>
<ellipse cx="4395.94" cy="53" rx="8" ry="8.5" transform="rotate(12.95 4395.94 53)" fill="#5E00FF"/>
</svg>
