<svg width="2015" height="1639" viewBox="0 0 2015 1639" fill="none" xmlns="http://www.w3.org/2000/svg">
<rect x="79.0381" y="15" width="2455.27" height="104" transform="rotate(38.4923 79.0381 15)" fill="black"/>
<rect x="78.2367" y="7.97449" width="2465.27" height="114" transform="rotate(38.4923 78.2367 7.97449)" stroke="black" stroke-opacity="0.2" stroke-width="10"/>
<path d="M219.347 186.58C217.629 188.288 215.775 189.189 213.784 189.282C211.807 189.374 209.849 188.649 207.909 187.106C205.805 185.433 204.717 183.337 204.645 180.817C204.581 178.304 205.554 175.783 207.563 173.256L208.925 171.544C210.241 169.889 211.692 168.667 213.278 167.878C214.871 167.096 216.476 166.802 218.092 166.996C219.714 167.181 221.239 167.841 222.666 168.976C224.557 170.48 225.652 172.216 225.951 174.184C226.256 176.143 225.76 178.131 224.462 180.147L222.102 178.27C223.027 176.689 223.399 175.309 223.22 174.128C223.049 172.954 222.352 171.881 221.129 170.908C219.629 169.715 218.01 169.333 216.272 169.761C214.543 170.195 212.864 171.436 211.237 173.482L209.865 175.206C208.329 177.139 207.51 178.996 207.41 180.78C207.309 182.563 207.984 184.032 209.436 185.186C210.74 186.223 211.972 186.724 213.132 186.688C214.306 186.65 215.591 185.989 216.987 184.703L219.347 186.58ZM230.329 192.778L226.146 189.452L220.418 196.655L218.058 194.778L232.218 176.972L238.113 181.659C240.118 183.254 241.296 184.936 241.646 186.705C242.004 188.481 241.489 190.241 240.102 191.986C239.22 193.094 238.15 193.821 236.892 194.164C235.642 194.514 234.321 194.469 232.929 194.027L231.101 204.911L230.984 205.057L228.465 203.054L230.329 192.778ZM227.673 187.532L231.281 190.401C232.447 191.328 233.612 191.762 234.777 191.703C235.949 191.651 236.938 191.12 237.742 190.109C238.617 189.008 238.958 187.902 238.764 186.789C238.579 185.684 237.87 184.634 236.637 183.64L233.042 180.781L227.673 187.532ZM250.113 206.835L242.397 200.698L237.378 207.008L246.342 214.137L244.815 216.057L233.503 207.061L247.664 189.255L258.853 198.154L257.317 200.086L248.475 193.055L243.924 198.778L251.64 204.915L250.113 206.835ZM261.266 221.554L253.806 215.621L248.435 218.936L246.014 217.01L266.974 204.612L269.028 206.245L261.68 229.468L259.27 227.553L261.266 221.554ZM256.052 214.253L262.106 219.067L265.696 208.327L256.052 214.253ZM287.413 224.021L281.69 219.469L269.066 235.343L266.73 233.485L279.354 217.611L273.643 213.07L275.18 211.137L288.95 222.088L287.413 224.021ZM279.95 243.998L277.602 242.131L291.762 224.325L294.11 226.192L279.95 243.998ZM292.629 248.991L309.397 238.349L311.965 240.392L291.201 252.946L289.122 251.292L296.691 228.245L299.247 230.277L292.629 248.991ZM316.812 259.878L309.095 253.741L304.077 260.051L313.041 267.18L311.514 269.1L300.202 260.104L314.362 242.298L325.552 251.197L324.015 253.129L315.174 246.097L310.622 251.821L318.339 257.958L316.812 259.878ZM320.649 276.365L334.81 258.559L339.836 262.556C341.385 263.788 342.482 265.22 343.128 266.851C343.774 268.483 343.916 270.186 343.555 271.962C343.202 273.745 342.378 275.458 341.083 277.104L340.179 278.241C338.843 279.92 337.347 281.133 335.69 281.878C334.041 282.629 332.344 282.863 330.599 282.58C328.862 282.304 327.189 281.539 325.578 280.284L320.649 276.365ZM335.621 262.358L324.524 276.312L326.994 278.277C328.804 279.716 330.658 280.272 332.556 279.944C334.461 279.623 336.241 278.423 337.894 276.344L338.721 275.305C340.329 273.283 341.1 271.334 341.034 269.458C340.983 267.581 340.092 265.941 338.36 264.537L335.621 262.358ZM353.695 289.21L345.979 283.073L340.96 289.383L349.924 296.512L348.397 298.432L337.085 289.436L351.246 271.63L362.435 280.529L360.899 282.461L352.057 275.429L347.506 281.153L355.222 287.29L353.695 289.21ZM362.878 296.992C361.325 294.811 360.422 292.935 360.168 291.363C359.929 289.789 360.303 288.382 361.288 287.143C362.403 285.74 363.883 285.027 365.726 285.002C367.583 284.975 369.409 285.675 371.203 287.102C372.426 288.074 373.326 289.176 373.904 290.408C374.49 291.646 374.713 292.888 374.574 294.135C374.442 295.388 373.984 296.507 373.2 297.494L370.839 295.617C371.695 294.541 372.024 293.424 371.825 292.268C371.633 291.104 370.913 290.026 369.666 289.034C368.508 288.113 367.399 287.65 366.338 287.645C365.292 287.639 364.41 288.088 363.69 288.993C363.113 289.718 362.929 290.577 363.139 291.569C363.363 292.559 364.047 293.849 365.192 295.438C366.345 297.034 367.137 298.415 367.566 299.582C368.011 300.747 368.167 301.823 368.034 302.809C367.91 303.802 367.489 304.75 366.769 305.655C365.621 307.099 364.138 307.809 362.319 307.786C360.507 307.756 358.659 306.992 356.776 305.494C355.553 304.521 354.596 303.381 353.906 302.074C353.222 300.758 352.915 299.462 352.984 298.187C353.062 296.918 353.513 295.765 354.336 294.73L356.696 296.607C355.84 297.683 355.558 298.85 355.85 300.106C356.156 301.361 356.974 302.517 358.303 303.574C359.542 304.56 360.693 305.062 361.755 305.082C362.817 305.102 363.695 304.675 364.389 303.803C365.083 302.931 365.312 302.015 365.077 301.056C364.848 300.088 364.115 298.734 362.878 296.992ZM368.71 314.586L366.362 312.719L380.523 294.913L382.871 296.78L368.71 314.586ZM388.019 326.128C386.728 326.513 385.369 326.49 383.941 326.06C382.528 325.628 381.104 324.841 379.669 323.7C378.218 322.546 377.199 321.183 376.612 319.612C376.031 318.032 375.93 316.368 376.309 314.62C376.696 312.878 377.54 311.173 378.84 309.505L380.075 307.952C382.208 305.27 384.485 303.687 386.906 303.203C389.335 302.726 391.683 303.389 393.949 305.191C395.808 306.669 396.925 308.336 397.299 310.191C397.681 312.038 397.304 313.935 396.169 315.88L393.821 314.013C395.255 311.307 394.789 309.013 392.425 307.133C390.851 305.882 389.216 305.486 387.519 305.947C385.837 306.406 384.158 307.679 382.484 309.768L381.326 311.223C379.738 313.221 378.93 315.174 378.903 317.082C378.883 318.982 379.651 320.552 381.208 321.79C382.089 322.49 382.937 323.005 383.753 323.335C384.569 323.664 385.378 323.768 386.179 323.647L389.36 319.648L385.238 316.371L386.755 314.463L393.212 319.598L388.019 326.128ZM403.772 342.469L401.411 340.592L403.359 319.742L392.447 333.463L390.087 331.586L404.247 313.78L406.608 315.657L404.636 336.588L415.596 322.806L417.932 324.663L403.772 342.469Z" fill="white"/>
<ellipse cx="484.152" cy="392.338" rx="8" ry="8.5" transform="rotate(51.4439 484.152 392.338)" fill="#5E00FF"/>
<path d="M550.839 460.065L564.782 442.533L572.345 448.548C574.299 450.101 575.498 451.695 575.942 453.33C576.404 454.978 576.063 456.52 574.921 457.956C574.164 458.908 573.302 459.53 572.333 459.822C571.381 460.128 570.388 460.143 569.355 459.866C568.338 459.602 567.378 459.112 566.477 458.395L567.381 458.133C568.499 459.022 569.32 459.961 569.842 460.949C570.395 461.934 570.625 462.947 570.531 463.991C570.451 465.017 570.012 466.031 569.215 467.033C568.034 468.519 566.566 469.233 564.814 469.175C563.078 469.13 561.108 468.231 558.904 466.478L550.839 460.065ZM553.907 460.011L560.094 464.93C561.63 466.152 563.013 466.829 564.243 466.962C565.486 467.079 566.565 466.561 567.482 465.409C568.384 464.273 568.633 463.122 568.226 461.953C567.833 460.768 566.868 459.565 565.332 458.343L558.945 453.264L560.16 451.737L565.946 456.338C567.349 457.453 568.646 458.049 569.839 458.125C571.049 458.215 572.072 457.734 572.909 456.682C573.758 455.614 573.997 454.508 573.624 453.367C573.281 452.222 572.408 451.091 571.005 449.976L565.42 445.534L553.907 460.011ZM569.721 475.081L583.664 457.549L590.226 462.767C591.712 463.949 592.796 465.207 593.48 466.541C594.177 467.858 594.45 469.194 594.301 470.547C594.182 471.896 593.617 473.206 592.608 474.475C591.626 475.71 590.484 476.547 589.182 476.983C587.911 477.417 586.548 477.451 585.095 477.085C583.654 476.703 582.191 475.921 580.705 474.739L575.17 470.337L576.673 470.143L571.575 476.555L569.721 475.081ZM581.693 484.601L582.244 474.655L584.247 476.248L583.722 486.215L581.693 484.601ZM576.554 470.293L576.425 468.759L581.91 473.121C583.663 474.516 585.296 475.187 586.808 475.136C588.337 475.098 589.653 474.387 590.755 473.001C591.87 471.598 592.274 470.148 591.967 468.649C591.676 467.164 590.654 465.725 588.901 464.33L583.416 459.968L584.939 459.749L576.554 470.293ZM585.015 487.244L606.972 476.085L608.801 477.539L602.873 501.445L600.919 499.891L606.642 477.581L607.393 478.178L586.944 488.777L585.015 487.244ZM591.896 485.07L593.642 484.005L603.835 492.112L603.191 494.053L591.896 485.07ZM605.773 503.751L619.716 486.22L621.243 487.435L621.23 512.283L620.429 511.645L632.539 496.417L634.367 497.871L620.425 515.403L618.897 514.188L618.935 489.36L619.736 489.998L607.626 505.225L605.773 503.751ZM626.147 519.954L640.09 502.422L647.228 508.099C649.098 509.586 650.435 511.263 651.24 513.13C652.075 514.993 652.361 516.896 652.096 518.839C651.832 520.783 651.016 522.614 649.648 524.334C648.281 526.054 646.68 527.261 644.846 527.956C643.012 528.651 641.087 528.81 639.07 528.433C637.084 528.052 635.155 527.118 633.285 525.631L626.147 519.954ZM629.275 519.825L634.46 523.948C636.012 525.183 637.596 525.951 639.209 526.253C640.852 526.552 642.416 526.419 643.901 525.855C645.398 525.274 646.705 524.282 647.82 522.88C648.949 521.461 649.621 519.964 649.836 518.391C650.051 516.818 649.822 515.273 649.148 513.755C648.504 512.235 647.405 510.857 645.853 509.622L640.668 505.499L629.275 519.825ZM646.839 536.41L660.781 518.878L662.635 520.352L648.692 537.884L646.839 536.41ZM654.397 542.42L668.339 524.888L669.867 526.103L669.854 550.951L669.052 550.314L681.163 535.086L682.991 536.54L669.048 554.072L667.521 552.857L667.559 528.029L668.36 528.666L656.25 543.894L654.397 542.42ZM682.34 564.888C681.004 563.825 679.941 562.626 679.151 561.289C678.391 559.948 677.912 558.545 677.715 557.08C677.534 555.628 677.641 554.173 678.037 552.716C678.449 551.272 679.167 549.907 680.189 548.622C681.212 547.336 682.38 546.33 683.694 545.603C685.024 544.89 686.426 544.464 687.898 544.327C689.37 544.189 690.838 544.348 692.302 544.804C693.796 545.256 695.211 546.013 696.547 547.075C697.882 548.137 698.935 549.315 699.705 550.609C700.492 551.916 700.939 553.308 701.047 554.783L698.959 555.044C698.808 553.725 698.417 552.555 697.784 551.534C697.151 550.513 696.326 549.598 695.307 548.788C694.222 547.925 693.074 547.312 691.864 546.949C690.683 546.582 689.485 546.461 688.269 546.584C687.084 546.704 685.947 547.054 684.859 547.634C683.801 548.21 682.854 549.024 682.017 550.076C681.194 551.111 680.614 552.217 680.278 553.394C679.958 554.585 679.867 555.779 680.003 556.978C680.17 558.174 680.558 559.314 681.168 560.398C681.807 561.479 682.661 562.445 683.73 563.294C684.732 564.091 685.795 564.691 686.919 565.094C688.059 565.511 689.291 565.659 690.613 565.538L690.55 567.778C689.13 567.848 687.709 567.631 686.285 567.125C684.874 566.603 683.559 565.857 682.34 564.888ZM688.951 566.138L694.089 559.676L695.868 561.09L690.55 567.778L688.951 566.138Z" fill="white"/>
<ellipse cx="770.143" cy="619.776" rx="8" ry="8.5" transform="rotate(51.4439 770.143 619.776)" fill="#5E00FF"/>
<path d="M843.774 693.27C841.536 691.49 840.286 689.447 840.023 687.139C839.76 684.83 840.63 682.416 842.635 679.895L850.623 669.851L852.476 671.325L844.549 681.293C842.902 683.364 842.155 685.263 842.306 686.992C842.458 688.721 843.385 690.262 845.088 691.617C846.808 692.984 848.527 693.548 850.246 693.306C851.964 693.064 853.647 691.908 855.293 689.838L863.22 679.87L865.024 681.304L857.037 691.347C855.032 693.869 852.875 695.261 850.567 695.524C848.275 695.8 846.011 695.049 843.774 693.27ZM856.666 703.277L870.609 685.745L872.462 687.219L858.52 704.751L856.666 703.277ZM858.751 709.024L885.778 692.004L887.406 693.298L860.379 710.318L858.751 709.024ZM879.557 721.727C877.319 719.947 876.069 717.903 875.806 715.595C875.542 713.287 876.413 710.873 878.418 708.351L886.405 698.308L888.259 699.782L880.331 709.75C878.685 711.821 877.937 713.72 878.089 715.449C878.241 717.178 879.168 718.719 880.871 720.074C882.591 721.441 884.31 722.004 886.029 721.763C887.747 721.521 889.43 720.365 891.076 718.295L899.003 708.327L900.807 709.761L892.82 719.804C890.815 722.325 888.658 723.718 886.35 723.981C884.058 724.257 881.794 723.506 879.557 721.727ZM889.775 729.608L904.691 725.606L903.556 727.034L904.143 712.414L906.272 714.107L905.823 726.343L904.976 725.71L916.816 722.493L918.82 724.086L904.883 727.885L905.919 726.582L905.353 741.997L903.2 740.284L903.691 727.223L904.468 727.841L891.904 731.301L889.775 729.608Z" fill="white"/>
<ellipse cx="984.128" cy="789.95" rx="8" ry="8.5" transform="rotate(51.4439 984.128 789.95)" fill="#5E00FF"/>
<path d="M1054.8 860.844L1062.83 838.612L1064.73 840.125L1057.14 861.032L1056.19 860.275L1075.03 848.311L1076.73 849.666L1069.24 870.652L1068.34 869.935L1087.05 857.872L1088.83 859.286L1068.97 872.117L1067.02 870.564L1074.08 850.628L1074.58 851.026L1056.73 862.378L1054.8 860.844ZM1087.64 871.142L1096.91 878.512L1095.66 880.09L1086.39 872.72L1087.64 871.142ZM1081.41 879.392L1091.95 887.777L1090.68 889.38L1078.28 879.521L1092.23 861.989L1104.25 871.549L1102.97 873.152L1092.8 865.065L1081.41 879.392ZM1095.04 892.844L1108.98 875.313L1116.54 881.328C1118.5 882.881 1119.7 884.475 1120.14 886.11C1120.6 887.758 1120.26 889.3 1119.12 890.736C1118.36 891.687 1117.5 892.31 1116.53 892.602C1115.58 892.908 1114.59 892.923 1113.55 892.646C1112.54 892.382 1111.58 891.892 1110.67 891.175L1111.58 890.912C1112.7 891.802 1113.52 892.741 1114.04 893.729C1114.59 894.714 1114.82 895.727 1114.73 896.771C1114.65 897.797 1114.21 898.811 1113.41 899.813C1112.23 901.299 1110.76 902.013 1109.01 901.955C1107.28 901.91 1105.31 901.011 1103.1 899.258L1095.04 892.844ZM1098.11 892.791L1104.29 897.71C1105.83 898.932 1107.21 899.609 1108.44 899.742C1109.68 899.859 1110.76 899.341 1111.68 898.189C1112.58 897.053 1112.83 895.901 1112.42 894.733C1112.03 893.548 1111.07 892.345 1109.53 891.123L1103.14 886.044L1104.36 884.516L1110.14 889.118C1111.55 890.233 1112.84 890.829 1114.04 890.905C1115.25 890.995 1116.27 890.514 1117.11 889.462C1117.96 888.394 1118.19 887.288 1117.82 886.147C1117.48 885.002 1116.61 883.871 1115.2 882.756L1109.62 878.314L1098.11 892.791Z" fill="white"/>
<ellipse cx="1189.5" cy="953.278" rx="8" ry="8.5" transform="rotate(51.4439 1189.5 953.278)" fill="#5E00FF"/>
<path d="M1269.87 1002.18L1275.77 1006.87C1277.11 1007.93 1278.07 1009.03 1278.67 1010.17C1279.28 1011.32 1279.5 1012.48 1279.35 1013.67C1279.21 1014.85 1278.68 1016.01 1277.76 1017.17C1277.11 1017.99 1276.35 1018.6 1275.47 1019.01C1274.62 1019.42 1273.69 1019.62 1272.69 1019.6C1271.71 1019.57 1270.7 1019.34 1269.67 1018.88L1268.8 1018.62L1263.26 1014.21L1264.76 1012.27L1268.95 1015.6C1269.79 1016.27 1270.62 1016.69 1271.41 1016.84C1272.22 1016.99 1272.96 1016.92 1273.65 1016.64C1274.33 1016.36 1274.92 1015.92 1275.41 1015.31C1275.95 1014.62 1276.29 1013.91 1276.43 1013.19C1276.57 1012.46 1276.46 1011.73 1276.11 1010.99C1275.76 1010.25 1275.14 1009.52 1274.23 1008.8L1270.7 1005.99L1258.07 1021.86L1255.71 1019.99L1269.87 1002.18ZM1266.12 1028.26L1268.21 1016.75L1270.68 1018.69L1268.76 1030.12L1268.64 1030.27L1266.12 1028.26ZM1283.99 1039.34L1282.46 1041.26L1273.03 1033.76L1274.56 1031.84L1283.99 1039.34ZM1287.67 1016.33L1273.51 1034.14L1271.15 1032.26L1285.31 1014.45L1287.67 1016.33ZM1289.28 1030.11L1287.76 1032.03L1279.58 1025.53L1281.1 1023.61L1289.28 1030.11ZM1296.5 1023.35L1294.96 1025.29L1285.65 1017.88L1287.19 1015.95L1296.5 1023.35ZM1290.2 1047.41L1286.48 1044.46L1288.03 1042.56L1291.73 1045.49C1293 1046.5 1294.27 1047.08 1295.54 1047.23C1296.82 1047.36 1298.05 1047.12 1299.24 1046.49C1300.44 1045.87 1301.56 1044.91 1302.59 1043.61L1303.45 1042.52C1304.26 1041.5 1304.86 1040.5 1305.25 1039.51C1305.64 1038.52 1305.81 1037.56 1305.77 1036.64C1305.74 1035.71 1305.5 1034.83 1305.04 1034C1304.59 1033.18 1303.93 1032.41 1303.04 1031.71L1299.03 1028.52L1300.57 1026.59L1304.58 1029.78C1305.75 1030.71 1306.66 1031.75 1307.31 1032.91C1307.96 1034.06 1308.35 1035.27 1308.46 1036.56C1308.58 1037.84 1308.42 1039.15 1307.97 1040.48C1307.53 1041.81 1306.79 1043.11 1305.77 1044.4L1304.92 1045.47C1303.9 1046.75 1302.79 1047.77 1301.59 1048.5C1300.4 1049.23 1299.16 1049.68 1297.87 1049.84C1296.59 1050.01 1295.3 1049.89 1294 1049.49C1292.71 1049.09 1291.44 1048.4 1290.2 1047.41ZM1301.9 1027.65L1287.74 1045.46L1285.38 1043.58L1299.54 1025.77L1301.9 1027.65ZM1314.66 1063.73L1313.13 1065.65L1303.7 1058.15L1305.23 1056.23L1314.66 1063.73ZM1318.34 1040.72L1304.18 1058.53L1301.82 1056.65L1315.98 1038.85L1318.34 1040.72ZM1319.96 1054.51L1318.43 1056.43L1310.25 1049.92L1311.77 1048L1319.96 1054.51ZM1327.17 1047.74L1325.63 1049.68L1316.33 1042.28L1317.86 1040.34L1327.17 1047.74ZM1329.12 1071.02C1329.45 1070.6 1329.68 1070.18 1329.8 1069.76C1329.94 1069.34 1329.95 1068.87 1329.84 1068.36C1329.74 1067.85 1329.51 1067.26 1329.14 1066.58C1328.78 1065.91 1328.28 1065.12 1327.63 1064.21C1326.96 1063.24 1326.4 1062.32 1325.94 1061.44C1325.49 1060.55 1325.18 1059.7 1325 1058.88C1324.83 1058.06 1324.82 1057.28 1324.98 1056.52C1325.14 1055.77 1325.49 1055.05 1326.04 1054.36C1326.59 1053.66 1327.25 1053.14 1328 1052.78C1328.75 1052.42 1329.56 1052.23 1330.44 1052.22C1331.33 1052.21 1332.24 1052.37 1333.17 1052.72C1334.11 1053.07 1335.03 1053.6 1335.95 1054.33C1337.29 1055.39 1338.21 1056.55 1338.74 1057.8C1339.27 1059.05 1339.46 1060.28 1339.29 1061.5C1339.13 1062.7 1338.68 1063.77 1337.94 1064.7L1335.59 1062.83C1336.13 1062.16 1336.45 1061.46 1336.58 1060.72C1336.71 1059.97 1336.6 1059.22 1336.25 1058.46C1335.91 1057.7 1335.3 1056.97 1334.41 1056.26C1333.57 1055.59 1332.78 1055.17 1332.03 1054.99C1331.28 1054.8 1330.6 1054.82 1329.99 1055.04C1329.39 1055.26 1328.86 1055.65 1328.42 1056.21C1328.12 1056.58 1327.93 1056.99 1327.84 1057.42C1327.76 1057.85 1327.79 1058.33 1327.91 1058.86C1328.05 1059.39 1328.29 1059.98 1328.64 1060.61C1328.99 1061.25 1329.45 1061.97 1330.03 1062.75C1330.81 1063.84 1331.43 1064.85 1331.88 1065.79C1332.34 1066.72 1332.63 1067.6 1332.75 1068.41C1332.89 1069.23 1332.85 1070 1332.64 1070.74C1332.44 1071.47 1332.07 1072.19 1331.51 1072.88C1330.94 1073.61 1330.27 1074.15 1329.51 1074.5C1328.75 1074.85 1327.93 1075.02 1327.05 1075C1326.18 1074.98 1325.26 1074.78 1324.32 1074.4C1323.38 1074.02 1322.45 1073.46 1321.51 1072.71C1320.69 1072.06 1319.96 1071.3 1319.35 1070.43C1318.74 1069.57 1318.29 1068.66 1318 1067.68C1317.72 1066.71 1317.65 1065.74 1317.79 1064.76C1317.94 1063.78 1318.37 1062.84 1319.08 1061.96L1321.43 1063.82C1320.94 1064.43 1320.64 1065.05 1320.53 1065.68C1320.42 1066.3 1320.46 1066.92 1320.64 1067.53C1320.83 1068.14 1321.13 1068.73 1321.54 1069.28C1321.97 1069.83 1322.47 1070.34 1323.04 1070.79C1323.86 1071.44 1324.65 1071.89 1325.4 1072.11C1326.15 1072.34 1326.84 1072.35 1327.47 1072.16C1328.11 1071.98 1328.66 1071.6 1329.12 1071.02Z" fill="white"/>
<ellipse cx="1407.4" cy="1126.56" rx="8" ry="8.5" transform="rotate(51.4439 1407.4 1126.56)" fill="#5E00FF"/>
<path d="M1486.58 1189.99L1482.07 1186.4L1483.55 1184.49L1487.65 1187.75C1488.33 1188.29 1489.01 1188.64 1489.7 1188.81C1490.38 1188.99 1491.03 1188.97 1491.65 1188.77C1492.28 1188.56 1492.83 1188.16 1493.3 1187.57C1493.82 1186.92 1494.11 1186.29 1494.19 1185.68C1494.27 1185.07 1494.13 1184.46 1493.77 1183.87C1493.42 1183.27 1492.85 1182.66 1492.07 1182.04L1488.6 1179.28L1475.97 1195.15L1473.61 1193.27L1487.77 1175.47L1493.61 1180.11C1494.52 1180.83 1495.26 1181.57 1495.83 1182.33C1496.4 1183.08 1496.78 1183.85 1496.97 1184.64C1497.17 1185.42 1497.16 1186.22 1496.95 1187.02C1496.74 1187.82 1496.3 1188.64 1495.64 1189.47C1495.06 1190.2 1494.34 1190.72 1493.49 1191.02C1492.65 1191.31 1491.75 1191.37 1490.78 1191.22C1489.82 1191.07 1488.86 1190.69 1487.88 1190.09L1486.58 1189.99ZM1479.85 1198.23L1474.52 1193.99L1477.38 1193.13L1481.38 1196.31C1482.13 1196.91 1482.87 1197.29 1483.6 1197.44C1484.33 1197.6 1485.03 1197.55 1485.68 1197.3C1486.34 1197.04 1486.93 1196.58 1487.45 1195.93C1487.97 1195.27 1488.31 1194.61 1488.46 1193.94C1488.6 1193.27 1488.53 1192.6 1488.23 1191.94C1487.93 1191.28 1487.38 1190.63 1486.58 1189.99L1483.22 1187.32L1484.75 1185.44L1489.35 1189.1L1489.31 1190.18C1490.1 1190.94 1490.64 1191.76 1490.9 1192.65C1491.17 1193.53 1491.21 1194.41 1491.01 1195.29C1490.82 1196.18 1490.43 1197.01 1489.82 1197.77C1488.93 1198.88 1487.94 1199.63 1486.85 1200C1485.76 1200.38 1484.62 1200.42 1483.42 1200.12C1482.23 1199.81 1481.04 1199.18 1479.85 1198.23ZM1503.38 1187.88L1509.27 1192.56C1510.61 1193.63 1511.58 1194.73 1512.17 1195.87C1512.78 1197.02 1513 1198.18 1512.85 1199.36C1512.71 1200.54 1512.18 1201.71 1511.26 1202.87C1510.61 1203.68 1509.85 1204.3 1508.98 1204.71C1508.12 1205.12 1507.19 1205.31 1506.2 1205.29C1505.22 1205.27 1504.21 1205.03 1503.17 1204.58L1502.3 1204.31L1496.77 1199.91L1498.27 1197.97L1502.45 1201.29C1503.3 1201.97 1504.12 1202.38 1504.92 1202.54C1505.72 1202.68 1506.46 1202.62 1507.15 1202.34C1507.84 1202.06 1508.42 1201.61 1508.91 1201C1509.46 1200.32 1509.8 1199.61 1509.94 1198.88C1510.08 1198.16 1509.97 1197.42 1509.61 1196.69C1509.26 1195.95 1508.64 1195.22 1507.74 1194.5L1504.2 1191.69L1491.58 1207.56L1489.22 1205.68L1503.38 1187.88ZM1499.62 1213.96L1501.71 1202.45L1504.18 1204.39L1502.26 1215.82L1502.14 1215.96L1499.62 1213.96ZM1524.15 1206.97L1505.35 1218.51L1502.94 1216.59L1523.89 1204.19L1525.44 1205.42L1524.15 1206.97ZM1516.18 1227.13L1523.18 1206.2L1524.4 1204.6L1525.95 1205.83L1518.6 1229.05L1516.18 1227.13ZM1521.12 1220.29L1519.58 1222.23L1509.58 1214.27L1511.12 1212.34L1521.12 1220.29ZM1548.85 1224.04L1534.69 1241.84L1532.31 1239.96L1534.27 1219.09L1523.35 1232.83L1520.99 1230.95L1535.15 1213.14L1537.51 1215.02L1535.56 1235.95L1546.51 1222.18L1548.85 1224.04ZM1543.69 1249L1539.97 1246.04L1541.52 1244.14L1545.21 1247.08C1546.49 1248.09 1547.76 1248.67 1549.03 1248.81C1550.3 1248.95 1551.53 1248.71 1552.72 1248.08C1553.93 1247.45 1555.04 1246.49 1556.07 1245.2L1556.94 1244.11C1557.75 1243.09 1558.35 1242.09 1558.73 1241.1C1559.12 1240.11 1559.3 1239.15 1559.26 1238.23C1559.23 1237.3 1558.98 1236.42 1558.53 1235.59C1558.08 1234.76 1557.41 1234 1556.53 1233.3L1552.52 1230.11L1554.06 1228.18L1558.07 1231.37C1559.23 1232.3 1560.14 1233.34 1560.79 1234.49C1561.45 1235.64 1561.83 1236.86 1561.94 1238.14C1562.07 1239.43 1561.9 1240.74 1561.46 1242.07C1561.01 1243.4 1560.28 1244.7 1559.26 1245.99L1558.41 1247.05C1557.39 1248.34 1556.27 1249.36 1555.08 1250.09C1553.88 1250.82 1552.64 1251.27 1551.36 1251.43C1550.08 1251.6 1548.79 1251.48 1547.48 1251.08C1546.19 1250.68 1544.93 1249.99 1543.69 1249ZM1555.39 1229.24L1541.23 1247.05L1538.87 1245.17L1553.03 1227.36L1555.39 1229.24ZM1572 1242.45L1557.84 1260.25L1555.48 1258.38L1569.64 1240.57L1572 1242.45ZM1589.99 1256.75L1575.82 1274.56L1573.45 1272.67L1575.41 1251.81L1564.49 1265.54L1562.13 1263.67L1576.29 1245.86L1578.65 1247.74L1576.7 1268.67L1587.65 1254.9L1589.99 1256.75ZM1600.22 1279.48L1595.03 1286C1594.55 1286.15 1593.91 1286.24 1593.11 1286.27C1592.31 1286.28 1591.36 1286.1 1590.28 1285.73C1589.2 1285.36 1588 1284.64 1586.67 1283.59C1585.59 1282.72 1584.74 1281.74 1584.12 1280.64C1583.52 1279.54 1583.18 1278.36 1583.09 1277.1C1583.01 1275.84 1583.2 1274.54 1583.67 1273.21C1584.14 1271.87 1584.91 1270.54 1585.97 1269.21L1587.07 1267.83C1588.12 1266.5 1589.22 1265.44 1590.36 1264.64C1591.51 1263.85 1592.68 1263.33 1593.87 1263.09C1595.06 1262.85 1596.25 1262.89 1597.44 1263.22C1598.63 1263.54 1599.8 1264.16 1600.95 1265.08C1602.32 1266.16 1603.26 1267.3 1603.8 1268.5C1604.35 1269.7 1604.56 1270.91 1604.42 1272.14C1604.28 1273.38 1603.87 1274.59 1603.18 1275.75L1600.82 1273.88C1601.23 1273.15 1601.48 1272.39 1601.59 1271.61C1601.7 1270.83 1601.59 1270.06 1601.27 1269.28C1600.95 1268.49 1600.33 1267.74 1599.42 1267.01C1598.59 1266.35 1597.76 1265.94 1596.92 1265.76C1596.07 1265.58 1595.23 1265.62 1594.39 1265.87C1593.56 1266.12 1592.72 1266.57 1591.89 1267.21C1591.07 1267.86 1590.26 1268.69 1589.46 1269.69L1588.34 1271.1C1587.52 1272.12 1586.91 1273.14 1586.51 1274.13C1586.11 1275.13 1585.91 1276.1 1585.9 1277.02C1585.9 1277.94 1586.1 1278.8 1586.48 1279.58C1586.88 1280.37 1587.45 1281.07 1588.21 1281.68C1589.05 1282.34 1589.79 1282.82 1590.42 1283.09C1591.06 1283.36 1591.6 1283.51 1592.05 1283.55C1592.51 1283.58 1592.88 1283.57 1593.18 1283.51L1596.35 1279.52L1592.23 1276.25L1593.75 1274.34L1600.22 1279.48Z" fill="white"/>
</svg>
