<svg width="2043" height="783" viewBox="0 0 2043 783" fill="none" xmlns="http://www.w3.org/2000/svg">
<rect x="13.3223" y="687.348" width="2100" height="86.8779" transform="rotate(-18.7354 13.3223 687.348)" fill="black" fill-opacity="0.76"/>
<rect x="6.98121" y="684.219" width="2110" height="96.8779" transform="rotate(-18.7354 6.98121 684.219)" stroke="black" stroke-opacity="0.2" stroke-width="10"/>
<path d="M195.336 675.76C195.842 678.129 195.596 680.176 194.597 681.901C193.604 683.612 191.934 684.866 189.586 685.662C187.041 686.525 184.69 686.305 182.532 685.002C180.384 683.696 178.791 681.514 177.754 678.455L177.052 676.384C176.373 674.381 176.131 672.5 176.326 670.74C176.531 668.977 177.152 667.468 178.19 666.214C179.224 664.95 180.604 664.026 182.331 663.44C184.619 662.664 186.672 662.683 188.488 663.497C190.3 664.301 191.703 665.794 192.696 667.976L189.84 668.945C189.011 667.312 188.052 666.252 186.963 665.763C185.883 665.271 184.603 665.276 183.123 665.778C181.308 666.394 180.11 667.548 179.53 669.241C178.959 670.93 179.093 673.013 179.933 675.489L180.64 677.576C181.433 679.914 182.552 681.608 183.997 682.657C185.442 683.707 187.043 683.935 188.799 683.339C190.377 682.804 191.465 682.039 192.063 681.044C192.667 680.036 192.806 678.598 192.48 676.728L195.336 675.76ZM206.492 669.881L201.431 671.597L204.387 680.313L201.531 681.281L194.224 659.737L201.357 657.318C203.783 656.495 205.835 656.415 207.512 657.078C209.199 657.738 210.4 659.123 211.116 661.235C211.571 662.576 211.602 663.869 211.21 665.113C210.828 666.353 210.074 667.439 208.949 668.371L217.111 675.799L217.172 675.977L214.123 677.011L206.492 669.881ZM200.643 669.274L205.008 667.794C206.419 667.315 207.415 666.571 207.996 665.559C208.587 664.545 208.675 663.426 208.26 662.203C207.808 660.871 207.063 659.986 206.023 659.547C204.993 659.104 203.726 659.132 202.223 659.631L197.873 661.106L200.643 669.274ZM229.021 660.855L219.684 664.021L222.273 671.656L233.119 667.978L233.907 670.301L220.22 674.943L212.913 653.398L226.453 648.807L227.245 651.145L216.547 654.773L218.896 661.698L228.233 658.531L229.021 660.855ZM247.434 659.444L238.407 662.505L238.287 668.816L235.357 669.809L236.278 645.475L238.764 644.631L254.313 663.381L251.398 664.37L247.434 659.444ZM238.473 659.876L245.797 657.392L238.71 648.56L238.473 659.876ZM263.661 638.795L256.736 641.143L263.25 660.35L260.424 661.308L253.91 642.102L247 644.445L246.207 642.107L262.868 636.457L263.661 638.795ZM276.42 655.884L273.579 656.847L266.272 635.302L269.113 634.339L276.42 655.884ZM287.481 647.925L287.609 628.066L290.717 627.012L290.033 651.267L287.517 652.12L272.235 633.28L275.328 632.231L287.481 647.925ZM309.725 633.485L300.387 636.651L302.977 644.287L313.823 640.608L314.611 642.931L300.924 647.573L293.617 626.029L307.156 621.437L307.949 623.775L297.251 627.403L299.6 634.328L308.937 631.161L309.725 633.485ZM325.665 639.183L318.358 617.638L324.44 615.575C326.314 614.94 328.112 614.792 329.833 615.132C331.554 615.472 333.064 616.275 334.362 617.54C335.67 618.801 336.665 620.421 337.347 622.401L337.814 623.777C338.503 625.809 338.712 627.724 338.441 629.52C338.181 631.314 337.459 632.867 336.277 634.181C335.104 635.492 333.555 636.485 331.628 637.16L325.665 639.183ZM321.992 619.012L327.718 635.896L330.707 634.882C332.897 634.14 334.368 632.882 335.119 631.109C335.881 629.333 335.835 627.187 334.982 624.671L334.555 623.414C333.726 620.967 332.505 619.264 330.892 618.304C329.286 617.331 327.424 617.192 325.307 617.888L321.992 619.012ZM354.353 618.349L345.016 621.516L347.605 629.151L358.452 625.473L359.239 627.796L345.552 632.438L338.245 610.893L351.785 606.301L352.578 608.639L341.879 612.268L344.228 619.193L353.565 616.026L354.353 618.349ZM365.867 614.84C363.193 614.966 361.126 614.71 359.667 614.072C358.214 613.421 357.233 612.346 356.725 610.846C356.15 609.15 356.35 607.52 357.327 605.956C358.31 604.38 359.887 603.224 362.057 602.488C363.537 601.986 364.951 601.825 366.299 602.006C367.657 602.183 368.823 602.668 369.795 603.46C370.778 604.249 371.471 605.24 371.876 606.434L369.02 607.402C368.579 606.1 367.818 605.22 366.739 604.761C365.656 604.292 364.36 604.314 362.85 604.826C361.449 605.301 360.46 605.983 359.881 606.872C359.309 607.748 359.209 608.733 359.581 609.828C359.878 610.706 360.501 611.326 361.448 611.686C362.402 612.034 363.857 612.156 365.813 612.054C367.779 611.948 369.369 612.03 370.583 612.301C371.803 612.558 372.792 613.009 373.549 613.654C374.317 614.296 374.886 615.164 375.258 616.259C375.85 618.005 375.644 619.637 374.641 621.154C373.634 622.661 371.991 623.801 369.713 624.574C368.233 625.076 366.757 625.263 365.283 625.136C363.807 624.999 362.551 624.555 361.516 623.807C360.491 623.054 359.766 622.052 359.341 620.799L362.197 619.83C362.639 621.132 363.467 622.001 364.681 622.436C365.902 622.858 367.317 622.796 368.925 622.251C370.424 621.742 371.47 621.047 372.061 620.164C372.653 619.282 372.77 618.313 372.412 617.257C372.054 616.202 371.408 615.513 370.474 615.192C369.537 614.861 368.001 614.744 365.867 614.84ZM383.818 619.461L380.977 620.424L373.67 598.879L376.511 597.916L383.818 619.461ZM403.975 609.473C403.599 610.766 402.844 611.897 401.71 612.865C400.581 613.819 399.149 614.591 397.413 615.18C395.657 615.775 393.96 615.895 392.321 615.537C390.678 615.17 389.225 614.355 387.96 613.09C386.705 611.821 385.728 610.189 385.029 608.193L384.391 606.314C383.291 603.069 383.192 600.297 384.096 598C385.01 595.699 386.838 594.084 389.58 593.154C391.829 592.391 393.835 592.354 395.598 593.043C397.357 593.722 398.748 595.066 399.769 597.073L396.928 598.037C395.429 595.366 393.249 594.516 390.388 595.487C388.484 596.132 387.266 597.293 386.735 598.969C386.21 600.632 386.372 602.733 387.222 605.272L387.819 607.033C388.639 609.449 389.844 611.186 391.434 612.241C393.02 613.287 394.756 613.491 396.64 612.852C397.705 612.49 398.597 612.056 399.316 611.548C400.035 611.04 400.56 610.417 400.893 609.677L399.252 604.838L394.265 606.53L393.482 604.221L401.295 601.571L403.975 609.473ZM426.241 605.073L423.385 606.042L406.908 593.118L412.539 609.72L409.683 610.689L402.376 589.144L405.232 588.175L421.764 601.163L416.108 584.487L418.935 583.528L426.241 605.073Z" fill="white"/>
<ellipse cx="511.682" cy="564.481" rx="8" ry="8.5" transform="rotate(-5.78386 511.682 564.481)" fill="#5E00FF"/>
<path d="M604.727 545.069L597.532 523.856L606.684 520.752C609.048 519.951 611.037 519.805 612.652 520.316C614.288 520.82 615.4 521.941 615.989 523.679C616.38 524.83 616.436 525.893 616.158 526.866C615.9 527.832 615.374 528.674 614.582 529.393C613.81 530.106 612.878 530.647 611.787 531.017L612.056 530.115C613.41 529.656 614.643 529.474 615.757 529.57C616.884 529.638 617.86 529.994 618.687 530.637C619.506 531.26 620.122 532.178 620.533 533.39C621.143 535.188 620.949 536.808 619.951 538.25C618.974 539.686 617.151 540.856 614.485 541.76L604.727 545.069ZM606.342 542.46L613.827 539.922C615.686 539.291 617.004 538.495 617.782 537.533C618.552 536.551 618.701 535.363 618.229 533.969C617.763 532.595 616.929 531.763 615.726 531.472C614.517 531.161 612.983 531.321 611.124 531.952L603.397 534.572L602.77 532.724L609.77 530.35C611.467 529.774 612.671 529.005 613.381 528.044C614.111 527.075 614.26 525.955 613.829 524.682C613.39 523.389 612.59 522.59 611.428 522.286C610.28 521.955 608.857 522.077 607.16 522.652L600.402 524.944L606.342 542.46ZM627.573 537.321L620.379 516.108L628.319 513.415C630.117 512.805 631.762 512.574 633.254 512.721C634.738 512.849 636.009 513.341 637.066 514.199C638.136 515.03 638.932 516.213 639.453 517.749C639.96 519.244 640.045 520.657 639.708 521.987C639.384 523.291 638.675 524.455 637.58 525.48C636.479 526.484 635.03 527.291 633.232 527.901L626.534 530.172L627.185 528.802L629.816 536.56L627.573 537.321ZM642.059 532.408L633.994 526.561L636.418 525.739L644.514 531.576L642.059 532.408ZM627.247 528.984L625.887 528.263L632.523 526.012C634.645 525.293 636.093 524.283 636.869 522.984C637.665 521.678 637.779 520.186 637.21 518.509C636.635 516.812 635.634 515.687 634.207 515.135C632.801 514.576 631.037 514.656 628.916 515.375L622.279 517.626L622.92 516.226L627.247 528.984ZM646.079 531.045L648.582 506.543L650.795 505.793L667.686 523.717L665.323 524.519L649.661 507.63L650.57 507.322L648.413 530.254L646.079 531.045ZM647.976 524.083L648.026 522.039L660.36 517.856L661.643 519.448L647.976 524.083ZM671.196 522.527L664.001 501.314L665.85 500.687L686.736 514.148L685.766 514.477L679.517 496.052L681.729 495.301L688.924 516.515L687.075 517.142L666.22 503.67L667.189 503.341L673.438 521.766L671.196 522.527ZM695.848 514.166L688.653 492.953L697.29 490.024C699.553 489.257 701.687 489.04 703.692 489.373C705.711 489.68 707.466 490.47 708.957 491.744C710.448 493.018 711.546 494.696 712.252 496.777C712.957 498.858 713.106 500.857 712.698 502.775C712.29 504.693 711.381 506.398 709.972 507.89C708.576 509.354 706.747 510.47 704.484 511.237L695.848 514.166ZM697.432 511.466L703.705 509.339C705.584 508.702 707.087 507.787 708.215 506.593C709.355 505.373 710.09 503.986 710.419 502.433C710.741 500.859 710.615 499.224 710.039 497.527C709.457 495.81 708.563 494.435 707.356 493.402C706.15 492.369 704.727 491.726 703.086 491.471C701.459 491.19 699.706 491.368 697.827 492.005L691.554 494.132L697.432 511.466ZM720.884 505.675L713.69 484.462L715.933 483.702L723.127 504.915L720.884 505.675ZM730.029 502.574L722.835 481.361L724.683 480.734L745.569 494.195L744.6 494.524L738.351 476.099L740.563 475.349L747.757 496.562L745.909 497.189L725.053 483.717L726.023 483.388L732.272 501.814L730.029 502.574ZM764.046 491.24C762.43 491.788 760.846 492.033 759.294 491.973C757.756 491.887 756.317 491.53 754.978 490.903C753.659 490.269 752.494 489.391 751.483 488.27C750.492 487.142 749.733 485.8 749.205 484.244C748.678 482.689 748.464 481.162 748.564 479.663C748.684 478.158 749.085 476.75 749.766 475.437C750.448 474.125 751.376 472.977 752.552 471.992C753.74 470.981 755.143 470.201 756.759 469.653C758.375 469.105 759.936 468.857 761.441 468.91C762.966 468.956 764.377 469.333 765.676 470.042L764.765 471.939C763.575 471.351 762.379 471.047 761.178 471.026C759.977 471.006 758.761 471.204 757.528 471.622C756.215 472.068 755.078 472.701 754.118 473.522C753.171 474.317 752.42 475.258 751.866 476.347C751.325 477.409 751.004 478.554 750.902 479.783C750.814 480.984 750.986 482.221 751.418 483.494C751.842 484.747 752.459 485.833 753.266 486.753C754.094 487.666 755.049 488.39 756.131 488.924C757.227 489.431 758.395 489.721 759.637 489.796C760.892 489.843 762.166 489.648 763.459 489.209C764.671 488.798 765.751 488.229 766.699 487.502C767.666 486.769 768.457 485.813 769.072 484.636L770.92 485.902C770.211 487.133 769.259 488.211 768.063 489.135C766.86 490.038 765.521 490.74 764.046 491.24ZM768.676 486.359L766.024 478.54L768.176 477.81L770.92 485.902L768.676 486.359Z" fill="white"/>
<ellipse cx="857.726" cy="447.124" rx="8" ry="8.5" transform="rotate(-5.78386 857.726 447.124)" fill="#5E00FF"/>
<path d="M959.378 424.995C956.671 425.914 954.276 425.859 952.192 424.831C950.109 423.802 948.55 421.763 947.516 418.712L943.394 406.56L945.637 405.8L949.727 417.861C950.577 420.366 951.77 422.023 953.305 422.831C954.841 423.639 956.639 423.694 958.7 422.995C960.781 422.29 962.185 421.149 962.912 419.573C963.639 417.998 963.578 415.957 962.728 413.452L958.638 401.391L960.82 400.651L964.941 412.803C965.975 415.854 965.979 418.42 964.951 420.504C963.943 422.58 962.085 424.077 959.378 424.995ZM974.772 419.572L967.577 398.359L969.82 397.598L977.014 418.812L974.772 419.572ZM980.732 420.93L981.051 388.991L983.02 388.323L982.701 420.262L980.732 420.93ZM1002.67 410.312C999.967 411.23 997.572 411.175 995.489 410.147C993.406 409.119 991.847 407.08 990.812 404.029L986.691 391.877L988.934 391.116L993.024 403.177C993.874 405.683 995.066 407.339 996.602 408.148C998.137 408.956 999.936 409.011 1002 408.312C1004.08 407.606 1005.48 406.465 1006.21 404.89C1006.94 403.314 1006.87 401.274 1006.02 398.768L1001.93 386.707L1004.12 385.967L1008.24 398.119C1009.27 401.17 1009.28 403.737 1008.25 405.82C1007.24 407.896 1005.38 409.394 1002.67 410.312ZM1014.83 405.986L1019.54 391.278L1020.13 393.005L1008.15 384.598L1010.73 383.724L1020.77 390.725L1019.78 391.095L1023.49 379.397L1025.91 378.575L1021.56 392.35L1021.03 390.774L1033.68 399.593L1031.08 400.477L1020.36 392.994L1021.3 392.675L1017.41 405.112L1014.83 405.986Z" fill="white"/>
<ellipse cx="1116.64" cy="359.314" rx="8" ry="8.5" transform="rotate(-5.78386 1116.64 359.314)" fill="#5E00FF"/>
<path d="M1214.51 338.269L1200.16 319.481L1202.46 318.7L1215.93 336.399L1214.78 336.79L1214.92 314.476L1216.98 313.777L1230.57 331.435L1229.48 331.805L1229.47 309.543L1231.62 308.813L1231.66 332.452L1229.3 333.253L1216.36 316.522L1216.96 316.317L1216.84 337.477L1214.51 338.269ZM1240.95 316.225L1252.16 312.423L1252.81 314.332L1241.59 318.135L1240.95 316.225ZM1244.51 325.932L1257.27 321.605L1257.92 323.544L1242.92 328.632L1235.73 307.418L1250.27 302.485L1250.93 304.425L1238.63 308.597L1244.51 325.932ZM1263.2 321.757L1256 300.543L1265.15 297.439C1267.52 296.638 1269.51 296.493 1271.12 297.004C1272.76 297.508 1273.87 298.629 1274.46 300.366C1274.85 301.518 1274.9 302.58 1274.63 303.553C1274.37 304.519 1273.84 305.361 1273.05 306.081C1272.28 306.793 1271.35 307.334 1270.26 307.704L1270.52 306.802C1271.88 306.343 1273.11 306.161 1274.23 306.257C1275.35 306.325 1276.33 306.681 1277.16 307.324C1277.97 307.947 1278.59 308.865 1279 310.077C1279.61 311.875 1279.42 313.495 1278.42 314.938C1277.44 316.373 1275.62 317.543 1272.95 318.447L1263.2 321.757ZM1264.81 319.147L1272.3 316.609C1274.15 315.979 1275.47 315.182 1276.25 314.22C1277.02 313.238 1277.17 312.05 1276.7 310.656C1276.23 309.282 1275.4 308.45 1274.19 308.159C1272.99 307.849 1271.45 308.008 1269.59 308.639L1261.87 311.26L1261.24 309.411L1268.24 307.037C1269.94 306.461 1271.14 305.693 1271.85 304.731C1272.58 303.762 1272.73 302.642 1272.3 301.369C1271.86 300.076 1271.06 299.277 1269.9 298.973C1268.75 298.642 1267.33 298.764 1265.63 299.339L1258.87 301.631L1264.81 319.147Z" fill="white"/>
<ellipse cx="1365.14" cy="275.038" rx="8" ry="8.5" transform="rotate(-5.78386 1365.14 275.038)" fill="#5E00FF"/>
<path d="M1449.77 233.931L1456.9 231.513C1458.52 230.964 1459.97 230.747 1461.25 230.862C1462.54 230.974 1463.64 231.415 1464.55 232.184C1465.47 232.94 1466.16 234.019 1466.64 235.42C1466.97 236.406 1467.08 237.377 1466.95 238.333C1466.83 239.276 1466.49 240.161 1465.94 240.987C1465.39 241.8 1464.64 242.521 1463.7 243.148L1463.01 243.73L1456.3 246.003L1455.49 243.69L1460.55 241.974C1461.57 241.626 1462.37 241.159 1462.93 240.573C1463.48 239.977 1463.83 239.315 1463.97 238.586C1464.11 237.857 1464.05 237.123 1463.8 236.383C1463.52 235.554 1463.11 234.885 1462.57 234.374C1462.04 233.862 1461.36 233.558 1460.55 233.46C1459.74 233.349 1458.79 233.479 1457.69 233.851L1453.42 235.301L1459.93 254.508L1457.07 255.476L1449.77 233.931ZM1469.67 251.206L1461.12 243.216L1464.09 242.192L1472.66 249.994L1472.72 250.172L1469.67 251.206ZM1488.65 242.178L1489.44 244.501L1478.03 248.37L1477.24 246.047L1488.65 242.178ZM1471.3 226.63L1478.6 248.174L1475.75 249.143L1468.44 227.598L1471.3 226.63ZM1483.76 232.731L1484.55 235.054L1474.65 238.412L1473.86 236.088L1483.76 232.731ZM1481.98 223.006L1482.77 225.344L1471.51 229.163L1470.72 226.825L1481.98 223.006ZM1498.8 241.324L1494.3 242.85L1493.55 240.517L1498.01 239.001C1499.55 238.479 1500.73 237.724 1501.54 236.735C1502.34 235.736 1502.8 234.567 1502.92 233.229C1503.05 231.878 1502.84 230.418 1502.31 228.85L1501.86 227.533C1501.45 226.299 1500.93 225.255 1500.31 224.398C1499.68 223.532 1498.97 222.865 1498.18 222.398C1497.38 221.921 1496.5 221.651 1495.56 221.587C1494.62 221.519 1493.62 221.666 1492.56 222.027L1487.7 223.673L1486.91 221.335L1491.76 219.689C1493.17 219.211 1494.54 219.011 1495.87 219.09C1497.19 219.159 1498.42 219.495 1499.56 220.098C1500.7 220.689 1501.72 221.533 1502.59 222.632C1503.47 223.721 1504.17 225.045 1504.7 226.604L1505.14 227.891C1505.66 229.45 1505.91 230.932 1505.89 232.339C1505.85 233.736 1505.56 235.019 1505 236.188C1504.45 237.354 1503.65 238.377 1502.61 239.259C1501.57 240.127 1500.3 240.816 1498.8 241.324ZM1488.52 220.788L1495.83 242.333L1492.97 243.302L1485.67 221.757L1488.52 220.788ZM1525.76 229.592L1526.55 231.915L1515.14 235.784L1514.35 233.461L1525.76 229.592ZM1508.41 214.044L1515.72 235.588L1512.86 236.557L1505.55 215.012L1508.41 214.044ZM1520.87 220.145L1521.66 222.468L1511.76 225.826L1510.97 223.503L1520.87 220.145ZM1519.09 210.421L1519.89 212.758L1508.63 216.577L1507.83 214.239L1519.09 210.421ZM1539.72 221.376C1539.55 220.873 1539.32 220.456 1539.03 220.125C1538.75 219.78 1538.36 219.515 1537.87 219.33C1537.39 219.142 1536.76 219.018 1536 218.96C1535.24 218.898 1534.3 218.891 1533.18 218.94C1532.01 218.985 1530.93 218.961 1529.94 218.868C1528.95 218.764 1528.06 218.564 1527.28 218.269C1526.5 217.973 1525.84 217.555 1525.29 217.014C1524.74 216.474 1524.33 215.784 1524.04 214.945C1523.76 214.107 1523.67 213.274 1523.77 212.447C1523.88 211.619 1524.16 210.836 1524.63 210.095C1525.1 209.342 1525.73 208.665 1526.53 208.064C1527.32 207.464 1528.28 206.976 1529.38 206.602C1531 206.053 1532.47 205.899 1533.81 206.139C1535.15 206.366 1536.29 206.877 1537.22 207.673C1538.14 208.458 1538.8 209.414 1539.18 210.538L1536.34 211.502C1536.06 210.693 1535.65 210.036 1535.09 209.532C1534.53 209.017 1533.84 208.701 1533.02 208.584C1532.2 208.456 1531.25 208.575 1530.17 208.94C1529.16 209.284 1528.37 209.722 1527.81 210.252C1527.26 210.781 1526.9 211.363 1526.75 211.996C1526.62 212.626 1526.66 213.277 1526.89 213.947C1527.04 214.401 1527.28 214.784 1527.59 215.095C1527.91 215.393 1528.33 215.631 1528.84 215.81C1529.36 215.985 1529.98 216.099 1530.7 216.151C1531.44 216.2 1532.29 216.197 1533.26 216.143C1534.6 216.073 1535.79 216.1 1536.82 216.223C1537.85 216.346 1538.74 216.577 1539.49 216.915C1540.25 217.241 1540.88 217.692 1541.39 218.269C1541.9 218.833 1542.3 219.534 1542.58 220.373C1542.88 221.251 1542.97 222.105 1542.86 222.936C1542.74 223.767 1542.44 224.546 1541.95 225.273C1541.46 226 1540.8 226.659 1539.96 227.25C1539.14 227.827 1538.16 228.308 1537.02 228.693C1536.02 229.031 1535 229.226 1533.94 229.277C1532.88 229.326 1531.87 229.208 1530.89 228.923C1529.93 228.635 1529.07 228.166 1528.32 227.518C1527.58 226.857 1527.03 225.988 1526.66 224.913L1529.51 223.949C1529.76 224.689 1530.11 225.277 1530.58 225.713C1531.05 226.138 1531.58 226.44 1532.19 226.618C1532.81 226.793 1533.47 226.857 1534.15 226.811C1534.85 226.751 1535.54 226.604 1536.23 226.37C1537.23 226.032 1538.03 225.608 1538.62 225.098C1539.22 224.587 1539.61 224.015 1539.79 223.382C1539.98 222.745 1539.96 222.077 1539.72 221.376Z" fill="white"/>
<ellipse cx="1628.8" cy="185.622" rx="8" ry="8.5" transform="rotate(-5.78386 1628.8 185.622)" fill="#5E00FF"/>
<path d="M1724.99 153.379L1719.53 155.231L1718.72 152.947L1723.68 151.266C1724.5 150.989 1725.17 150.608 1725.68 150.124C1726.2 149.641 1726.54 149.085 1726.7 148.459C1726.87 147.819 1726.83 147.139 1726.59 146.419C1726.32 145.629 1725.95 145.04 1725.48 144.651C1725.01 144.248 1724.43 144.038 1723.73 144.022C1723.04 143.993 1722.22 144.139 1721.27 144.46L1717.07 145.885L1723.58 165.092L1720.73 166.061L1713.42 144.516L1720.48 142.122C1721.58 141.747 1722.61 141.526 1723.55 141.459C1724.5 141.381 1725.35 141.477 1726.11 141.747C1726.88 142.003 1727.54 142.438 1728.1 143.051C1728.66 143.664 1729.11 144.474 1729.46 145.48C1729.76 146.368 1729.8 147.248 1729.59 148.123C1729.38 148.987 1728.95 149.783 1728.29 150.511C1727.65 151.236 1726.81 151.845 1725.78 152.337L1724.99 153.379ZM1728.27 163.501L1721.82 165.689L1722.65 162.819L1727.49 161.178C1728.39 160.87 1729.11 160.451 1729.63 159.922C1730.17 159.389 1730.51 158.779 1730.65 158.093C1730.79 157.397 1730.72 156.655 1730.45 155.866C1730.18 155.067 1729.8 154.425 1729.32 153.94C1728.84 153.455 1728.24 153.158 1727.52 153.05C1726.8 152.941 1725.96 153.051 1724.99 153.379L1720.92 154.759L1720.17 152.456L1725.74 150.569L1726.62 151.192C1727.69 150.929 1728.67 150.927 1729.56 151.186C1730.45 151.435 1731.21 151.881 1731.84 152.523C1732.49 153.162 1732.97 153.945 1733.28 154.873C1733.74 156.214 1733.83 157.449 1733.55 158.577C1733.28 159.692 1732.69 160.672 1731.79 161.516C1730.89 162.351 1729.71 163.013 1728.27 163.501ZM1732.3 138.112L1739.43 135.694C1741.05 135.145 1742.5 134.928 1743.78 135.043C1745.08 135.155 1746.18 135.596 1747.09 136.365C1748 137.121 1748.7 138.2 1749.17 139.601C1749.51 140.587 1749.61 141.558 1749.49 142.514C1749.37 143.457 1749.03 144.342 1748.47 145.168C1747.92 145.981 1747.18 146.702 1746.23 147.329L1745.54 147.911L1738.84 150.184L1738.02 147.871L1743.08 146.155C1744.11 145.807 1744.9 145.34 1745.46 144.754C1746.02 144.158 1746.36 143.496 1746.5 142.767C1746.64 142.038 1746.58 141.304 1746.33 140.564C1746.05 139.736 1745.64 139.066 1745.11 138.555C1744.57 138.044 1743.9 137.739 1743.08 137.641C1742.27 137.53 1741.32 137.66 1740.23 138.032L1735.95 139.482L1742.46 158.689L1739.61 159.657L1732.3 138.112ZM1752.2 155.387L1743.65 147.397L1746.62 146.373L1755.19 154.175L1755.25 154.353L1752.2 155.387ZM1759.6 130.983L1759.13 153.038L1756.21 154.027L1757.12 129.697L1759 129.059L1759.6 130.983ZM1772.24 148.592L1758.43 131.38L1757.74 129.486L1759.62 128.849L1775.17 147.598L1772.24 148.592ZM1769.16 140.742L1769.95 143.08L1757.85 147.185L1757.06 144.847L1769.16 140.742ZM1787.32 119.454L1794.62 140.999L1791.75 141.973L1775.27 129.034L1780.91 145.651L1778.05 146.62L1770.75 125.075L1773.6 124.106L1790.14 137.074L1784.49 120.413L1787.32 119.454ZM1805.52 137.306L1801.02 138.831L1800.26 136.498L1804.73 134.982C1806.27 134.461 1807.44 133.705 1808.25 132.716C1809.05 131.717 1809.52 130.548 1809.63 129.21C1809.76 127.859 1809.55 126.399 1809.02 124.831L1808.58 123.514C1808.16 122.281 1807.64 121.236 1807.02 120.379C1806.39 119.513 1805.68 118.846 1804.89 118.379C1804.09 117.903 1803.22 117.632 1802.27 117.568C1801.33 117.5 1800.33 117.647 1799.27 118.008L1794.41 119.654L1793.62 117.317L1798.48 115.671C1799.89 115.192 1801.25 114.992 1802.58 115.071C1803.9 115.14 1805.13 115.476 1806.27 116.08C1807.42 116.67 1808.43 117.514 1809.31 118.613C1810.18 119.702 1810.88 121.026 1811.41 122.585L1811.85 123.872C1812.38 125.431 1812.63 126.914 1812.6 128.32C1812.57 129.717 1812.27 131 1811.71 132.169C1811.16 133.335 1810.36 134.358 1809.32 135.24C1808.28 136.109 1807.02 136.797 1805.52 137.306ZM1795.23 116.77L1802.54 138.314L1799.69 139.283L1792.38 117.738L1795.23 116.77ZM1815.33 109.955L1822.64 131.499L1819.78 132.468L1812.47 110.923L1815.33 109.955ZM1837.1 102.573L1844.4 124.117L1841.53 125.091L1825.05 112.152L1830.69 128.769L1827.83 129.738L1820.52 108.193L1823.38 107.225L1839.92 120.193L1834.27 103.531L1837.1 102.573ZM1861.75 106.273L1864.42 114.16C1864.29 114.645 1864.02 115.233 1863.6 115.924C1863.18 116.604 1862.52 117.301 1861.62 118.014C1860.72 118.714 1859.47 119.337 1857.86 119.882C1856.55 120.327 1855.27 120.51 1854.01 120.431C1852.76 120.338 1851.58 119.99 1850.47 119.387C1849.37 118.77 1848.38 117.905 1847.51 116.793C1846.65 115.668 1845.94 114.301 1845.4 112.693L1844.83 111.021C1844.28 109.413 1843.98 107.914 1843.93 106.525C1843.89 105.131 1844.09 103.87 1844.53 102.741C1844.97 101.603 1845.65 100.624 1846.57 99.8057C1847.49 98.9774 1848.64 98.3273 1850.03 97.8556C1851.68 97.2969 1853.15 97.1163 1854.45 97.3138C1855.76 97.498 1856.89 97.9829 1857.85 98.7685C1858.82 99.5507 1859.61 100.548 1860.22 101.76L1857.36 102.729C1856.97 101.993 1856.47 101.37 1855.87 100.859C1855.28 100.345 1854.56 100.014 1853.73 99.8671C1852.9 99.7101 1851.93 99.8189 1850.82 100.194C1849.83 100.531 1849.03 101.007 1848.42 101.619C1847.81 102.232 1847.39 102.959 1847.15 103.8C1846.91 104.641 1846.83 105.585 1846.92 106.632C1847.02 107.676 1847.28 108.805 1847.69 110.018L1848.27 111.72C1848.69 112.963 1849.21 114.024 1849.82 114.904C1850.45 115.78 1851.15 116.471 1851.93 116.978C1852.7 117.474 1853.53 117.773 1854.4 117.874C1855.28 117.972 1856.17 117.865 1857.09 117.554C1858.11 117.209 1858.9 116.846 1859.48 116.464C1860.05 116.072 1860.47 115.698 1860.75 115.341C1861.02 114.974 1861.21 114.65 1861.32 114.369L1859.69 109.545L1854.7 111.237L1853.92 108.928L1861.75 106.273Z" fill="white"/>
</svg>
