<svg width="2120" height="107" viewBox="0 0 2120 107" fill="none" xmlns="http://www.w3.org/2000/svg">
<rect x="10" y="10" width="2100" height="87" fill="black" fill-opacity="0.76"/>
<rect x="5" y="5" width="2110" height="97" stroke="black" stroke-opacity="0.2" stroke-width="10"/>
<path d="M187.868 57.2812C187.587 59.6875 186.696 61.5469 185.196 62.8594C183.707 64.1615 181.722 64.8125 179.243 64.8125C176.556 64.8125 174.399 63.849 172.774 61.9219C171.16 59.9948 170.353 57.4167 170.353 54.1875V52C170.353 49.8854 170.728 48.026 171.478 46.4219C172.238 44.8177 173.311 43.5885 174.696 42.7344C176.082 41.8698 177.686 41.4375 179.509 41.4375C181.925 41.4375 183.863 42.1146 185.321 43.4687C186.78 44.8125 187.629 46.6771 187.868 49.0625H184.853C184.592 47.25 184.024 45.9375 183.149 45.125C182.285 44.3125 181.071 43.9062 179.509 43.9062C177.592 43.9062 176.087 44.6146 174.993 46.0312C173.91 47.4479 173.368 49.4635 173.368 52.0781V54.2812C173.368 56.75 173.884 58.7135 174.915 60.1719C175.946 61.6302 177.389 62.3594 179.243 62.3594C180.91 62.3594 182.186 61.9844 183.071 61.2344C183.967 60.474 184.561 59.1562 184.853 57.2812H187.868ZM200.321 55.2969H194.978V64.5H191.962V41.75H199.493C202.056 41.75 204.024 42.3333 205.399 43.5C206.785 44.6667 207.478 46.3646 207.478 48.5937C207.478 50.0104 207.092 51.2448 206.321 52.2969C205.561 53.349 204.498 54.1354 203.134 54.6562L208.478 64.3125V64.5H205.259L200.321 55.2969ZM194.978 52.8437H199.587C201.076 52.8437 202.259 52.4583 203.134 51.6875C204.019 50.9167 204.462 49.8854 204.462 48.5937C204.462 47.1875 204.04 46.1094 203.196 45.3594C202.363 44.6094 201.155 44.2292 199.571 44.2187H194.978V52.8437ZM224.556 53.9844H214.696V62.0469H226.149V64.5H211.696V41.75H225.993V44.2187H214.696V51.5312H224.556V53.9844ZM242.446 58.5625H232.915L230.774 64.5H227.681L236.368 41.75H238.993L247.696 64.5H244.618L242.446 58.5625ZM233.821 56.0937H241.556L237.681 45.4531L233.821 56.0937ZM264.446 44.2187H257.134V64.5H254.149V44.2187L246.853 44.2187V41.75H264.446V44.2187ZM271.04 64.5H268.04V41.75H271.04V64.5ZM284.071 60.5156L290.571 41.75H293.853L285.415 64.5H282.759L274.337 41.75H277.603L284.071 60.5156ZM309.774 53.9844H299.915V62.0469H311.368V64.5H296.915V41.75H311.212V44.2187H299.915V51.5312H309.774V53.9844ZM323.04 64.5V41.75H329.462C331.441 41.75 333.191 42.1875 334.712 43.0625C336.233 43.9375 337.405 45.1823 338.228 46.7969C339.061 48.4115 339.483 50.2656 339.493 52.3594V53.8125C339.493 55.9583 339.076 57.8385 338.243 59.4531C337.42 61.0677 336.238 62.3073 334.696 63.1719C333.165 64.0365 331.379 64.4792 329.337 64.5L323.04 64.5ZM326.04 44.2187V62.0469L329.196 62.0469C331.509 62.0469 333.306 61.3281 334.587 59.8906C335.879 58.4531 336.524 56.4062 336.524 53.75V52.4219C336.524 49.8385 335.915 47.8333 334.696 46.4062C333.488 44.9687 331.769 44.2396 329.54 44.2187H326.04ZM356.899 53.9844H347.04V62.0469H358.493V64.5H344.04V41.75L358.337 41.75V44.2187H347.04V51.5312H356.899V53.9844ZM368.931 54.3594C366.358 53.6198 364.483 52.7135 363.306 51.6406C362.139 50.5573 361.556 49.224 361.556 47.6406C361.556 45.849 362.269 44.3698 363.696 43.2031C365.134 42.026 366.998 41.4375 369.29 41.4375C370.853 41.4375 372.243 41.7396 373.462 42.3437C374.691 42.9479 375.639 43.7812 376.306 44.8437C376.983 45.9062 377.321 47.0677 377.321 48.3281H374.306C374.306 46.9531 373.868 45.875 372.993 45.0937C372.118 44.3021 370.884 43.9062 369.29 43.9062C367.811 43.9062 366.655 44.2344 365.821 44.8906C364.998 45.5365 364.587 46.4375 364.587 47.5937C364.587 48.5208 364.978 49.3073 365.759 49.9531C366.55 50.5885 367.889 51.1719 369.774 51.7031C371.67 52.2344 373.149 52.8229 374.212 53.4687C375.285 54.1042 376.076 54.849 376.587 55.7031C377.108 56.5573 377.368 57.5625 377.368 58.7187C377.368 60.5625 376.649 62.0417 375.212 63.1562C373.774 64.2604 371.853 64.8125 369.446 64.8125C367.884 64.8125 366.425 64.5156 365.071 63.9219C363.717 63.3177 362.67 62.4948 361.931 61.4531C361.201 60.4115 360.837 59.2292 360.837 57.9062H363.853C363.853 59.2812 364.358 60.3698 365.368 61.1719C366.389 61.9635 367.748 62.3594 369.446 62.3594C371.03 62.3594 372.243 62.0365 373.087 61.3906C373.931 60.7448 374.353 59.8646 374.353 58.75C374.353 57.6354 373.962 56.776 373.181 56.1719C372.399 55.5573 370.983 54.9531 368.931 54.3594ZM384.446 64.5H381.446V41.75H384.446V64.5ZM406.743 61.5156C405.972 62.6198 404.894 63.4479 403.509 64C402.134 64.5417 400.53 64.8125 398.696 64.8125C396.842 64.8125 395.196 64.3802 393.759 63.5156C392.321 62.6406 391.207 61.401 390.415 59.7969C389.634 58.1927 389.233 56.3333 389.212 54.2187V52.2344C389.212 48.8073 390.009 46.151 391.603 44.2656C393.207 42.3802 395.457 41.4375 398.353 41.4375C400.728 41.4375 402.639 42.0469 404.087 43.2656C405.535 44.474 406.42 46.1927 406.743 48.4219H403.743C403.181 45.4115 401.389 43.9062 398.368 43.9062C396.358 43.9062 394.832 44.6146 393.79 46.0312C392.759 47.4375 392.238 49.4792 392.228 52.1562V54.0156C392.228 56.5677 392.811 58.599 393.978 60.1094C395.144 61.6094 396.722 62.3594 398.712 62.3594C399.837 62.3594 400.821 62.2344 401.665 61.9844C402.509 61.7344 403.207 61.3125 403.759 60.7187V55.6094H398.493V53.1719H406.743V61.5156ZM429.243 64.5H426.228L414.774 46.9687V64.5H411.759V41.75H414.774L426.259 59.3594V41.75H429.243V64.5Z" fill="white"/>
<ellipse cx="523.194" cy="53.5" rx="8" ry="8.5" transform="rotate(12.95 523.194 53.5)" fill="#5E00FF"/>
<path d="M617.544 65V42.6H627.208C629.704 42.6 631.635 43.1013 633 44.104C634.387 45.1067 635.08 46.5253 635.08 48.36C635.08 49.576 634.792 50.6 634.216 51.432C633.661 52.264 632.893 52.8933 631.912 53.32C630.952 53.7467 629.896 53.96 628.744 53.96L629.288 53.192C630.717 53.192 631.944 53.416 632.968 53.864C634.013 54.2907 634.824 54.9413 635.4 55.816C635.976 56.6693 636.264 57.736 636.264 59.016C636.264 60.9147 635.56 62.3867 634.152 63.432C632.765 64.4773 630.664 65 627.848 65H617.544ZM619.912 63.048H627.816C629.779 63.048 631.283 62.7173 632.328 62.056C633.373 61.3733 633.896 60.296 633.896 58.824C633.896 57.3733 633.373 56.3173 632.328 55.656C631.283 54.9733 629.779 54.632 627.816 54.632H619.656V52.68H627.048C628.84 52.68 630.227 52.3387 631.208 51.656C632.211 50.9733 632.712 49.96 632.712 48.616C632.712 47.2507 632.211 46.2373 631.208 45.576C630.227 44.8933 628.84 44.552 627.048 44.552H619.912V63.048ZM641.669 65V42.6H650.053C651.952 42.6 653.584 42.9093 654.949 43.528C656.314 44.1253 657.36 45 658.085 46.152C658.832 47.2827 659.205 48.6587 659.205 50.28C659.205 51.8587 658.832 53.224 658.085 54.376C657.36 55.5067 656.314 56.3813 654.949 57C653.584 57.5973 651.952 57.896 650.053 57.896H642.981L644.037 56.808V65H641.669ZM656.965 65L651.205 56.872H653.765L659.557 65H656.965ZM644.037 57L642.981 55.88H649.989C652.229 55.88 653.925 55.3893 655.077 54.408C656.25 53.4267 656.837 52.0507 656.837 50.28C656.837 48.488 656.25 47.1013 655.077 46.12C653.925 45.1387 652.229 44.648 649.989 44.648H642.981L644.037 43.528V57ZM661.21 65L671.45 42.6H673.786L684.026 65H681.53L672.122 43.976H673.082L663.674 65H661.21ZM665.242 59.016L665.946 57.096H678.97L679.674 59.016H665.242ZM687.731 65V42.6H689.683L705.139 62.056H704.115V42.6H706.451V65H704.499L689.075 45.544H690.099V65H687.731ZM713.763 65V42.6H722.883C725.272 42.6 727.363 43.08 729.155 44.04C730.968 44.9787 732.376 46.2907 733.379 47.976C734.381 49.6613 734.883 51.6027 734.883 53.8C734.883 55.9973 734.381 57.9387 733.379 59.624C732.376 61.3093 730.968 62.632 729.155 63.592C727.363 64.5307 725.272 65 722.883 65H713.763ZM716.131 62.952H722.755C724.739 62.952 726.456 62.568 727.907 61.8C729.379 61.0107 730.52 59.9333 731.331 58.568C732.141 57.1813 732.547 55.592 732.547 53.8C732.547 51.9867 732.141 50.3973 731.331 49.032C730.52 47.6667 729.379 46.6 727.907 45.832C726.456 45.0427 724.739 44.648 722.755 44.648H716.131V62.952ZM740.2 65V42.6H742.568V65H740.2ZM749.856 65V42.6H751.808L767.264 62.056H766.24V42.6H768.576V65H766.624L751.2 45.544H752.224V65H749.856ZM785.712 65.192C784.005 65.192 782.426 64.9147 780.976 64.36C779.546 63.784 778.298 62.984 777.232 61.96C776.186 60.936 775.365 59.7307 774.768 58.344C774.192 56.9573 773.904 55.4427 773.904 53.8C773.904 52.1573 774.192 50.6427 774.768 49.256C775.365 47.8693 776.197 46.664 777.264 45.64C778.33 44.616 779.578 43.8267 781.008 43.272C782.458 42.696 784.037 42.408 785.744 42.408C787.45 42.408 789.008 42.6747 790.416 43.208C791.845 43.7413 793.061 44.552 794.064 45.64L792.592 47.144C791.653 46.2053 790.618 45.5333 789.488 45.128C788.357 44.7227 787.141 44.52 785.84 44.52C784.453 44.52 783.173 44.7547 782 45.224C780.848 45.672 779.834 46.3227 778.96 47.176C778.106 48.008 777.434 48.9893 776.944 50.12C776.474 51.2293 776.24 52.456 776.24 53.8C776.24 55.1227 776.474 56.3493 776.944 57.48C777.434 58.6107 778.106 59.6027 778.96 60.456C779.834 61.288 780.848 61.9387 782 62.408C783.173 62.856 784.442 63.08 785.808 63.08C787.088 63.08 788.293 62.888 789.424 62.504C790.576 62.12 791.632 61.4693 792.592 60.552L793.936 62.344C792.869 63.2827 791.621 63.9973 790.192 64.488C788.762 64.9573 787.269 65.192 785.712 65.192ZM791.664 62.056V53.8H793.936V62.344L791.664 62.056Z" fill="white"/>
<ellipse cx="888.597" cy="53.5" rx="8" ry="8.5" transform="rotate(12.95 888.597 53.5)" fill="#5E00FF"/>
<path d="M991.971 65.192C989.112 65.192 986.861 64.3707 985.219 62.728C983.576 61.0853 982.755 58.6533 982.755 55.432V42.6H985.123V55.336C985.123 57.9813 985.72 59.9333 986.915 61.192C988.109 62.4507 989.795 63.08 991.971 63.08C994.168 63.08 995.864 62.4507 997.059 61.192C998.253 59.9333 998.851 57.9813 998.851 55.336V42.6H1001.15V55.432C1001.15 58.6533 1000.33 61.0853 998.691 62.728C997.069 64.3707 994.829 65.192 991.971 65.192ZM1008.29 65L1008.29 42.6H1010.66L1010.66 65H1008.29ZM1013.5 68.2L1024.06 38.056H1026.14L1015.58 68.2H1013.5ZM1037.69 65.192C1034.83 65.192 1032.58 64.3707 1030.94 62.728C1029.29 61.0853 1028.47 58.6533 1028.47 55.432V42.6H1030.84V55.336C1030.84 57.9813 1031.44 59.9333 1032.63 61.192C1033.83 62.4507 1035.51 63.08 1037.69 63.08C1039.89 63.08 1041.58 62.4507 1042.78 61.192C1043.97 59.9333 1044.57 57.9813 1044.57 55.336V42.6H1046.87V55.432C1046.87 58.6533 1046.05 61.0853 1044.41 62.728C1042.79 64.3707 1040.55 65.192 1037.69 65.192ZM1050.59 65L1059.78 52.584V54.408L1051.14 42.6H1053.86L1061.12 52.456L1060.06 52.488L1067.33 42.6H1069.89L1061.34 54.248V52.584L1070.5 65H1067.74L1060 54.472H1060.99L1053.31 65H1050.59Z" fill="white"/>
<ellipse cx="1162" cy="53.5" rx="8" ry="8.5" transform="rotate(12.95 1162 53.5)" fill="#5E00FF"/>
<path d="M1261.44 65L1253.89 42.6H1256.32L1263.39 63.688H1262.17L1269.47 42.6H1271.65L1278.85 63.688H1277.69L1284.83 42.6H1287.1L1279.55 65H1277.05L1270.17 45H1270.81L1263.9 65H1261.44ZM1293.56 52.616H1305.4V54.632H1293.56V52.616ZM1293.81 62.952H1307.28V65H1291.44V42.6L1306.8 42.6V44.648L1293.81 44.648V62.952ZM1312.85 65V42.6H1322.51C1325.01 42.6 1326.94 43.1013 1328.31 44.104C1329.69 45.1067 1330.39 46.5253 1330.39 48.36C1330.39 49.576 1330.1 50.6 1329.52 51.432C1328.97 52.264 1328.2 52.8933 1327.22 53.32C1326.26 53.7467 1325.2 53.96 1324.05 53.96L1324.59 53.192C1326.02 53.192 1327.25 53.416 1328.27 53.864C1329.32 54.2907 1330.13 54.9413 1330.71 55.816C1331.28 56.6693 1331.57 57.736 1331.57 59.016C1331.57 60.9147 1330.87 62.3867 1329.46 63.432C1328.07 64.4773 1325.97 65 1323.15 65H1312.85ZM1315.22 63.048L1323.12 63.048C1325.08 63.048 1326.59 62.7173 1327.63 62.056C1328.68 61.3733 1329.2 60.296 1329.2 58.824C1329.2 57.3733 1328.68 56.3173 1327.63 55.656C1326.59 54.9733 1325.08 54.632 1323.12 54.632L1314.96 54.632V52.68L1322.35 52.68C1324.15 52.68 1325.53 52.3387 1326.51 51.656C1327.52 50.9733 1328.02 49.96 1328.02 48.616C1328.02 47.2507 1327.52 46.2373 1326.51 45.576C1325.53 44.8933 1324.15 44.552 1322.35 44.552H1315.22V63.048Z" fill="white"/>
<ellipse cx="1424.4" cy="53.5" rx="8" ry="8.5" transform="rotate(12.95 1424.4 53.5)" fill="#5E00FF"/>
<path d="M1517.74 41.75H1525.28C1526.98 41.75 1528.43 42.0104 1529.6 42.5312C1530.79 43.0521 1531.69 43.8229 1532.31 44.8437C1532.93 45.8542 1533.24 47.099 1533.24 48.5781C1533.24 49.6198 1533.03 50.5729 1532.6 51.4375C1532.19 52.2917 1531.58 53.0208 1530.79 53.625C1530.01 54.2187 1529.07 54.6615 1527.98 54.9531L1527.14 55.2812H1520.06L1520.03 52.8281H1525.37C1526.45 52.8281 1527.35 52.6406 1528.07 52.2656C1528.79 51.8802 1529.33 51.3646 1529.7 50.7187C1530.06 50.0729 1530.24 49.3594 1530.24 48.5781C1530.24 47.7031 1530.07 46.9375 1529.73 46.2812C1529.39 45.625 1528.84 45.1198 1528.1 44.7656C1527.37 44.401 1526.43 44.2187 1525.28 44.2187H1520.76V64.5H1517.74V41.75ZM1531.04 64.5L1525.51 54.1875L1528.65 54.1719L1534.26 64.3125V64.5H1531.04ZM1551.92 62.0469V64.5H1539.87V62.0469H1551.92ZM1540.48 41.75V64.5H1537.46V41.75H1540.48ZM1550.32 51.5312V53.9844H1539.87V51.5312H1550.32ZM1551.76 41.75V44.2187H1539.87V41.75H1551.76ZM1561.81 64.5H1557.06L1557.09 62.0469H1561.81C1563.43 62.0469 1564.79 61.7083 1565.87 61.0312C1566.95 60.3437 1567.77 59.3854 1568.31 58.1562C1568.86 56.9167 1569.14 55.4687 1569.14 53.8125V52.4219C1569.14 51.1198 1568.98 49.9635 1568.67 48.9531C1568.35 47.9323 1567.9 47.0729 1567.29 46.375C1566.69 45.6667 1565.95 45.1302 1565.07 44.7656C1564.21 44.401 1563.21 44.2187 1562.09 44.2187H1556.96V41.75H1562.09C1563.58 41.75 1564.94 42 1566.17 42.5C1567.4 42.9896 1568.45 43.7031 1569.34 44.6406C1570.23 45.5677 1570.92 46.6927 1571.4 48.0156C1571.88 49.3281 1572.12 50.8073 1572.12 52.4531V53.8125C1572.12 55.4583 1571.88 56.9427 1571.4 58.2656C1570.92 59.5781 1570.23 60.6979 1569.32 61.625C1568.43 62.5521 1567.34 63.2656 1566.07 63.7656C1564.81 64.2552 1563.39 64.5 1561.81 64.5ZM1558.67 41.75V64.5H1555.65V41.75H1558.67ZM1591.1 62.0469V64.5H1579.06V62.0469L1591.1 62.0469ZM1579.67 41.75V64.5H1576.65V41.75H1579.67ZM1589.51 51.5312V53.9844L1579.06 53.9844V51.5312L1589.51 51.5312ZM1590.95 41.75V44.2187H1579.06V41.75H1590.95ZM1606.96 58.75C1606.96 58.2187 1606.88 57.75 1606.71 57.3437C1606.56 56.9271 1606.28 56.5521 1605.87 56.2187C1605.47 55.8854 1604.92 55.5677 1604.21 55.2656C1603.52 54.9635 1602.63 54.6562 1601.56 54.3437C1600.43 54.0104 1599.42 53.6406 1598.51 53.2344C1597.6 52.8177 1596.83 52.3437 1596.18 51.8125C1595.54 51.2812 1595.04 50.6719 1594.7 49.9844C1594.35 49.2969 1594.18 48.5104 1594.18 47.625C1594.18 46.7396 1594.36 45.9219 1594.73 45.1719C1595.09 44.4219 1595.61 43.7708 1596.29 43.2187C1596.98 42.6562 1597.8 42.2187 1598.74 41.9062C1599.69 41.5937 1600.75 41.4375 1601.92 41.4375C1603.62 41.4375 1605.07 41.7656 1606.26 42.4219C1607.46 43.0677 1608.37 43.9167 1608.99 44.9687C1609.62 46.0104 1609.93 47.125 1609.93 48.3125H1606.93C1606.93 47.4583 1606.75 46.7031 1606.39 46.0469C1606.02 45.3802 1605.47 44.8594 1604.73 44.4844C1603.99 44.099 1603.05 43.9062 1601.92 43.9062C1600.84 43.9062 1599.96 44.0677 1599.26 44.3906C1598.56 44.7135 1598.04 45.151 1597.7 45.7031C1597.36 46.2552 1597.2 46.8854 1597.2 47.5937C1597.2 48.0729 1597.3 48.5104 1597.49 48.9062C1597.7 49.2917 1598.02 49.651 1598.45 49.9844C1598.89 50.3177 1599.44 50.625 1600.1 50.9062C1600.78 51.1875 1601.59 51.4583 1602.53 51.7187C1603.82 52.0833 1604.93 52.4896 1605.87 52.9375C1606.81 53.3854 1607.58 53.8906 1608.18 54.4531C1608.8 55.0052 1609.25 55.6354 1609.54 56.3437C1609.84 57.0417 1609.99 57.8333 1609.99 58.7187C1609.99 59.6458 1609.81 60.4844 1609.43 61.2344C1609.06 61.9844 1608.52 62.625 1607.82 63.1562C1607.12 63.6875 1606.29 64.099 1605.31 64.3906C1604.34 64.6719 1603.26 64.8125 1602.06 64.8125C1601.01 64.8125 1599.97 64.6667 1598.95 64.375C1597.94 64.0833 1597.02 63.6458 1596.18 63.0625C1595.36 62.4792 1594.7 61.7604 1594.2 60.9062C1593.71 60.0417 1593.46 59.0417 1593.46 57.9062H1596.46C1596.46 58.6875 1596.61 59.3594 1596.92 59.9219C1597.22 60.474 1597.63 60.9323 1598.15 61.2969C1598.68 61.6615 1599.28 61.9323 1599.95 62.1094C1600.62 62.276 1601.33 62.3594 1602.06 62.3594C1603.11 62.3594 1604 62.2135 1604.73 61.9219C1605.46 61.6302 1606.01 61.2135 1606.39 60.6719C1606.77 60.1302 1606.96 59.4896 1606.96 58.75Z" fill="white"/>
<ellipse cx="1702.81" cy="53.5" rx="8" ry="8.5" transform="rotate(12.95 1702.81 53.5)" fill="#5E00FF"/>
<path d="M1804.26 53.8594H1798.49L1798.46 51.4375H1803.69C1804.56 51.4375 1805.31 51.2917 1805.96 51C1806.61 50.7083 1807.11 50.2917 1807.46 49.75C1807.82 49.1979 1808.01 48.5417 1808.01 47.7812C1808.01 46.9479 1807.85 46.2708 1807.52 45.75C1807.21 45.2187 1806.73 44.8333 1806.07 44.5937C1805.42 44.3437 1804.6 44.2187 1803.6 44.2187H1799.16V64.5H1796.15V41.75H1803.6C1804.77 41.75 1805.81 41.8698 1806.73 42.1094C1807.64 42.3385 1808.42 42.7031 1809.05 43.2031C1809.7 43.6927 1810.19 44.3177 1810.52 45.0781C1810.86 45.8385 1811.02 46.75 1811.02 47.8125C1811.02 48.75 1810.78 49.599 1810.3 50.3594C1809.82 51.1094 1809.16 51.724 1808.3 52.2031C1807.46 52.6823 1806.47 52.9896 1805.33 53.125L1804.26 53.8594ZM1804.12 64.5H1797.3L1799.01 62.0469H1804.12C1805.07 62.0469 1805.89 61.8802 1806.55 61.5469C1807.23 61.2135 1807.75 60.7448 1808.1 60.1406C1808.45 59.526 1808.63 58.8021 1808.63 57.9687C1808.63 57.125 1808.48 56.3958 1808.18 55.7812C1807.88 55.1667 1807.4 54.6927 1806.76 54.3594C1806.11 54.026 1805.28 53.8594 1804.26 53.8594H1799.96L1799.99 51.4375H1805.87L1806.51 52.3125C1807.6 52.4062 1808.53 52.7187 1809.29 53.25C1810.05 53.7708 1810.63 54.4375 1811.02 55.25C1811.43 56.0625 1811.63 56.9583 1811.63 57.9375C1811.63 59.3542 1811.32 60.5521 1810.69 61.5312C1810.08 62.5 1809.21 63.2396 1808.08 63.75C1806.96 64.25 1805.64 64.5 1804.12 64.5ZM1816.08 41.75H1823.62C1825.32 41.75 1826.77 42.0104 1827.94 42.5312C1829.13 43.0521 1830.03 43.8229 1830.65 44.8437C1831.27 45.8542 1831.58 47.099 1831.58 48.5781C1831.58 49.6198 1831.37 50.5729 1830.94 51.4375C1830.53 52.2917 1829.92 53.0208 1829.13 53.625C1828.35 54.2187 1827.41 54.6615 1826.32 54.9531L1825.48 55.2812H1818.4L1818.37 52.8281H1823.71C1824.79 52.8281 1825.69 52.6406 1826.41 52.2656C1827.13 51.8802 1827.67 51.3646 1828.04 50.7187C1828.4 50.0729 1828.58 49.3594 1828.58 48.5781C1828.58 47.7031 1828.41 46.9375 1828.07 46.2812C1827.73 45.625 1827.18 45.1198 1826.44 44.7656C1825.72 44.401 1824.77 44.2187 1823.62 44.2187H1819.1V64.5H1816.08V41.75ZM1829.38 64.5L1823.85 54.1875L1826.99 54.1719L1832.6 64.3125V64.5H1829.38ZM1844.23 43.7656L1836.69 64.5H1833.62L1842.29 41.75H1844.27L1844.23 43.7656ZM1850.54 64.5L1842.99 43.7656L1842.94 41.75H1844.93L1853.63 64.5H1850.54ZM1850.15 56.0781V58.5469H1837.37V56.0781H1850.15ZM1874.18 41.75V64.5H1871.15L1859.69 46.9531V64.5H1856.68V41.75H1859.69L1871.19 59.3437V41.75H1874.18ZM1885.68 64.5H1880.93L1880.96 62.0469H1885.68C1887.3 62.0469 1888.66 61.7083 1889.74 61.0312C1890.82 60.3437 1891.64 59.3854 1892.18 58.1562C1892.73 56.9167 1893.01 55.4687 1893.01 53.8125V52.4219C1893.01 51.1198 1892.85 49.9635 1892.54 48.9531C1892.23 47.9323 1891.77 47.0729 1891.16 46.375C1890.56 45.6667 1889.82 45.1302 1888.94 44.7656C1888.08 44.401 1887.08 44.2187 1885.96 44.2187H1880.83V41.75H1885.96C1887.45 41.75 1888.81 42 1890.04 42.5C1891.27 42.9896 1892.32 43.7031 1893.21 44.6406C1894.11 45.5677 1894.79 46.6927 1895.27 48.0156C1895.75 49.3281 1895.99 50.8073 1895.99 52.4531V53.8125C1895.99 55.4583 1895.75 56.9427 1895.27 58.2656C1894.79 59.5781 1894.1 60.6979 1893.19 61.625C1892.3 62.5521 1891.22 63.2656 1889.94 63.7656C1888.68 64.2552 1887.26 64.5 1885.68 64.5ZM1882.54 41.75V64.5H1879.52V41.75H1882.54ZM1903.76 41.75V64.5H1900.74V41.75H1903.76ZM1926.74 41.75V64.5H1923.71L1912.26 46.9531V64.5H1909.24V41.75H1912.26L1923.76 59.3437V41.75H1926.74ZM1948.9 53.1719V61.5C1948.62 61.9167 1948.17 62.3854 1947.55 62.9062C1946.94 63.4167 1946.09 63.8646 1945.01 64.25C1943.93 64.625 1942.55 64.8125 1940.85 64.8125C1939.47 64.8125 1938.19 64.5729 1937.02 64.0937C1935.87 63.6042 1934.86 62.8958 1934.01 61.9687C1933.16 61.0312 1932.51 59.8958 1932.04 58.5625C1931.58 57.2187 1931.35 55.6979 1931.35 54V52.2344C1931.35 50.5365 1931.55 49.0208 1931.94 47.6875C1932.35 46.3542 1932.94 45.224 1933.73 44.2969C1934.51 43.3594 1935.47 42.651 1936.6 42.1719C1937.74 41.6823 1939.04 41.4375 1940.51 41.4375C1942.25 41.4375 1943.7 41.7396 1944.87 42.3437C1946.04 42.9375 1946.96 43.7604 1947.62 44.8125C1948.28 45.8646 1948.71 47.0625 1948.9 48.4062H1945.88C1945.75 47.5833 1945.48 46.8333 1945.07 46.1562C1944.67 45.4792 1944.11 44.9375 1943.37 44.5312C1942.63 44.1146 1941.67 43.9062 1940.51 43.9062C1939.45 43.9062 1938.54 44.099 1937.77 44.4844C1937 44.8698 1936.37 45.4219 1935.87 46.1406C1935.37 46.8594 1934.99 47.7292 1934.74 48.75C1934.5 49.7708 1934.38 50.9219 1934.38 52.2031V54C1934.38 55.3125 1934.53 56.4844 1934.83 57.5156C1935.15 58.5469 1935.59 59.4271 1936.16 60.1562C1936.74 60.875 1937.42 61.4219 1938.21 61.7969C1939.01 62.1719 1939.9 62.3594 1940.87 62.3594C1941.94 62.3594 1942.81 62.2708 1943.48 62.0937C1944.14 61.9062 1944.66 61.6875 1945.04 61.4375C1945.41 61.1771 1945.7 60.9323 1945.9 60.7031V55.6094H1940.63V53.1719H1948.9Z" fill="white"/>
</svg>
