<svg width="362" height="232" viewBox="0 0 362 232" fill="none" xmlns="http://www.w3.org/2000/svg">
<path d="M152.971 147.984C153.126 168.245 147.326 184.099 135.571 195.544C123.817 206.835 107.654 212.48 87.0834 212.48C74.8648 212.48 63.5741 209.696 53.2114 204.128C43.0034 198.56 34.8834 190.672 28.8514 180.464C22.8194 170.256 19.8034 158.501 19.8034 145.2V111.328C19.8034 98.1813 22.6648 86.504 28.3874 76.296C34.2648 66.088 42.2301 58.2 52.2834 52.632C62.4914 46.9093 73.8594 44.048 86.3874 44.048C106.958 44.048 123.043 49.6933 134.643 60.984C146.398 72.12 152.353 87.896 152.507 108.312H110.747C110.593 100.424 108.427 94.3147 104.251 89.984C100.23 85.6533 94.2754 83.488 86.3874 83.488C79.2728 83.488 73.3954 85.7307 68.7554 90.216C64.1154 94.7013 61.7954 101.043 61.7954 109.24V147.056C61.7954 155.253 64.1928 161.672 68.9874 166.312C73.9368 170.797 79.9688 173.04 87.0834 173.04C103.323 173.04 111.443 164.688 111.443 147.984H152.971Z" fill="white"/>
<path d="M341.971 147.984C342.126 168.245 336.326 184.099 324.571 195.544C312.817 206.835 296.654 212.48 276.083 212.48C263.865 212.48 252.574 209.696 242.211 204.128C232.003 198.56 223.883 190.672 217.851 180.464C211.819 170.256 208.803 158.501 208.803 145.2V111.328C208.803 98.1813 211.665 86.504 217.387 76.296C223.265 66.088 231.23 58.2 241.283 52.632C251.491 46.9093 262.859 44.048 275.387 44.048C295.958 44.048 312.043 49.6933 323.643 60.984C335.398 72.12 341.353 87.896 341.507 108.312H299.747C299.593 100.424 297.427 94.3147 293.251 89.984C289.23 85.6533 283.275 83.488 275.387 83.488C268.273 83.488 262.395 85.7307 257.755 90.216C253.115 94.7013 250.795 101.043 250.795 109.24V147.056C250.795 155.253 253.193 161.672 257.987 166.312C262.937 170.797 268.969 173.04 276.083 173.04C292.323 173.04 300.443 164.688 300.443 147.984H341.971Z" fill="white"/>
<g filter="url(#filter0_d_105_154)">
<mask id="path-3-inside-1_105_154" fill="white">
<path d="M204.202 109.546C204.202 113.523 203.417 117.344 201.847 121.007C200.382 124.67 198.236 127.915 195.41 130.741L191.328 126.659C193.631 124.356 195.358 121.74 196.509 118.809C197.765 115.878 198.393 112.791 198.393 109.546C198.393 105.15 197.294 101.12 195.096 97.457C193.003 93.689 190.072 90.7583 186.304 88.665C182.641 86.467 178.611 85.368 174.215 85.368C169.924 85.368 165.894 86.467 162.126 88.665C158.463 90.863 155.532 93.7937 153.334 97.457C151.136 101.12 150.037 105.15 150.037 109.546C150.037 112.791 150.613 115.878 151.764 118.809C153.02 121.74 154.8 124.356 157.102 126.659L202.161 171.718C204.987 166.903 206.4 161.513 206.4 155.547V149.895H222.571V155.547H212.052C212.052 163.083 210.168 169.886 206.4 175.957L222.414 191.814H214.093L202.946 180.667C199.388 184.854 195.149 188.098 190.229 190.401C185.31 192.704 180.024 193.855 174.372 193.855C167.569 193.855 161.237 192.18 155.375 188.831C149.619 185.377 145.013 180.772 141.559 175.015C138.21 169.154 136.535 162.821 136.535 156.018C136.535 150.471 137.687 145.185 139.989 140.161C142.397 135.032 145.746 130.689 150.037 127.13C146.269 122.106 144.385 116.245 144.385 109.546C144.385 104.103 145.694 99.1317 148.31 94.631C151.032 90.0257 154.695 86.4147 159.3 83.798C163.906 81.0767 168.93 79.716 174.372 79.716C179.815 79.716 184.787 81.0767 189.287 83.798C193.893 86.4147 197.504 90.0257 200.12 94.631C202.842 99.1317 204.202 104.103 204.202 109.546ZM153.805 131.526C150.142 134.561 147.264 138.225 145.17 142.516C143.182 146.807 142.187 151.308 142.187 156.018C142.187 161.879 143.6 167.27 146.426 172.189C149.357 177.108 153.282 181.033 158.201 183.964C163.121 186.79 168.511 188.203 174.372 188.203C179.187 188.203 183.74 187.156 188.031 185.063C192.323 182.97 195.934 180.144 198.864 176.585L153.805 131.526Z"/>
</mask>
<path d="M204.202 109.546C204.202 113.523 203.417 117.344 201.847 121.007C200.382 124.67 198.236 127.915 195.41 130.741L191.328 126.659C193.631 124.356 195.358 121.74 196.509 118.809C197.765 115.878 198.393 112.791 198.393 109.546C198.393 105.15 197.294 101.12 195.096 97.457C193.003 93.689 190.072 90.7583 186.304 88.665C182.641 86.467 178.611 85.368 174.215 85.368C169.924 85.368 165.894 86.467 162.126 88.665C158.463 90.863 155.532 93.7937 153.334 97.457C151.136 101.12 150.037 105.15 150.037 109.546C150.037 112.791 150.613 115.878 151.764 118.809C153.02 121.74 154.8 124.356 157.102 126.659L202.161 171.718C204.987 166.903 206.4 161.513 206.4 155.547V149.895H222.571V155.547H212.052C212.052 163.083 210.168 169.886 206.4 175.957L222.414 191.814H214.093L202.946 180.667C199.388 184.854 195.149 188.098 190.229 190.401C185.31 192.704 180.024 193.855 174.372 193.855C167.569 193.855 161.237 192.18 155.375 188.831C149.619 185.377 145.013 180.772 141.559 175.015C138.21 169.154 136.535 162.821 136.535 156.018C136.535 150.471 137.687 145.185 139.989 140.161C142.397 135.032 145.746 130.689 150.037 127.13C146.269 122.106 144.385 116.245 144.385 109.546C144.385 104.103 145.694 99.1317 148.31 94.631C151.032 90.0257 154.695 86.4147 159.3 83.798C163.906 81.0767 168.93 79.716 174.372 79.716C179.815 79.716 184.787 81.0767 189.287 83.798C193.893 86.4147 197.504 90.0257 200.12 94.631C202.842 99.1317 204.202 104.103 204.202 109.546ZM153.805 131.526C150.142 134.561 147.264 138.225 145.17 142.516C143.182 146.807 142.187 151.308 142.187 156.018C142.187 161.879 143.6 167.27 146.426 172.189C149.357 177.108 153.282 181.033 158.201 183.964C163.121 186.79 168.511 188.203 174.372 188.203C179.187 188.203 183.74 187.156 188.031 185.063C192.323 182.97 195.934 180.144 198.864 176.585L153.805 131.526Z" fill="white"/>
<path d="M201.847 121.007L200.009 120.219L199.999 120.242L199.99 120.264L201.847 121.007ZM195.41 130.741L193.996 132.155L195.41 133.569L196.824 132.155L195.41 130.741ZM191.328 126.659L189.914 125.245L188.5 126.659L189.914 128.073L191.328 126.659ZM196.509 118.809L194.671 118.021L194.659 118.049L194.648 118.078L196.509 118.809ZM195.096 97.457L193.348 98.4283L193.364 98.4574L193.381 98.486L195.096 97.457ZM186.304 88.665L185.275 90.38L185.304 90.3971L185.333 90.4133L186.304 88.665ZM162.126 88.665L161.118 86.9374L161.108 86.9437L161.097 86.95L162.126 88.665ZM153.334 97.457L151.619 96.428L151.619 96.428L153.334 97.457ZM151.764 118.809L149.903 119.54L149.914 119.569L149.926 119.597L151.764 118.809ZM157.102 126.659L155.688 128.073L155.688 128.073L157.102 126.659ZM202.161 171.718L200.747 173.132L202.576 174.962L203.886 172.73L202.161 171.718ZM206.4 149.895V147.895H204.4V149.895H206.4ZM222.571 149.895H224.571V147.895H222.571V149.895ZM222.571 155.547V157.547H224.571V155.547H222.571ZM212.052 155.547V153.547H210.052V155.547H212.052ZM206.4 175.957L204.701 174.902L203.86 176.257L204.993 177.378L206.4 175.957ZM222.414 191.814V193.814H227.276L223.821 190.393L222.414 191.814ZM214.093 191.814L212.679 193.228L213.265 193.814H214.093V191.814ZM202.946 180.667L204.36 179.253L202.827 177.719L201.422 179.372L202.946 180.667ZM190.229 190.401L189.381 188.59L189.381 188.59L190.229 190.401ZM155.375 188.831L154.346 190.546L154.364 190.557L154.383 190.567L155.375 188.831ZM141.559 175.015L139.823 176.007L139.833 176.026L139.844 176.044L141.559 175.015ZM139.989 140.161L138.179 139.311L138.175 139.319L138.171 139.328L139.989 140.161ZM150.037 127.13L151.314 128.67L152.78 127.454L151.637 125.93L150.037 127.13ZM148.31 94.631L146.588 93.6135L146.585 93.6196L146.581 93.6258L148.31 94.631ZM159.3 83.798L160.288 85.5369L160.303 85.5285L160.318 85.5198L159.3 83.798ZM189.287 83.798L188.252 85.5095L188.276 85.5235L188.299 85.5369L189.287 83.798ZM200.12 94.631L198.381 95.619L198.395 95.6426L198.409 95.6658L200.12 94.631ZM153.805 131.526L155.219 130.112L153.932 128.824L152.529 129.986L153.805 131.526ZM145.17 142.516L143.373 141.639L143.364 141.657L143.356 141.675L145.17 142.516ZM146.426 172.189L144.692 173.185L144.7 173.199L144.708 173.213L146.426 172.189ZM158.201 183.964L157.178 185.682L157.191 185.69L157.205 185.698L158.201 183.964ZM188.031 185.063L188.908 186.861L188.908 186.861L188.031 185.063ZM198.864 176.585L200.408 177.856L201.562 176.455L200.278 175.171L198.864 176.585ZM204.202 109.546H202.202C202.202 113.252 201.472 116.804 200.009 120.219L201.847 121.007L203.686 121.795C205.362 117.883 206.202 113.795 206.202 109.546H204.202ZM201.847 121.007L199.99 120.264C198.627 123.673 196.633 126.69 193.996 129.327L195.41 130.741L196.824 132.155C199.839 129.14 202.137 125.668 203.704 121.75L201.847 121.007ZM195.41 130.741L196.824 129.327L192.742 125.245L191.328 126.659L189.914 128.073L193.996 132.155L195.41 130.741ZM191.328 126.659L192.742 128.073C195.233 125.583 197.115 122.736 198.371 119.54L196.509 118.809L194.648 118.078C193.6 120.744 192.029 123.13 189.914 125.245L191.328 126.659ZM196.509 118.809L198.348 119.597C199.712 116.413 200.393 113.057 200.393 109.546H198.393H196.393C196.393 112.525 195.818 115.344 194.671 118.021L196.509 118.809ZM198.393 109.546H200.393C200.393 104.799 199.201 100.411 196.811 96.428L195.096 97.457L193.381 98.486C195.387 101.829 196.393 105.501 196.393 109.546H198.393ZM195.096 97.457L196.845 96.4857C194.57 92.3912 191.37 89.1914 187.276 86.9167L186.304 88.665L185.333 90.4133C188.774 92.3253 191.436 94.9868 193.348 98.4283L195.096 97.457ZM186.304 88.665L187.333 86.95C183.35 84.5599 178.963 83.368 174.215 83.368V85.368V87.368C178.26 87.368 181.932 88.3741 185.275 90.38L186.304 88.665ZM174.215 85.368V83.368C169.564 83.368 165.187 84.5641 161.118 86.9374L162.126 88.665L163.134 90.3926C166.601 88.3699 170.284 87.368 174.215 87.368V85.368ZM162.126 88.665L161.097 86.95C157.152 89.3169 153.986 92.4832 151.619 96.428L153.334 97.457L155.049 98.486C157.078 95.1042 159.773 92.4091 163.155 90.38L162.126 88.665ZM153.334 97.457L151.619 96.428C149.229 100.411 148.037 104.799 148.037 109.546H150.037H152.037C152.037 105.501 153.043 101.829 155.049 98.486L153.334 97.457ZM150.037 109.546H148.037C148.037 113.033 148.657 116.37 149.903 119.54L151.764 118.809L153.626 118.078C152.569 115.387 152.037 112.548 152.037 109.546H150.037ZM151.764 118.809L149.926 119.597C151.284 122.766 153.209 125.595 155.688 128.073L157.102 126.659L158.516 125.245C156.39 123.118 154.756 120.713 153.603 118.021L151.764 118.809ZM157.102 126.659L155.688 128.073L200.747 173.132L202.161 171.718L203.575 170.304L158.516 125.245L157.102 126.659ZM202.161 171.718L203.886 172.73C206.905 167.588 208.4 161.844 208.4 155.547H206.4H204.4C204.4 161.182 203.07 166.219 200.436 170.706L202.161 171.718ZM206.4 155.547H208.4V149.895H206.4H204.4V155.547H206.4ZM206.4 149.895V151.895H222.571V149.895V147.895H206.4V149.895ZM222.571 149.895H220.571V155.547H222.571H224.571V149.895H222.571ZM222.571 155.547V153.547H212.052V155.547V157.547H222.571V155.547ZM212.052 155.547H210.052C210.052 162.732 208.261 169.166 204.701 174.902L206.4 175.957L208.1 177.012C212.075 170.607 214.052 163.434 214.052 155.547H212.052ZM206.4 175.957L204.993 177.378L221.007 193.235L222.414 191.814L223.821 190.393L207.807 174.536L206.4 175.957ZM222.414 191.814V189.814H214.093V191.814V193.814H222.414V191.814ZM214.093 191.814L215.507 190.4L204.36 179.253L202.946 180.667L201.532 182.081L212.679 193.228L214.093 191.814ZM202.946 180.667L201.422 179.372C198.047 183.342 194.038 186.41 189.381 188.59L190.229 190.401L191.077 192.212C196.259 189.787 200.728 186.365 204.47 181.962L202.946 180.667ZM190.229 190.401L189.381 188.59C184.738 190.763 179.743 191.855 174.372 191.855V193.855V195.855C180.305 195.855 185.882 194.644 191.077 192.212L190.229 190.401ZM174.372 193.855V191.855C167.914 191.855 161.924 190.27 156.367 187.095L155.375 188.831L154.383 190.567C160.549 194.091 167.224 195.855 174.372 195.855V193.855ZM155.375 188.831L156.404 187.116C150.929 183.831 146.559 179.461 143.274 173.986L141.559 175.015L139.844 176.044C143.467 182.082 148.308 186.923 154.346 190.546L155.375 188.831ZM141.559 175.015L143.296 174.023C140.12 168.466 138.535 162.476 138.535 156.018H136.535H134.535C134.535 163.167 136.299 169.841 139.823 176.007L141.559 175.015ZM136.535 156.018H138.535C138.535 150.757 139.625 145.756 141.807 140.994L139.989 140.161L138.171 139.328C135.748 144.614 134.535 150.184 134.535 156.018H136.535ZM139.989 140.161L141.8 141.011C144.084 136.144 147.253 132.037 151.314 128.67L150.037 127.13L148.761 125.59C144.239 129.34 140.709 133.921 138.179 139.311L139.989 140.161ZM150.037 127.13L151.637 125.93C148.147 121.276 146.385 115.843 146.385 109.546H144.385H142.385C142.385 116.647 144.392 122.936 148.437 128.33L150.037 127.13ZM144.385 109.546H146.385C146.385 104.44 147.608 99.8175 150.039 95.6362L148.31 94.631L146.581 93.6258C143.779 98.4458 142.385 103.767 142.385 109.546H144.385ZM148.31 94.631L150.032 95.6485C152.578 91.3404 155.989 87.9794 160.288 85.5369L159.3 83.798L158.312 82.0591C153.4 84.8499 149.485 88.711 146.588 93.6135L148.31 94.631ZM159.3 83.798L160.318 85.5198C164.609 82.9839 169.281 81.716 174.372 81.716V79.716V77.716C168.578 77.716 163.202 79.1694 158.283 82.0761L159.3 83.798ZM174.372 79.716V81.716C179.463 81.716 184.075 82.9837 188.252 85.5095L189.287 83.798L190.322 82.0865C185.498 79.1697 180.166 77.716 174.372 77.716V79.716ZM189.287 83.798L188.299 85.5369C192.591 87.9755 195.943 91.3271 198.381 95.619L200.12 94.631L201.859 93.643C199.064 88.7243 195.194 84.8538 190.275 82.0591L189.287 83.798ZM200.12 94.631L198.409 95.6658C200.935 99.8431 202.202 104.455 202.202 109.546H204.202H206.202C206.202 103.752 204.749 98.4202 201.832 93.5962L200.12 94.631ZM153.805 131.526L152.529 129.986C148.646 133.203 145.59 137.093 143.373 141.639L145.17 142.516L146.968 143.393C148.937 139.356 151.638 135.919 155.081 133.066L153.805 131.526ZM145.17 142.516L143.356 141.675C141.245 146.229 140.187 151.016 140.187 156.018H142.187H144.187C144.187 151.6 145.118 147.386 146.985 143.357L145.17 142.516ZM142.187 156.018H140.187C140.187 162.217 141.686 167.952 144.692 173.185L146.426 172.189L148.16 171.193C145.515 166.587 144.187 161.542 144.187 156.018H142.187ZM146.426 172.189L144.708 173.213C147.809 178.418 151.973 182.581 157.178 185.682L158.201 183.964L159.225 182.246C154.591 179.485 150.905 175.799 148.144 171.165L146.426 172.189ZM158.201 183.964L157.205 185.698C162.438 188.704 168.173 190.203 174.372 190.203V188.203V186.203C168.848 186.203 163.803 184.876 159.197 182.23L158.201 183.964ZM174.372 188.203V190.203C179.488 190.203 184.341 189.088 188.908 186.861L188.031 185.063L187.154 183.265C183.139 185.224 178.886 186.203 174.372 186.203V188.203ZM188.031 185.063L188.908 186.861C193.447 184.646 197.289 181.644 200.408 177.856L198.864 176.585L197.32 175.314C194.578 178.643 191.198 181.293 187.154 183.265L188.031 185.063ZM198.864 176.585L200.278 175.171L155.219 130.112L153.805 131.526L152.391 132.94L197.45 177.999L198.864 176.585Z" fill="black" mask="url(#path-3-inside-1_105_154)"/>
</g>
<defs>
<filter id="filter0_d_105_154" x="132.415" y="48.5" width="94.1566" height="168" filterUnits="userSpaceOnUse" color-interpolation-filters="sRGB">
<feFlood flood-opacity="0" result="BackgroundImageFix"/>
<feColorMatrix in="SourceAlpha" type="matrix" values="0 0 0 0 0 0 0 0 0 0 0 0 0 0 0 0 0 0 127 0" result="hardAlpha"/>
<feOffset dy="4"/>
<feGaussianBlur stdDeviation="2"/>
<feComposite in2="hardAlpha" operator="out"/>
<feColorMatrix type="matrix" values="0 0 0 0 0 0 0 0 0 0 0 0 0 0 0 0 0 0 0.25 0"/>
<feBlend mode="normal" in2="BackgroundImageFix" result="effect1_dropShadow_105_154"/>
<feBlend mode="normal" in="SourceGraphic" in2="effect1_dropShadow_105_154" result="shape"/>
</filter>
</defs>
</svg>
