<svg width="300" height="169" viewBox="0 0 300 169" fill="none" xmlns="http://www.w3.org/2000/svg">
<mask id="path-1-inside-1_105_112" fill="white">
<path d="M134.064 104.332C134.219 124.594 128.419 140.447 116.664 151.892C104.909 163.183 88.7466 168.828 68.1759 168.828C55.9573 168.828 44.6666 166.044 34.3039 160.476C24.0959 154.908 15.9759 147.02 9.94393 136.812C3.91192 126.604 0.895924 114.85 0.895924 101.548V67.6763C0.895924 54.5296 3.75726 42.8523 9.47992 32.6443C15.3573 22.4363 23.3226 14.5483 33.3759 8.98026C43.5839 3.25759 54.9519 0.396261 67.4799 0.396261C88.0506 0.396261 104.136 6.0416 115.736 17.3323C127.491 28.4683 133.445 44.2443 133.6 64.6603H91.8399C91.6853 56.7723 89.5199 50.6629 85.3439 46.3323C81.3226 42.0016 75.3679 39.8363 67.4799 39.8363C60.3653 39.8363 54.4879 42.0789 49.8479 46.5643C45.2079 51.0496 42.8879 57.3909 42.8879 65.5883V103.404C42.8879 111.602 45.2853 118.02 50.0799 122.66C55.0293 127.146 61.0613 129.388 68.1759 129.388C84.4159 129.388 92.5359 121.036 92.5359 104.332H134.064ZM182.91 83.3943C182.91 87.3716 182.125 91.1919 180.555 94.8553C179.09 98.5186 176.944 101.763 174.118 104.589L170.036 100.507C172.339 98.2046 174.066 95.5879 175.217 92.6573C176.473 89.7266 177.101 86.6389 177.101 83.3943C177.101 78.9983 176.002 74.9686 173.804 71.3053C171.711 67.5373 168.78 64.6066 165.012 62.5133C161.349 60.3153 157.319 59.2163 152.923 59.2163C148.632 59.2163 144.602 60.3153 140.834 62.5133C137.171 64.7113 134.24 67.6419 132.042 71.3053C129.844 74.9686 128.745 78.9983 128.745 83.3943C128.745 86.6389 129.321 89.7266 130.472 92.6573C131.728 95.5879 133.508 98.2046 135.81 100.507L180.869 145.566C183.695 140.752 185.108 135.361 185.108 129.395V123.743H201.279V129.395H190.76C190.76 136.931 188.876 143.735 185.108 149.805L201.122 165.662H192.801L181.654 154.515C178.096 158.702 173.857 161.947 168.937 164.249C164.018 166.552 158.732 167.703 153.08 167.703C146.277 167.703 139.945 166.029 134.083 162.679C128.327 159.225 123.721 154.62 120.267 148.863C116.918 143.002 115.243 136.67 115.243 129.866C115.243 124.319 116.395 119.033 118.697 114.009C121.105 108.881 124.454 104.537 128.745 100.978C124.977 95.9543 123.093 90.0929 123.093 83.3943C123.093 77.9516 124.402 72.9799 127.018 68.4793C129.74 63.8739 133.403 60.2629 138.008 57.6463C142.614 54.9249 147.638 53.5643 153.08 53.5643C158.523 53.5643 163.495 54.9249 167.995 57.6463C172.601 60.2629 176.212 63.8739 178.828 68.4793C181.55 72.9799 182.91 77.9516 182.91 83.3943ZM132.513 105.374C128.85 108.41 125.972 112.073 123.878 116.364C121.89 120.656 120.895 125.156 120.895 129.866C120.895 135.728 122.308 141.118 125.134 146.037C128.065 150.957 131.99 154.882 136.909 157.812C141.829 160.638 147.219 162.051 153.08 162.051C157.895 162.051 162.448 161.005 166.739 158.911C171.031 156.818 174.642 153.992 177.572 150.433L132.513 105.374ZM299.575 104.332C299.73 124.594 293.93 140.447 282.175 151.892C270.42 163.183 254.258 168.828 233.687 168.828C221.468 168.828 210.178 166.044 199.815 160.476C189.607 154.908 181.487 147.02 175.455 136.812C169.423 126.604 166.407 114.85 166.407 101.548V67.6763C166.407 54.5296 169.268 42.8523 174.991 32.6443C180.868 22.4363 188.834 14.5483 198.887 8.98026C209.095 3.25759 220.463 0.396261 232.991 0.396261C253.562 0.396261 269.647 6.0416 281.247 17.3323C293.002 28.4683 298.956 44.2443 299.111 64.6603H257.351C257.196 56.7723 255.031 50.6629 250.855 46.3323C246.834 42.0016 240.879 39.8363 232.991 39.8363C225.876 39.8363 219.999 42.0789 215.359 46.5643C210.719 51.0496 208.399 57.3909 208.399 65.5883V103.404C208.399 111.602 210.796 118.02 215.591 122.66C220.54 127.146 226.572 129.388 233.687 129.388C249.927 129.388 258.047 121.036 258.047 104.332H299.575Z"/>
</mask>
<path d="M134.064 104.332C134.219 124.594 128.419 140.447 116.664 151.892C104.909 163.183 88.7466 168.828 68.1759 168.828C55.9573 168.828 44.6666 166.044 34.3039 160.476C24.0959 154.908 15.9759 147.02 9.94393 136.812C3.91192 126.604 0.895924 114.85 0.895924 101.548V67.6763C0.895924 54.5296 3.75726 42.8523 9.47992 32.6443C15.3573 22.4363 23.3226 14.5483 33.3759 8.98026C43.5839 3.25759 54.9519 0.396261 67.4799 0.396261C88.0506 0.396261 104.136 6.0416 115.736 17.3323C127.491 28.4683 133.445 44.2443 133.6 64.6603H91.8399C91.6853 56.7723 89.5199 50.6629 85.3439 46.3323C81.3226 42.0016 75.3679 39.8363 67.4799 39.8363C60.3653 39.8363 54.4879 42.0789 49.8479 46.5643C45.2079 51.0496 42.8879 57.3909 42.8879 65.5883V103.404C42.8879 111.602 45.2853 118.02 50.0799 122.66C55.0293 127.146 61.0613 129.388 68.1759 129.388C84.4159 129.388 92.5359 121.036 92.5359 104.332H134.064ZM182.91 83.3943C182.91 87.3716 182.125 91.1919 180.555 94.8553C179.09 98.5186 176.944 101.763 174.118 104.589L170.036 100.507C172.339 98.2046 174.066 95.5879 175.217 92.6573C176.473 89.7266 177.101 86.6389 177.101 83.3943C177.101 78.9983 176.002 74.9686 173.804 71.3053C171.711 67.5373 168.78 64.6066 165.012 62.5133C161.349 60.3153 157.319 59.2163 152.923 59.2163C148.632 59.2163 144.602 60.3153 140.834 62.5133C137.171 64.7113 134.24 67.6419 132.042 71.3053C129.844 74.9686 128.745 78.9983 128.745 83.3943C128.745 86.6389 129.321 89.7266 130.472 92.6573C131.728 95.5879 133.508 98.2046 135.81 100.507L180.869 145.566C183.695 140.752 185.108 135.361 185.108 129.395V123.743H201.279V129.395H190.76C190.76 136.931 188.876 143.735 185.108 149.805L201.122 165.662H192.801L181.654 154.515C178.096 158.702 173.857 161.947 168.937 164.249C164.018 166.552 158.732 167.703 153.08 167.703C146.277 167.703 139.945 166.029 134.083 162.679C128.327 159.225 123.721 154.62 120.267 148.863C116.918 143.002 115.243 136.67 115.243 129.866C115.243 124.319 116.395 119.033 118.697 114.009C121.105 108.881 124.454 104.537 128.745 100.978C124.977 95.9543 123.093 90.0929 123.093 83.3943C123.093 77.9516 124.402 72.9799 127.018 68.4793C129.74 63.8739 133.403 60.2629 138.008 57.6463C142.614 54.9249 147.638 53.5643 153.08 53.5643C158.523 53.5643 163.495 54.9249 167.995 57.6463C172.601 60.2629 176.212 63.8739 178.828 68.4793C181.55 72.9799 182.91 77.9516 182.91 83.3943ZM132.513 105.374C128.85 108.41 125.972 112.073 123.878 116.364C121.89 120.656 120.895 125.156 120.895 129.866C120.895 135.728 122.308 141.118 125.134 146.037C128.065 150.957 131.99 154.882 136.909 157.812C141.829 160.638 147.219 162.051 153.08 162.051C157.895 162.051 162.448 161.005 166.739 158.911C171.031 156.818 174.642 153.992 177.572 150.433L132.513 105.374ZM299.575 104.332C299.73 124.594 293.93 140.447 282.175 151.892C270.42 163.183 254.258 168.828 233.687 168.828C221.468 168.828 210.178 166.044 199.815 160.476C189.607 154.908 181.487 147.02 175.455 136.812C169.423 126.604 166.407 114.85 166.407 101.548V67.6763C166.407 54.5296 169.268 42.8523 174.991 32.6443C180.868 22.4363 188.834 14.5483 198.887 8.98026C209.095 3.25759 220.463 0.396261 232.991 0.396261C253.562 0.396261 269.647 6.0416 281.247 17.3323C293.002 28.4683 298.956 44.2443 299.111 64.6603H257.351C257.196 56.7723 255.031 50.6629 250.855 46.3323C246.834 42.0016 240.879 39.8363 232.991 39.8363C225.876 39.8363 219.999 42.0789 215.359 46.5643C210.719 51.0496 208.399 57.3909 208.399 65.5883V103.404C208.399 111.602 210.796 118.02 215.591 122.66C220.54 127.146 226.572 129.388 233.687 129.388C249.927 129.388 258.047 121.036 258.047 104.332H299.575Z" fill="white"/>
<path d="M134.064 104.332L136.064 104.317L136.049 102.332H134.064V104.332ZM116.664 151.892L118.049 153.335L118.059 153.325L116.664 151.892ZM34.3039 160.476L33.3462 162.232L33.3573 162.238L34.3039 160.476ZM9.94393 136.812L8.22207 137.83L8.22207 137.83L9.94393 136.812ZM9.47992 32.6443L7.74668 31.6463L7.74096 31.6563L7.73536 31.6662L9.47992 32.6443ZM33.3759 8.98026L34.3449 10.7299L34.3539 10.7248L33.3759 8.98026ZM115.736 17.3323L114.341 18.7655L114.351 18.7749L114.36 18.7842L115.736 17.3323ZM133.6 64.6603V66.6603H135.615L135.6 64.6451L133.6 64.6603ZM91.8399 64.6603L89.8403 64.6995L89.8788 66.6603H91.8399V64.6603ZM85.3439 46.3323L83.8783 47.6932L83.8912 47.707L83.9042 47.7205L85.3439 46.3323ZM49.8479 46.5643L48.4579 45.1263L48.4579 45.1263L49.8479 46.5643ZM50.0799 122.66L48.6891 124.097L48.7126 124.12L48.7369 124.142L50.0799 122.66ZM92.5359 104.332V102.332H90.5359V104.332H92.5359ZM134.064 104.332L132.064 104.348C132.216 124.201 126.545 139.48 115.269 150.459L116.664 151.892L118.059 153.325C130.292 141.414 136.222 124.987 136.064 104.317L134.064 104.332ZM116.664 151.892L115.278 150.45C103.987 161.295 88.3718 166.828 68.1759 166.828V168.828V170.828C89.1214 170.828 105.831 165.071 118.049 153.335L116.664 151.892ZM68.1759 168.828V166.828C56.2744 166.828 45.3107 164.12 35.2506 158.714L34.3039 160.476L33.3573 162.238C44.0224 167.969 55.6401 170.828 68.1759 170.828V168.828ZM34.3039 160.476L35.2616 158.72C25.3768 153.329 17.5181 145.699 11.6658 135.795L9.94393 136.812L8.22207 137.83C14.4338 148.342 22.8151 156.488 33.3462 162.232L34.3039 160.476ZM9.94393 136.812L11.6658 135.795C5.8373 125.931 2.89592 114.536 2.89592 101.548H0.895924H-1.10408C-1.10408 115.163 1.98654 127.277 8.22207 137.83L9.94393 136.812ZM0.895924 101.548H2.89592V67.6763H0.895924H-1.10408V101.548H0.895924ZM0.895924 67.6763H2.89592C2.89592 54.829 5.68916 43.4961 11.2245 33.6223L9.47992 32.6443L7.73536 31.6662C1.82535 42.2084 -1.10408 54.2301 -1.10408 67.6763H0.895924ZM9.47992 32.6443L11.2132 33.6422C16.9137 23.7413 24.6182 16.1169 34.3449 10.7298L33.3759 8.98026L32.4069 7.23068C22.0269 12.9796 13.8009 21.1312 7.74668 31.6463L9.47992 32.6443ZM33.3759 8.98026L34.3539 10.7248C44.2422 5.18142 55.2695 2.39626 67.4799 2.39626V0.396261V-1.60374C54.6344 -1.60374 42.9257 1.33376 32.3979 7.2357L33.3759 8.98026ZM67.4799 0.396261V2.39626C87.6771 2.39626 103.208 7.9296 114.341 18.7655L115.736 17.3323L117.131 15.8991C105.064 4.15359 88.4241 -1.60374 67.4799 -1.60374V0.396261ZM115.736 17.3323L114.36 18.7842C125.623 29.4539 131.448 44.6529 131.6 64.6754L133.6 64.6603L135.6 64.6451C135.442 43.8356 129.358 27.4826 117.111 15.8804L115.736 17.3323ZM133.6 64.6603V62.6603H91.8399V64.6603V66.6603H133.6V64.6603ZM91.8399 64.6603L93.8395 64.6211C93.6782 56.3902 91.4075 49.7392 86.7836 44.944L85.3439 46.3323L83.9042 47.7205C87.6323 51.5867 89.6924 57.1544 89.8403 64.6995L91.8399 64.6603ZM85.3439 46.3323L86.8095 44.9714C82.2951 40.1097 75.7295 37.8363 67.4799 37.8363V39.8363V41.8363C75.0063 41.8363 80.3501 43.8935 83.8783 47.6932L85.3439 46.3323ZM67.4799 39.8363V37.8363C59.9046 37.8363 53.5106 40.242 48.4579 45.1263L49.8479 46.5643L51.238 48.0022C55.4653 43.9158 60.8259 41.8363 67.4799 41.8363V39.8363ZM49.8479 46.5643L48.4579 45.1263C43.3293 50.0839 40.8879 57.0035 40.8879 65.5883H42.8879H44.8879C44.8879 57.7784 47.0866 52.0153 51.238 48.0022L49.8479 46.5643ZM42.8879 65.5883H40.8879V103.404H42.8879H44.8879V65.5883H42.8879ZM42.8879 103.404H40.8879C40.8879 112.011 43.4193 118.998 48.6891 124.097L50.0799 122.66L51.4708 121.223C47.1512 117.043 44.8879 111.192 44.8879 103.404H42.8879ZM50.0799 122.66L48.7369 124.142C54.0795 128.984 60.6001 131.388 68.1759 131.388V129.388V127.388C61.5224 127.388 55.9791 125.307 51.423 121.178L50.0799 122.66ZM68.1759 129.388V131.388C76.6187 131.388 83.3148 129.214 87.8799 124.518C92.4348 119.833 94.5359 112.979 94.5359 104.332H92.5359H90.5359C90.5359 112.39 88.577 118.063 85.0119 121.73C81.457 125.387 75.9731 127.388 68.1759 127.388V129.388ZM92.5359 104.332V106.332H134.064V104.332V102.332H92.5359V104.332ZM180.555 94.8553L178.717 94.0674L178.707 94.0898L178.698 94.1125L180.555 94.8553ZM174.118 104.589L172.704 106.003L174.118 107.418L175.533 106.003L174.118 104.589ZM170.036 100.507L168.622 99.0931L167.208 100.507L168.622 101.921L170.036 100.507ZM175.217 92.6573L173.379 91.8694L173.367 91.8975L173.356 91.926L175.217 92.6573ZM173.804 71.3053L172.056 72.2765L172.072 72.3057L172.089 72.3343L173.804 71.3053ZM165.012 62.5133L163.983 64.2282L164.012 64.2454L164.041 64.2616L165.012 62.5133ZM140.834 62.5133L139.827 60.7857L139.816 60.7919L139.805 60.7983L140.834 62.5133ZM132.042 71.3053L130.327 70.2763L130.327 70.2763L132.042 71.3053ZM130.472 92.6573L128.611 93.3886L128.622 93.417L128.634 93.4451L130.472 92.6573ZM135.81 100.507L134.396 101.921L134.396 101.921L135.81 100.507ZM180.869 145.566L179.455 146.98L181.285 148.81L182.594 146.579L180.869 145.566ZM185.108 123.743V121.743H183.108V123.743H185.108ZM201.279 123.743H203.279V121.743H201.279V123.743ZM201.279 129.395V131.395H203.279V129.395H201.279ZM190.76 129.395V127.395H188.76V129.395H190.76ZM185.108 149.805L183.409 148.751L182.568 150.105L183.701 151.226L185.108 149.805ZM201.122 165.662V167.662H205.985L202.53 164.241L201.122 165.662ZM192.801 165.662L191.387 167.076L191.973 167.662H192.801V165.662ZM181.654 154.515L183.069 153.101L181.535 151.568L180.13 153.22L181.654 154.515ZM168.937 164.249L168.089 162.438L168.089 162.438L168.937 164.249ZM134.083 162.679L133.054 164.394L133.073 164.405L133.091 164.416L134.083 162.679ZM120.267 148.863L118.531 149.856L118.541 149.874L118.552 149.892L120.267 148.863ZM118.697 114.009L116.887 113.159L116.883 113.168L116.879 113.176L118.697 114.009ZM128.745 100.978L130.022 102.518L131.488 101.302L130.345 99.7783L128.745 100.978ZM127.018 68.4793L125.296 67.4618L125.293 67.4679L125.289 67.474L127.018 68.4793ZM138.008 57.6463L138.996 59.3852L139.011 59.3768L139.026 59.3681L138.008 57.6463ZM167.995 57.6463L166.96 59.3577L166.984 59.3718L167.007 59.3852L167.995 57.6463ZM178.828 68.4793L177.089 69.4673L177.103 69.4909L177.117 69.5141L178.828 68.4793ZM132.513 105.374L133.928 103.96L132.64 102.672L131.237 103.834L132.513 105.374ZM123.878 116.364L122.081 115.487L122.072 115.505L122.064 115.523L123.878 116.364ZM125.134 146.037L123.4 147.034L123.408 147.047L123.416 147.061L125.134 146.037ZM136.909 157.812L135.886 159.53L135.899 159.539L135.913 159.546L136.909 157.812ZM166.739 158.911L167.616 160.709L167.616 160.709L166.739 158.911ZM177.572 150.433L179.116 151.705L180.27 150.303L178.987 149.019L177.572 150.433ZM182.91 83.3943H180.91C180.91 87.1002 180.181 90.6525 178.717 94.0674L180.555 94.8553L182.394 95.6431C184.07 91.7313 184.91 87.643 184.91 83.3943H182.91ZM180.555 94.8553L178.698 94.1125C177.335 97.521 175.341 100.538 172.704 103.175L174.118 104.589L175.533 106.003C178.547 102.988 180.845 99.5162 182.412 95.598L180.555 94.8553ZM174.118 104.589L175.533 103.175L171.451 99.093L170.036 100.507L168.622 101.921L172.704 106.003L174.118 104.589ZM170.036 100.507L171.451 101.921C173.941 99.4312 175.823 96.584 177.079 93.3886L175.217 92.6573L173.356 91.926C172.308 94.5918 170.737 96.978 168.622 99.0931L170.036 100.507ZM175.217 92.6573L177.056 93.4451C178.42 90.261 179.101 86.9049 179.101 83.3943H177.101H175.101C175.101 86.373 174.526 89.1922 173.379 91.8694L175.217 92.6573ZM177.101 83.3943H179.101C179.101 78.6468 177.909 74.2598 175.519 70.2763L173.804 71.3053L172.089 72.3343C174.095 75.6774 175.101 79.3497 175.101 83.3943H177.101ZM173.804 71.3053L175.553 70.334C173.278 66.2395 170.078 63.0397 165.984 60.7649L165.012 62.5133L164.041 64.2616C167.483 66.1735 170.144 68.835 172.056 72.2765L173.804 71.3053ZM165.012 62.5133L166.041 60.7983C162.058 58.4082 157.671 57.2163 152.923 57.2163V59.2163V61.2163C156.968 61.2163 160.64 62.2223 163.983 64.2282L165.012 62.5133ZM152.923 59.2163V57.2163C148.272 57.2163 143.895 58.4124 139.827 60.7857L140.834 62.5133L141.842 64.2408C145.309 62.2181 148.992 61.2163 152.923 61.2163V59.2163ZM140.834 62.5133L139.805 60.7983C135.86 63.1652 132.694 66.3314 130.327 70.2763L132.042 71.3053L133.757 72.3343C135.786 68.9524 138.481 66.2574 141.863 64.2282L140.834 62.5133ZM132.042 71.3053L130.327 70.2763C127.937 74.2598 126.745 78.6468 126.745 83.3943H128.745H130.745C130.745 79.3497 131.751 75.6774 133.757 72.3343L132.042 71.3053ZM128.745 83.3943H126.745C126.745 86.8814 127.365 90.2178 128.611 93.3886L130.472 92.6573L132.334 91.926C131.277 89.2354 130.745 86.3964 130.745 83.3943H128.745ZM130.472 92.6573L128.634 93.4451C129.992 96.6147 131.917 99.4428 134.396 101.921L135.81 100.507L137.225 99.0931C135.098 96.9664 133.464 94.5612 132.311 91.8694L130.472 92.6573ZM135.81 100.507L134.396 101.921L179.455 146.98L180.869 145.566L182.284 144.152L137.225 99.0931L135.81 100.507ZM180.869 145.566L182.594 146.579C185.613 141.436 187.108 135.692 187.108 129.395H185.108H183.108C183.108 135.031 181.778 140.067 179.144 144.554L180.869 145.566ZM185.108 129.395H187.108V123.743H185.108H183.108V129.395H185.108ZM185.108 123.743V125.743H201.279V123.743V121.743H185.108V123.743ZM201.279 123.743H199.279V129.395H201.279H203.279V123.743H201.279ZM201.279 129.395V127.395H190.76V129.395V131.395H201.279V129.395ZM190.76 129.395H188.76C188.76 136.58 186.97 143.014 183.409 148.751L185.108 149.805L186.808 150.86C190.783 144.455 192.76 137.283 192.76 129.395H190.76ZM185.108 149.805L183.701 151.226L199.715 167.083L201.122 165.662L202.53 164.241L186.516 148.384L185.108 149.805ZM201.122 165.662V163.662H192.801V165.662V167.662H201.122V165.662ZM192.801 165.662L194.216 164.248L183.069 153.101L181.654 154.515L180.24 155.929L191.387 167.076L192.801 165.662ZM181.654 154.515L180.13 153.22C176.755 157.191 172.746 160.258 168.089 162.438L168.937 164.249L169.785 166.061C174.967 163.635 179.436 160.213 183.178 155.811L181.654 154.515ZM168.937 164.249L168.089 162.438C163.446 164.611 158.451 165.703 153.08 165.703V167.703V169.703C159.013 169.703 164.59 168.493 169.785 166.061L168.937 164.249ZM153.08 167.703V165.703C146.622 165.703 140.632 164.118 135.076 160.943L134.083 162.679L133.091 164.416C139.257 167.939 145.932 169.703 153.08 169.703V167.703ZM134.083 162.679L135.112 160.964C129.637 157.679 125.267 153.309 121.982 147.834L120.267 148.863L118.552 149.892C122.175 155.93 127.016 160.771 133.054 164.394L134.083 162.679ZM120.267 148.863L122.004 147.871C118.829 142.314 117.243 136.324 117.243 129.866H115.243H113.243C113.243 137.015 115.007 143.69 118.531 149.856L120.267 148.863ZM115.243 129.866H117.243C117.243 124.605 118.333 119.604 120.515 114.843L118.697 114.009L116.879 113.176C114.456 118.462 113.243 124.032 113.243 129.866H115.243ZM118.697 114.009L120.508 114.859C122.792 109.992 125.961 105.885 130.022 102.518L128.745 100.978L127.469 99.4387C122.947 103.188 119.417 107.769 116.887 113.159L118.697 114.009ZM128.745 100.978L130.345 99.7783C126.855 95.1242 125.093 89.6909 125.093 83.3943H123.093H121.093C121.093 90.495 123.1 96.7843 127.145 102.178L128.745 100.978ZM123.093 83.3943H125.093C125.093 78.288 126.316 73.6657 128.747 69.4845L127.018 68.4793L125.289 67.474C122.487 72.2941 121.093 77.6152 121.093 83.3943H123.093ZM127.018 68.4793L128.74 69.4967C131.286 65.1886 134.697 61.8277 138.996 59.3852L138.008 57.6463L137.02 55.9073C132.108 58.6982 128.193 62.5592 125.296 67.4618L127.018 68.4793ZM138.008 57.6463L139.026 59.3681C143.317 56.8322 147.989 55.5643 153.08 55.5643V53.5643V51.5643C147.286 51.5643 141.91 53.0177 136.991 55.9244L138.008 57.6463ZM153.08 53.5643V55.5643C158.171 55.5643 162.783 56.8319 166.96 59.3577L167.995 57.6463L169.03 55.9348C164.206 53.0179 158.874 51.5643 153.08 51.5643V53.5643ZM167.995 57.6463L167.007 59.3852C171.299 61.8238 174.651 65.1753 177.089 69.4673L178.828 68.4793L180.567 67.4912C177.772 62.5725 173.902 58.7021 168.983 55.9073L167.995 57.6463ZM178.828 68.4793L177.117 69.5141C179.643 73.6914 180.91 78.3031 180.91 83.3943H182.91H184.91C184.91 77.6001 183.457 72.2685 180.54 67.4444L178.828 68.4793ZM132.513 105.374L131.237 103.834C127.354 107.052 124.298 110.941 122.081 115.487L123.878 116.364L125.676 117.241C127.645 113.204 130.346 109.767 133.789 106.914L132.513 105.374ZM123.878 116.364L122.064 115.523C119.953 120.077 118.895 124.865 118.895 129.866H120.895H122.895C122.895 125.448 123.826 121.234 125.693 117.205L123.878 116.364ZM120.895 129.866H118.895C118.895 136.065 120.394 141.801 123.4 147.034L125.134 146.037L126.869 145.041C124.223 140.435 122.895 135.39 122.895 129.866H120.895ZM125.134 146.037L123.416 147.061C126.517 152.266 130.681 156.43 135.886 159.53L136.909 157.812L137.933 156.094C133.299 153.334 129.613 149.647 126.853 145.014L125.134 146.037ZM136.909 157.812L135.913 159.546C141.146 162.553 146.881 164.051 153.08 164.051V162.051V160.051C147.556 160.051 142.511 158.724 137.906 156.078L136.909 157.812ZM153.08 162.051V164.051C158.196 164.051 163.049 162.937 167.616 160.709L166.739 158.911L165.862 157.114C161.847 159.073 157.594 160.051 153.08 160.051V162.051ZM166.739 158.911L167.616 160.709C172.155 158.494 175.997 155.492 179.116 151.705L177.572 150.433L176.028 149.162C173.286 152.491 169.906 155.141 165.862 157.114L166.739 158.911ZM177.572 150.433L178.987 149.019L133.928 103.96L132.513 105.374L131.099 106.788L176.158 151.847L177.572 150.433ZM299.575 104.332L301.575 104.317L301.56 102.332H299.575V104.332ZM282.175 151.892L283.561 153.335L283.57 153.325L282.175 151.892ZM199.815 160.476L198.857 162.232L198.868 162.238L199.815 160.476ZM175.455 136.812L173.733 137.83L173.733 137.83L175.455 136.812ZM174.991 32.6443L173.258 31.6463L173.252 31.6563L173.247 31.6662L174.991 32.6443ZM198.887 8.98026L199.856 10.7299L199.865 10.7248L198.887 8.98026ZM281.247 17.3323L279.852 18.7655L279.862 18.7749L279.872 18.7842L281.247 17.3323ZM299.111 64.6603V66.6603H301.126L301.111 64.6451L299.111 64.6603ZM257.351 64.6603L255.351 64.6995L255.39 66.6603H257.351V64.6603ZM250.855 46.3323L249.39 47.6932L249.402 47.707L249.415 47.7205L250.855 46.3323ZM215.359 46.5643L213.969 45.1263L213.969 45.1263L215.359 46.5643ZM215.591 122.66L214.2 124.097L214.224 124.12L214.248 124.142L215.591 122.66ZM258.047 104.332V102.332H256.047V104.332H258.047ZM299.575 104.332L297.575 104.348C297.727 124.201 292.056 139.48 280.78 150.459L282.175 151.892L283.57 153.325C295.804 141.414 301.733 124.987 301.575 104.317L299.575 104.332ZM282.175 151.892L280.79 150.45C269.498 161.295 253.883 166.828 233.687 166.828V168.828V170.828C254.633 170.828 271.342 165.071 283.561 153.335L282.175 151.892ZM233.687 168.828V166.828C221.786 166.828 210.822 164.12 200.762 158.714L199.815 160.476L198.868 162.238C209.534 167.969 221.151 170.828 233.687 170.828V168.828ZM199.815 160.476L200.773 158.72C190.888 153.329 183.029 145.699 177.177 135.795L175.455 136.812L173.733 137.83C179.945 148.342 188.326 156.488 198.857 162.232L199.815 160.476ZM175.455 136.812L177.177 135.795C171.348 125.931 168.407 114.536 168.407 101.548H166.407H164.407C164.407 115.163 167.498 127.277 173.733 137.83L175.455 136.812ZM166.407 101.548H168.407V67.6763H166.407H164.407V101.548H166.407ZM166.407 67.6763H168.407C168.407 54.829 171.2 43.4961 176.736 33.6223L174.991 32.6443L173.247 31.6662C167.337 42.2084 164.407 54.2301 164.407 67.6763H166.407ZM174.991 32.6443L176.724 33.6422C182.425 23.7413 190.129 16.1169 199.856 10.7298L198.887 8.98026L197.918 7.23068C187.538 12.9796 179.312 21.1312 173.258 31.6463L174.991 32.6443ZM198.887 8.98026L199.865 10.7248C209.753 5.18142 220.781 2.39626 232.991 2.39626V0.396261V-1.60374C220.146 -1.60374 208.437 1.33376 197.909 7.2357L198.887 8.98026ZM232.991 0.396261V2.39626C253.188 2.39626 268.719 7.9296 279.852 18.7655L281.247 17.3323L282.642 15.8991C270.575 4.15359 253.935 -1.60374 232.991 -1.60374V0.396261ZM281.247 17.3323L279.872 18.7842C291.134 29.4539 296.959 44.6529 297.111 64.6754L299.111 64.6603L301.111 64.6451C300.953 43.8356 294.869 27.4826 282.623 15.8804L281.247 17.3323ZM299.111 64.6603V62.6603H257.351V64.6603V66.6603H299.111V64.6603ZM257.351 64.6603L259.351 64.6211C259.189 56.3902 256.919 49.7392 252.295 44.944L250.855 46.3323L249.415 47.7205C253.143 51.5867 255.204 57.1544 255.351 64.6995L257.351 64.6603ZM250.855 46.3323L252.321 44.9714C247.806 40.1097 241.241 37.8363 232.991 37.8363V39.8363V41.8363C240.517 41.8363 245.861 43.8935 249.39 47.6932L250.855 46.3323ZM232.991 39.8363V37.8363C225.416 37.8363 219.022 40.242 213.969 45.1263L215.359 46.5643L216.749 48.0022C220.976 43.9158 226.337 41.8363 232.991 41.8363V39.8363ZM215.359 46.5643L213.969 45.1263C208.84 50.0839 206.399 57.0035 206.399 65.5883H208.399H210.399C210.399 57.7784 212.598 52.0153 216.749 48.0022L215.359 46.5643ZM208.399 65.5883H206.399V103.404H208.399H210.399V65.5883H208.399ZM208.399 103.404H206.399C206.399 112.011 208.93 118.998 214.2 124.097L215.591 122.66L216.982 121.223C212.662 117.043 210.399 111.192 210.399 103.404H208.399ZM215.591 122.66L214.248 124.142C219.591 128.984 226.111 131.388 233.687 131.388V129.388V127.388C227.034 127.388 221.49 125.307 216.934 121.178L215.591 122.66ZM233.687 129.388V131.388C242.13 131.388 248.826 129.214 253.391 124.518C257.946 119.833 260.047 112.979 260.047 104.332H258.047H256.047C256.047 112.39 254.088 118.063 250.523 121.73C246.968 125.387 241.484 127.388 233.687 127.388V129.388ZM258.047 104.332V106.332H299.575V104.332V102.332H258.047V104.332Z" fill="black" mask="url(#path-1-inside-1_105_112)"/>
</svg>
