<svg width="239" height="61" viewBox="0 0 239 61" fill="none" xmlns="http://www.w3.org/2000/svg">
<path d="M27.3054 21.7233C25.8721 21.7233 24.6621 21.4067 23.6754 20.7733C22.6887 20.1333 21.9421 19.25 21.4354 18.1233C20.9287 16.9967 20.6754 15.6967 20.6754 14.2233C20.6754 12.75 20.9287 11.45 21.4354 10.3233C21.9421 9.19667 22.6887 8.31667 23.6754 7.68334C24.6621 7.04334 25.8721 6.72334 27.3054 6.72334C28.9787 6.72334 30.3454 7.15334 31.4054 8.01334C32.4654 8.86667 33.1921 10.0133 33.5854 11.4533L32.0854 11.8433C31.7787 10.7033 31.2287 9.80001 30.4354 9.13334C29.6421 8.46667 28.5987 8.13334 27.3054 8.13334C26.1787 8.13334 25.2421 8.39001 24.4954 8.90334C23.7487 9.41667 23.1854 10.1333 22.8054 11.0533C22.4321 11.9667 22.2387 13.0233 22.2254 14.2233C22.2187 15.4233 22.4021 16.48 22.7754 17.3933C23.1554 18.3067 23.7221 19.0233 24.4754 19.5433C25.2354 20.0567 26.1787 20.3133 27.3054 20.3133C28.5987 20.3133 29.6421 19.98 30.4354 19.3133C31.2287 18.64 31.7787 17.7367 32.0854 16.6033L33.5854 16.9933C33.1921 18.4333 32.4654 19.5833 31.4054 20.4433C30.3454 21.2967 28.9787 21.7233 27.3054 21.7233ZM38.1918 21.4233V10.6233H39.5118V13.2233L39.2518 12.8833C39.3718 12.5633 39.5285 12.27 39.7218 12.0033C39.9151 11.73 40.1251 11.5067 40.3518 11.3333C40.6318 11.0867 40.9585 10.9 41.3318 10.7733C41.7051 10.64 42.0818 10.5633 42.4618 10.5433C42.8418 10.5167 43.1885 10.5433 43.5018 10.6233V12.0033C43.1085 11.9033 42.6785 11.88 42.2118 11.9333C41.7451 11.9867 41.3151 12.1733 40.9218 12.4933C40.5618 12.7733 40.2918 13.11 40.1118 13.5033C39.9318 13.89 39.8118 14.3033 39.7518 14.7433C39.6918 15.1767 39.6618 15.6067 39.6618 16.0333V21.4233H38.1918ZM52.1735 21.7233C51.1202 21.7233 50.2069 21.49 49.4335 21.0233C48.6669 20.5567 48.0702 19.9 47.6435 19.0533C47.2169 18.2067 47.0035 17.2133 47.0035 16.0733C47.0035 14.8933 47.2135 13.8733 47.6335 13.0133C48.0535 12.1533 48.6435 11.49 49.4035 11.0233C50.1702 10.5567 51.0735 10.3233 52.1135 10.3233C53.1802 10.3233 54.0902 10.57 54.8435 11.0633C55.5969 11.55 56.1669 12.25 56.5535 13.1633C56.9402 14.0767 57.1169 15.1667 57.0835 16.4333H55.5835V15.9133C55.5569 14.5133 55.2535 13.4567 54.6735 12.7433C54.1002 12.03 53.2602 11.6733 52.1535 11.6733C50.9935 11.6733 50.1035 12.05 49.4835 12.8033C48.8702 13.5567 48.5635 14.63 48.5635 16.0233C48.5635 17.3833 48.8702 18.44 49.4835 19.1933C50.1035 19.94 50.9802 20.3133 52.1135 20.3133C52.8869 20.3133 53.5602 20.1367 54.1335 19.7833C54.7135 19.4233 55.1702 18.9067 55.5035 18.2333L56.8735 18.7633C56.4469 19.7033 55.8169 20.4333 54.9835 20.9533C54.1569 21.4667 53.2202 21.7233 52.1735 21.7233ZM48.0435 16.4333V15.2033H56.2935V16.4333H48.0435ZM64.5974 21.7233C63.7841 21.7233 63.1008 21.5767 62.5474 21.2833C62.0008 20.99 61.5908 20.6 61.3174 20.1133C61.0441 19.6267 60.9074 19.0967 60.9074 18.5233C60.9074 17.9367 61.0241 17.4367 61.2574 17.0233C61.4974 16.6033 61.8208 16.26 62.2274 15.9933C62.6408 15.7267 63.1174 15.5233 63.6574 15.3833C64.2041 15.25 64.8074 15.1333 65.4674 15.0333C66.1341 14.9267 66.7841 14.8367 67.4174 14.7633C68.0574 14.6833 68.6174 14.6067 69.0974 14.5333L68.5774 14.8533C68.5974 13.7867 68.3908 12.9967 67.9574 12.4833C67.5241 11.97 66.7708 11.7133 65.6974 11.7133C64.9574 11.7133 64.3308 11.88 63.8174 12.2133C63.3108 12.5467 62.9541 13.0733 62.7474 13.7933L61.3174 13.3733C61.5641 12.4067 62.0608 11.6567 62.8074 11.1233C63.5541 10.59 64.5241 10.3233 65.7174 10.3233C66.7041 10.3233 67.5408 10.51 68.2274 10.8833C68.9208 11.25 69.4108 11.7833 69.6974 12.4833C69.8308 12.7967 69.9174 13.1467 69.9574 13.5333C69.9974 13.92 70.0174 14.3133 70.0174 14.7133V21.4233H68.7074V18.7133L69.0874 18.8733C68.7208 19.8 68.1508 20.5067 67.3774 20.9933C66.6041 21.48 65.6774 21.7233 64.5974 21.7233ZM64.7674 20.4533C65.4541 20.4533 66.0541 20.33 66.5674 20.0833C67.0808 19.8367 67.4941 19.5 67.8074 19.0733C68.1208 18.64 68.3241 18.1533 68.4174 17.6133C68.4974 17.2667 68.5408 16.8867 68.5474 16.4733C68.5541 16.0533 68.5574 15.74 68.5574 15.5333L69.1174 15.8233C68.6174 15.89 68.0741 15.9567 67.4874 16.0233C66.9074 16.09 66.3341 16.1667 65.7674 16.2533C65.2074 16.34 64.7008 16.4433 64.2474 16.5633C63.9408 16.65 63.6441 16.7733 63.3574 16.9333C63.0708 17.0867 62.8341 17.2933 62.6474 17.5533C62.4674 17.8133 62.3774 18.1367 62.3774 18.5233C62.3774 18.8367 62.4541 19.14 62.6074 19.4333C62.7674 19.7267 63.0208 19.97 63.3674 20.1633C63.7208 20.3567 64.1874 20.4533 64.7674 20.4533ZM80.9007 21.4233C80.294 21.55 79.694 21.6 79.1007 21.5733C78.514 21.5467 77.9874 21.42 77.5207 21.1933C77.0607 20.9667 76.7107 20.6133 76.4707 20.1333C76.2774 19.7333 76.1707 19.33 76.1507 18.9233C76.1374 18.51 76.1307 18.04 76.1307 17.5133V7.62334H77.5907V17.4533C77.5907 17.9067 77.594 18.2867 77.6007 18.5933C77.614 18.8933 77.684 19.16 77.8107 19.3933C78.0507 19.84 78.4307 20.1067 78.9507 20.1933C79.4774 20.28 80.1274 20.26 80.9007 20.1333V21.4233ZM73.8207 11.8833V10.6233H80.9007V11.8833H73.8207ZM85.6285 8.57334V6.92334H87.0985V8.57334H85.6285ZM85.6285 21.4233V10.6233H87.0985V21.4233H85.6285ZM95.4165 21.4233L91.4965 10.6233H92.9865L96.1765 19.5033L99.3465 10.6233H100.856L96.9365 21.4233H95.4165ZM105.253 8.57334V6.92334H106.723V8.57334H105.253ZM105.253 21.4233V10.6233H106.723V21.4233H105.253ZM118.001 21.4233C117.394 21.55 116.794 21.6 116.201 21.5733C115.614 21.5467 115.087 21.42 114.621 21.1933C114.161 20.9667 113.811 20.6133 113.571 20.1333C113.377 19.7333 113.271 19.33 113.251 18.9233C113.237 18.51 113.231 18.04 113.231 17.5133V7.62334H114.691V17.4533C114.691 17.9067 114.694 18.2867 114.701 18.5933C114.714 18.8933 114.784 19.16 114.911 19.3933C115.151 19.84 115.531 20.1067 116.051 20.1933C116.577 20.28 117.227 20.26 118.001 20.1333V21.4233ZM110.921 11.8833V10.6233H118.001V11.8833H110.921ZM123.776 26.2233L125.866 20.5533L125.896 22.2333L121.166 10.6233H122.726L126.606 20.3333H125.966L129.546 10.6233H131.046L125.246 26.2233H123.776ZM146.216 21.7233C145.416 21.7233 144.673 21.61 143.986 21.3833C143.306 21.15 142.736 20.7867 142.276 20.2933C141.916 19.9067 141.65 19.4767 141.476 19.0033C141.303 18.5233 141.206 18.0167 141.186 17.4833C141.18 16.9767 141.253 16.4733 141.406 15.9733C141.56 15.4733 141.8 15.03 142.126 14.6433C142.32 14.4033 142.536 14.2033 142.776 14.0433C143.023 13.8833 143.276 13.7467 143.536 13.6333C143.036 13.1133 142.653 12.6333 142.386 12.1933C142.126 11.7467 141.996 11.2 141.996 10.5533C141.996 9.81334 142.183 9.13667 142.556 8.52334C142.936 7.91001 143.46 7.45334 144.126 7.15334C144.466 7.00001 144.813 6.89334 145.166 6.83334C145.526 6.76667 145.883 6.73334 146.236 6.73334C146.776 6.73334 147.306 6.81001 147.826 6.96334C148.346 7.11001 148.79 7.34334 149.156 7.66334C149.403 7.85667 149.62 8.08667 149.806 8.35334C149.993 8.61334 150.14 8.88667 150.246 9.17334L148.826 9.59334C148.686 9.23334 148.453 8.93001 148.126 8.68334C147.873 8.48334 147.58 8.34334 147.246 8.26334C146.92 8.18334 146.59 8.14334 146.256 8.14334C145.69 8.14334 145.176 8.25334 144.716 8.47334C144.316 8.67334 144.016 8.95001 143.816 9.30334C143.616 9.65667 143.516 10.07 143.516 10.5433C143.516 10.95 143.583 11.2867 143.716 11.5533C143.85 11.8133 144.043 12.0967 144.296 12.4033C144.443 12.5633 144.606 12.7267 144.786 12.8933C144.966 13.0533 145.15 13.22 145.336 13.3933L149.896 17.6233C149.923 17.4367 149.94 17.2567 149.946 17.0833C149.953 16.9033 149.956 16.7267 149.956 16.5533L149.946 14.4433H151.336V16.6533C151.336 17.18 151.316 17.61 151.276 17.9433C151.236 18.2767 151.183 18.5533 151.116 18.7733L152.976 20.4833L152.006 21.5133L150.416 20.0133C150.196 20.3 149.916 20.5567 149.576 20.7833C149.243 21.01 148.91 21.1867 148.576 21.3133C148.216 21.4733 147.836 21.58 147.436 21.6333C147.036 21.6933 146.63 21.7233 146.216 21.7233ZM146.236 20.3033C146.616 20.3033 146.96 20.28 147.266 20.2333C147.573 20.1867 147.866 20.09 148.146 19.9433C148.5 19.7567 148.763 19.5833 148.936 19.4233C149.11 19.2567 149.25 19.11 149.356 18.9833L144.676 14.7033C144.396 14.79 144.133 14.91 143.886 15.0633C143.646 15.21 143.44 15.3867 143.266 15.5933C143.073 15.8333 142.93 16.11 142.836 16.4233C142.743 16.7367 142.696 17.0667 142.696 17.4133C142.71 17.78 142.77 18.12 142.876 18.4333C142.99 18.74 143.156 19.0133 143.376 19.2533C143.69 19.62 144.11 19.8867 144.636 20.0533C145.163 20.22 145.696 20.3033 146.236 20.3033ZM169.248 21.7233C167.814 21.7233 166.604 21.4067 165.618 20.7733C164.631 20.1333 163.884 19.25 163.378 18.1233C162.871 16.9967 162.618 15.6967 162.618 14.2233C162.618 12.75 162.871 11.45 163.378 10.3233C163.884 9.19667 164.631 8.31667 165.618 7.68334C166.604 7.04334 167.814 6.72334 169.248 6.72334C170.921 6.72334 172.288 7.15334 173.348 8.01334C174.408 8.86667 175.134 10.0133 175.528 11.4533L174.028 11.8433C173.721 10.7033 173.171 9.80001 172.378 9.13334C171.584 8.46667 170.541 8.13334 169.248 8.13334C168.121 8.13334 167.184 8.39001 166.438 8.90334C165.691 9.41667 165.128 10.1333 164.748 11.0533C164.374 11.9667 164.181 13.0233 164.168 14.2233C164.161 15.4233 164.344 16.48 164.718 17.3933C165.098 18.3067 165.664 19.0233 166.418 19.5433C167.178 20.0567 168.121 20.3133 169.248 20.3133C170.541 20.3133 171.584 19.98 172.378 19.3133C173.171 18.64 173.721 17.7367 174.028 16.6033L175.528 16.9933C175.134 18.4333 174.408 19.5833 173.348 20.4433C172.288 21.2967 170.921 21.7233 169.248 21.7233ZM184.644 21.7233C183.571 21.7233 182.654 21.48 181.894 20.9933C181.134 20.5067 180.551 19.8333 180.144 18.9733C179.737 18.1133 179.534 17.1267 179.534 16.0133C179.534 14.88 179.741 13.8867 180.154 13.0333C180.567 12.18 181.154 11.5167 181.914 11.0433C182.681 10.5633 183.591 10.3233 184.644 10.3233C185.724 10.3233 186.644 10.5667 187.404 11.0533C188.171 11.5333 188.754 12.2033 189.154 13.0633C189.561 13.9167 189.764 14.9 189.764 16.0133C189.764 17.1467 189.561 18.1433 189.154 19.0033C188.747 19.8567 188.161 20.5233 187.394 21.0033C186.627 21.4833 185.711 21.7233 184.644 21.7233ZM184.644 20.3133C185.844 20.3133 186.737 19.9167 187.324 19.1233C187.911 18.3233 188.204 17.2867 188.204 16.0133C188.204 14.7067 187.907 13.6667 187.314 12.8933C186.727 12.12 185.837 11.7333 184.644 11.7333C183.837 11.7333 183.171 11.9167 182.644 12.2833C182.124 12.6433 181.734 13.1467 181.474 13.7933C181.221 14.4333 181.094 15.1733 181.094 16.0133C181.094 17.3133 181.394 18.3567 181.994 19.1433C182.594 19.9233 183.477 20.3133 184.644 20.3133ZM198.56 21.7233C197.553 21.7233 196.693 21.4733 195.98 20.9733C195.267 20.4667 194.72 19.7833 194.34 18.9233C193.96 18.0633 193.77 17.0933 193.77 16.0133C193.77 14.94 193.957 13.9733 194.33 13.1133C194.71 12.2533 195.253 11.5733 195.96 11.0733C196.667 10.5733 197.513 10.3233 198.5 10.3233C199.513 10.3233 200.367 10.57 201.06 11.0633C201.753 11.5567 202.277 12.2333 202.63 13.0933C202.99 13.9467 203.17 14.92 203.17 16.0133C203.17 17.0867 202.993 18.0567 202.64 18.9233C202.287 19.7833 201.767 20.4667 201.08 20.9733C200.393 21.4733 199.553 21.7233 198.56 21.7233ZM198.71 20.3533C199.477 20.3533 200.11 20.1667 200.61 19.7933C201.11 19.42 201.483 18.9067 201.73 18.2533C201.977 17.5933 202.1 16.8467 202.1 16.0133C202.1 15.1667 201.977 14.42 201.73 13.7733C201.483 13.12 201.11 12.61 200.61 12.2433C200.117 11.8767 199.493 11.6933 198.74 11.6933C197.967 11.6933 197.327 11.8833 196.82 12.2633C196.313 12.6433 195.937 13.16 195.69 13.8133C195.45 14.4667 195.33 15.2 195.33 16.0133C195.33 16.8333 195.453 17.5733 195.7 18.2333C195.953 18.8867 196.33 19.4033 196.83 19.7833C197.33 20.1633 197.957 20.3533 198.71 20.3533ZM202.1 21.4233V13.2933H201.94V7.02334H203.42V21.4233H202.1ZM213.195 21.7233C212.142 21.7233 211.229 21.49 210.455 21.0233C209.689 20.5567 209.092 19.9 208.665 19.0533C208.239 18.2067 208.025 17.2133 208.025 16.0733C208.025 14.8933 208.235 13.8733 208.655 13.0133C209.075 12.1533 209.665 11.49 210.425 11.0233C211.192 10.5567 212.095 10.3233 213.135 10.3233C214.202 10.3233 215.112 10.57 215.865 11.0633C216.619 11.55 217.189 12.25 217.575 13.1633C217.962 14.0767 218.139 15.1667 218.105 16.4333H216.605V15.9133C216.579 14.5133 216.275 13.4567 215.695 12.7433C215.122 12.03 214.282 11.6733 213.175 11.6733C212.015 11.6733 211.125 12.05 210.505 12.8033C209.892 13.5567 209.585 14.63 209.585 16.0233C209.585 17.3833 209.892 18.44 210.505 19.1933C211.125 19.94 212.002 20.3133 213.135 20.3133C213.909 20.3133 214.582 20.1367 215.155 19.7833C215.735 19.4233 216.192 18.9067 216.525 18.2333L217.895 18.7633C217.469 19.7033 216.839 20.4333 216.005 20.9533C215.179 21.4667 214.242 21.7233 213.195 21.7233ZM209.065 16.4333V15.2033H217.315V16.4333H209.065Z" fill="white"/>
<path d="M52.5273 51.7473C50.7873 51.7473 49.4433 51.3393 48.4953 50.5233C47.5593 49.6953 47.0973 48.4593 47.1093 46.8153H50.0433C50.0313 47.4993 50.2353 48.0213 50.6553 48.3813C51.0753 48.7413 51.6633 48.9213 52.4193 48.9213C53.0433 48.9213 53.5353 48.8193 53.8953 48.6153C54.2553 48.4113 54.4353 48.0993 54.4353 47.6793C54.4353 47.3313 54.2493 47.0793 53.8773 46.9233C53.5173 46.7673 53.1573 46.6593 52.7973 46.5993C52.4373 46.5273 52.2153 46.4853 52.1313 46.4733C51.2073 46.2933 50.4093 46.0773 49.7373 45.8253C49.0653 45.5613 48.5013 45.1653 48.0453 44.6373C47.5893 44.1093 47.3613 43.4133 47.3613 42.5493C47.3613 41.6853 47.5893 40.9533 48.0453 40.3533C48.5013 39.7413 49.1073 39.2853 49.8633 38.9853C50.6313 38.6853 51.4653 38.5353 52.3653 38.5353C53.4573 38.5353 54.3993 38.7393 55.1913 39.1473C55.9953 39.5553 56.6253 40.1733 57.0813 41.0013C57.3093 41.3973 57.4473 41.7813 57.4953 42.1533C57.5433 42.5133 57.5673 42.8673 57.5673 43.2153H54.6333C54.6333 42.5673 54.4593 42.0933 54.1113 41.7933C53.7633 41.4813 53.2233 41.3253 52.4913 41.3253C51.9033 41.3253 51.4473 41.4273 51.1233 41.6313C50.7993 41.8353 50.6373 42.1113 50.6373 42.4593C50.6373 42.8433 50.8533 43.1253 51.2853 43.3053C51.7173 43.4853 52.2633 43.6473 52.9233 43.7913C54.0033 44.0073 54.8433 44.2173 55.4433 44.4213C56.0553 44.6133 56.5833 44.9613 57.0273 45.4653C57.4713 45.9693 57.6933 46.6773 57.6933 47.5893C57.6933 48.4533 57.4533 49.1973 56.9733 49.8213C56.4933 50.4453 55.8573 50.9253 55.0653 51.2613C54.2853 51.5853 53.4393 51.7473 52.5273 51.7473ZM84.3196 38.8953V39.5613H79.5856V51.4233H78.9376V39.5613H74.2036V38.8953H84.3196ZM101.028 38.8953H101.694V46.6353C101.694 47.4273 101.892 48.1593 102.288 48.8313C102.684 49.5033 103.218 50.0373 103.89 50.4333C104.562 50.8293 105.294 51.0273 106.086 51.0273C106.878 51.0273 107.61 50.8293 108.282 50.4333C108.954 50.0373 109.488 49.5033 109.884 48.8313C110.28 48.1593 110.478 47.4273 110.478 46.6353V38.8953H111.144V46.6353C111.144 47.5473 110.916 48.3933 110.46 49.1733C110.004 49.9413 109.386 50.5533 108.606 51.0093C107.838 51.4653 106.998 51.6933 106.086 51.6933C105.174 51.6933 104.328 51.4653 103.548 51.0093C102.78 50.5533 102.168 49.9413 101.712 49.1733C101.256 48.3933 101.028 47.5473 101.028 46.6353V38.8953ZM132.784 38.8953C133.696 38.8953 134.536 39.1233 135.304 39.5793C136.084 40.0353 136.702 40.6533 137.158 41.4333C137.614 42.2013 137.842 43.0413 137.842 43.9533V46.3653C137.842 47.2773 137.614 48.1233 137.158 48.9033C136.702 49.6713 136.084 50.2833 135.304 50.7393C134.536 51.1953 133.696 51.4233 132.784 51.4233H128.158V38.8953H132.784ZM137.176 43.9533C137.176 43.1613 136.978 42.4293 136.582 41.7573C136.186 41.0853 135.646 40.5513 134.962 40.1553C134.29 39.7593 133.558 39.5613 132.766 39.5613H128.824V50.7573H132.766C133.558 50.7573 134.29 50.5593 134.962 50.1633C135.646 49.7673 136.186 49.2333 136.582 48.5613C136.978 47.8893 137.176 47.1573 137.176 46.3653V43.9533ZM163.802 38.8953V39.5613H160.058V50.7573H163.802V51.4233H155.684V50.7573H159.41V39.5613H155.684V38.8953H163.802ZM186.558 38.6253C187.494 38.6253 188.358 38.8593 189.15 39.3273C189.942 39.7833 190.566 40.4073 191.022 41.1993C191.49 41.9913 191.724 42.8553 191.724 43.7913V46.5273C191.724 47.4633 191.49 48.3273 191.022 49.1193C190.566 49.9113 189.942 50.5413 189.15 51.0093C188.358 51.4653 187.494 51.6933 186.558 51.6933C185.622 51.6933 184.758 51.4653 183.966 51.0093C183.174 50.5413 182.544 49.9113 182.076 49.1193C181.62 48.3273 181.392 47.4633 181.392 46.5273V43.7913C181.392 42.8553 181.62 41.9913 182.076 41.1993C182.544 40.4073 183.174 39.7833 183.966 39.3273C184.758 38.8593 185.622 38.6253 186.558 38.6253ZM182.058 46.5273C182.058 47.3433 182.256 48.0993 182.652 48.7953C183.06 49.4793 183.606 50.0253 184.29 50.4333C184.986 50.8293 185.742 51.0273 186.558 51.0273C187.374 51.0273 188.124 50.8293 188.808 50.4333C189.504 50.0253 190.05 49.4793 190.446 48.7953C190.854 48.0993 191.058 47.3433 191.058 46.5273V43.7913C191.058 42.9753 190.854 42.2253 190.446 41.5413C190.05 40.8453 189.504 40.2993 188.808 39.9033C188.124 39.4953 187.374 39.2913 186.558 39.2913C185.742 39.2913 184.986 39.4953 184.29 39.9033C183.606 40.2993 183.06 40.8453 182.652 41.5413C182.256 42.2253 182.058 42.9753 182.058 43.7913V46.5273Z" fill="white"/>
</svg>
